SplineFontDB: 3.2
FontName: MFEKSansUltraCondensed-Black
FullName: MFEK Sans Ultra Condensed Black
FamilyName: MFEK Sans Ultra Condensed
Weight: Black
Copyright: 
Version: 0.1
ItalicAngle: -13
UnderlinePosition: -200
UnderlineWidth: 100
Ascent: 1600
Descent: 400
InvalidEm: 0
LayerCount: 2
Layer: 0 0 "Back" 1
Layer: 1 0 "Fore" 0
XUID: [1021 31 -699969567 16487490]
FSType: 0
OS2Version: 0
OS2_WeightWidthSlopeOnly: 0
OS2_UseTypoMetrics: 1
CreationTime: 1460762150
ModificationTime: 1696880553
PfmFamily: 33
TTFWeight: 900
TTFWidth: 1
LineGap: 0
VLineGap: 0
OS2TypoAscent: 2500
OS2TypoAOffset: 0
OS2TypoDescent: -850
OS2TypoDOffset: 0
OS2TypoLinegap: 0
OS2WinAscent: 2500
OS2WinAOffset: 0
OS2WinDescent: 850
OS2WinDOffset: 0
HheadAscent: 2500
HheadAOffset: 0
HheadDescent: -850
HheadDOffset: 0
OS2CapHeight: 1500
OS2XHeight: 1040
OS2FamilyClass: 2053
OS2Vendor: 'it* '
OS2UnicodeRanges: 00000001.00000000.00000000.00000000
Lookup: 258 0 0 "kerning yeah boi" { "say cheese" [300,0,4] } ['kern' ('DFLT' <'dflt' > 'grek' <'dflt' > 'latn' <'dflt' > ) ]
MarkAttachClasses: 1
DEI: 91125
KernClass2: 30 23 "say cheese"
 73 A Agrave Aacute Acircumflex Atilde Adieresis Aring Amacron Abreve Aogonek
 96 D O Ograve Oacute Ocircumflex Otilde Odieresis Oslash Dcaron Dcroat Omacron Obreve Ohungarumlaut
 81 E AE Egrave Eacute Ecircumflex Edieresis Emacron Ebreve Edotaccent Eogonek Ecaron
 1 F
 39 G Gcircumflex Gbreve Gdotaccent uni0122
 104 J U Ugrave Uacute Ucircumflex Udieresis IJ Jcircumflex Utilde Umacron Ubreve Uring Uhungarumlaut Uogonek
 11 K X uni0136
 23 L Lacute uni013B Lslash
 1 P
 1 Q
 23 R Racute uni0156 Rcaron
 36 S Sacute Scircumflex Scedilla Scaron
 21 T uni0162 Tcaron Tbar
 1 V
 53 W Wcircumflex Wgrave Wacute Wdieresis uni1E86 uni1E88
 30 Y Ycircumflex Ydieresis Ygrave
 26 Z Zacute Zdotaccent Zcaron
 73 a agrave aacute acircumflex atilde adieresis aring amacron abreve aogonek

StartChar: ampersand
Encoding: 38 38 0
Width: 851
VWidth: 1920
Flags: HMW
LayerCount: 2
Fore
SplineSet
383 155 m 2
 312 1034 l 2
 306 1132 310 1201 323 1257 c 0
 343 1342 420 1417 594 1417 c 0
 782 1417 823 1336 796 1221 c 0
 763 1077 556 942 432 885 c 0
 363 853 312 763 295 691 c 0
 283 641 284 617 290 546 c 2
 316 246 l 2
 319 209 328 198 349 198 c 0
 470 198 563 440 625 537 c 0
 680 622 709 656 763 656 c 2
 768 656 l 2
 822 656 860 614 805 535 c 0
 661 329 415 -17 211 -17 c 0
 83 -17 66 58 49 210 c 2
 26 417 l 2
 16 505 24 583 40 651 c 0
 69 775 209 908 421 988 c 0
 545 1035 609 1180 621 1230 c 0
 628 1262 613 1275 595 1275 c 0
 577 1275 559 1258 553 1231 c 0
 547 1207 550 1155 553 1105 c 2
 638 155 l 2
 650 24 579 -15 505 -15 c 2
 500 -15 l 2
 426 -15 394 23 383 155 c 2
EndSplineSet
EndChar

StartChar: period
Encoding: 46 46 1
Width: 400
VWidth: 1920
Flags: HMW
LayerCount: 2
Fore
SplineSet
99 -17 m 6
 83 -17 l 6
 -1 -17 -62 24 -36 138 c 2
 -17 222 l 2
 9 336 60 377 144 377 c 2
 160 377 l 2
 244 377 305 336 279 222 c 2
 260 138 l 2
 234 24 183 -17 99 -17 c 6
EndSplineSet
EndChar

StartChar: zero
Encoding: 48 48 2
Width: 615
VWidth: 1920
Flags: HMW
LayerCount: 2
Fore
SplineSet
-39 244 m 262
 172 1155 l 262
 210 1318 314 1417 515 1417 c 260
 716 1417 775 1318 737 1155 c 262
 526 244 l 262
 488 81 385 -18 184 -18 c 260
 -17 -18 -77 81 -39 244 c 262
209 254 m 262
 192 180 191 152 223 152 c 260
 255 152 267 180 284 254 c 262
 489 1145 l 262
 506 1219 508 1247 476 1247 c 260
 444 1247 431 1219 414 1145 c 262
 209 254 l 262
EndSplineSet
EndChar

StartChar: one
Encoding: 49 49 3
Width: 320
VWidth: 1920
Flags: HMW
LayerCount: 2
Fore
SplineSet
274 1362 m 260
 305 1372 316 1376 339 1398 c 260
 363 1421 387 1425 410 1425 c 262
 412 1425 l 262
 460 1425 484 1393 468 1325 c 262
 191 125 l 262
 171 37 115 -5 41 -5 c 262
 37 -5 l 262
 -37 -5 -73 37 -53 125 c 262
 212 1272 l 262
 224 1325 245 1352 274 1362 c 260
EndSplineSet
EndChar

StartChar: two
Encoding: 50 50 4
Width: 580
VWidth: 1920
Flags: HMW
LayerCount: 2
Fore
SplineSet
-63 140 m 262
 18 492 323 588 404 937 c 262
 456 1159 l 262
 470 1219 472 1243 454 1243 c 260
 437 1243 429 1217 416 1161 c 262
 371 967 l 6
 345 853 300 797 216 797 c 6
 206 797 l 6
 122 797 105 853 131 967 c 6
 169 1131 l 262
 208 1298 309 1417 507 1417 c 260
 671 1417 731 1311 694 1151 c 262
 659 999 l 262
 565 591 236 416 184 190 c 262
 183 185 l 261
 333 185 l 6
 437 185 499 169 482 95 c 6
 481 90 l 6
 464 16 394 0 290 0 c 6
 50 0 l 6
 -64 0 -79 71 -64 135 c 6
 -63 140 l 262
EndSplineSet
EndChar

StartChar: three
Encoding: 51 51 5
Width: 576
VWidth: 1920
Flags: HMW
LayerCount: 2
Fore
SplineSet
125 472 m 6
 140 472 l 6
 204 472 244 425 215 301 c 6
 207 264 l 6
 193 204 182 158 206 158 c 4
 230 158 239 196 254 261 c 6
 320 544 l 6
 330 589 332 620 284 620 c 6
 283 620 l 6
 249 620 209 641 224 705 c 6
 225 710 l 6
 240 774 280 795 314 795 c 6
 315 795 l 6
 358 795 375 816 384 856 c 6
 452 1154 l 6
 466 1214 470 1241 448 1241 c 4
 427 1241 417 1206 405 1155 c 6
 396 1117 l 6
 367 993 314 937 240 937 c 6
 230 937 l 6
 156 937 127 993 156 1117 c 6
 172 1185 l 6
 199 1302 289 1417 493 1417 c 4
 697 1417 734 1297 707 1182 c 6
 646 919 l 6
 608 754 501 700 323 700 c 5
 338 725 l 5
 516 725 594 676 554 501 c 6
 499 264 l 6
 460 94 365 -18 137 -18 c 4
 -59 -18 -79 85 -45 234 c 6
 -30 301 l 6
 -1 425 61 472 125 472 c 6
EndSplineSet
EndChar

StartChar: four
Encoding: 52 52 6
Width: 575
VWidth: 1920
Flags: HMW
LayerCount: 2
Fore
SplineSet
566 415 m 6
 565 410 l 6
 548 336 499 325 445 325 c 6
 435 325 l 261
 396 155 l 6
 367 31 306 -15 232 -15 c 6
 227 -15 l 6
 153 -15 122 31 151 155 c 6
 190 325 l 261
 120 325 l 6
 -14 325 -43 356 -26 430 c 6
 -25 435 l 6
 -15 479 7 529 73 665 c 6
 357 1255 l 6
 404 1352 463 1415 547 1415 c 6
 572 1415 l 6
 656 1415 671 1349 647 1245 c 6
 475 500 l 261
 485 500 l 6
 539 500 583 489 566 415 c 6
235 500 m 261
 351 1000 l 261
 137 500 l 261
 235 500 l 261
EndSplineSet
EndChar

StartChar: five
Encoding: 53 53 7
Width: 600
VWidth: 1920
Flags: HMW
LayerCount: 2
Fore
SplineSet
112 379 m 6
 117 379 l 6
 210 379 222 352 205 259 c 4
 193 190 189 152 213 152 c 4
 242 152 254 193 297 379 c 6
 356 631 l 6
 377 721 382 753 360 753 c 4
 334 753 331 723 310 658 c 4
 279 563 247 538 164 538 c 6
 159 538 l 6
 95 538 59 593 93 707 c 6
 261 1275 l 6
 291 1378 349 1400 453 1400 c 6
 623 1400 l 6
 707 1400 744 1379 732 1325 c 6
 731 1322 l 6
 717 1262 683 1225 573 1225 c 6
 446 1225 l 5
 280 694 l 5
 269 694 l 5
 316 866 384 929 494 929 c 4
 614 929 654 865 605 651 c 6
 542 379 l 6
 474 85 359 -18 154 -18 c 4
 -13 -18 -52 75 -23 259 c 4
 -10 343 18 379 112 379 c 6
EndSplineSet
EndChar

StartChar: six
Encoding: 54 54 8
Width: 591
VWidth: 1920
Flags: HMW
LayerCount: 2
Fore
SplineSet
331 669 m 260
 306 669 296 642 272 540 c 262
 265 510 l 261
 229 550 l 261
 259 682 332 794 450 794 c 260
 594 794 611 694 570 517 c 262
 512 266 l 262
 466 67 373 -16 177 -16 c 260
 -41 -16 -75 86 -20 326 c 262
 164 1121 l 262
 208 1311 305 1417 499 1417 c 260
 697 1417 738 1317 698 1145 c 262
 678 1055 l 6
 649 931 597 885 523 885 c 6
 518 885 l 6
 444 885 414 931 443 1055 c 6
 459 1125 l 262
 474 1191 486 1241 460 1241 c 260
 435 1241 422 1193 405 1118 c 262
 215 293 l 262
 191 188 190 160 214 160 c 260
 244 160 251 190 274 290 c 262
 329 527 l 262
 353 629 356 669 331 669 c 260
EndSplineSet
EndChar

StartChar: seven
Encoding: 55 55 9
Width: 521
VWidth: 1920
Flags: HMW
LayerCount: 2
Fore
SplineSet
673 1235 m 14
 275 155 l 22
 237 52 173 -15 88 -15 c 14
 84 -15 l 22
 -1 -15 -25 55 19 155 c 14
 469 1175 l 29
 343 1175 l 22
 229 1175 182 1211 199 1285 c 14
 201 1290 l 22
 220 1374 281 1400 395 1400 c 14
 579 1400 l 22
 693 1400 714 1347 673 1235 c 14
EndSplineSet
EndChar

StartChar: eight
Encoding: 56 56 10
Width: 630
VWidth: 1920
Flags: HMW
LayerCount: 2
Fore
SplineSet
232 155 m 260
 262 155 275 178 284 216 c 262
 365 567 l 262
 374 606 371 629 341 629 c 260
 311 629 298 606 289 567 c 262
 208 216 l 262
 199 178 202 155 232 155 c 260
382 804 m 260
 407 804 418 823 424 851 c 262
 506 1203 l 262
 511 1226 507 1244 483 1244 c 260
 459 1244 445 1226 440 1203 c 262
 358 851 l 262
 352 823 357 804 382 804 c 260
379 729 m 261
 594 729 626 641 592 495 c 262
 530 224 l 262
 494 70 421 -18 192 -18 c 260
 -12 -18 -72 70 -36 224 c 262
 26 495 l 262
 60 641 158 729 348 729 c 261
 345 709 l 261
 163 712 100 788 137 948 c 262
 188 1171 l 262
 225 1332 339 1417 523 1417 c 260
 732 1417 781 1332 744 1171 c 262
 693 948 l 262
 656 788 583 712 374 709 c 261
 379 729 l 261
EndSplineSet
EndChar

StartChar: nine
Encoding: 57 57 11
Width: 591
VWidth: 1920
Flags: HMW
LayerCount: 2
Fore
SplineSet
343 731 m 260
 368 731 379 758 403 860 c 262
 409 890 l 261
 445 850 l 261
 415 718 342 606 224 606 c 260
 80 606 63 706 104 883 c 262
 162 1134 l 262
 208 1333 301 1416 497 1416 c 260
 715 1416 749 1314 694 1074 c 262
 510 279 l 262
 466 89 369 -17 175 -17 c 260
 -23 -17 -74 83 -34 255 c 262
 -13 345 l 6
 16 469 67 515 141 515 c 6
 146 515 l 6
 220 515 251 469 222 345 c 6
 205 275 l 262
 190 209 179 159 210 159 c 260
 240 159 252 207 269 282 c 262
 460 1107 l 262
 484 1212 484 1240 460 1240 c 260
 430 1240 423 1210 400 1110 c 262
 346 873 l 262
 322 771 318 731 343 731 c 260
EndSplineSet
EndChar

StartChar: A
Encoding: 65 65 12
Width: 550
VWidth: 960
Flags: HW
AnchorPoint: "ogonek" 304 0 basechar 0
AnchorPoint: "bottom" 131 0 basechar 0
AnchorPoint: "top" 489 1400 basechar 0
LayerCount: 2
Fore
SplineSet
155.666015625 520 m 5
 370.666015625 520 l 5
 341.666015625 395 l 5
 126.666015625 395 l 5
 155.666015625 520 l 5
412.666015625 1089 m 5
 119.666015625 125 l 6
 88.666015625 23 56.666015625 -15 -17.333984375 -15 c 6
 -27.333984375 -15 l 6
 -99.333984375 -15 -111.333984375 21 -76.333984375 125 c 6
 312.666015625 1275 l 6
 340.666015625 1358 388.666015625 1400 480.666015625 1400 c 6
 530.666015625 1400 l 6
 623.666015625 1400 653.666015625 1368 640.666015625 1275 c 6
 485.666015625 125 l 6
 471.666015625 25 417.666015625 -15 342.666015625 -15 c 6
 332.666015625 -15 l 6
 260.666015625 -15 212.666015625 20 232.666015625 125 c 6
 412.666015625 1089 l 5
EndSplineSet
EndChar

StartChar: B
Encoding: 66 66 13
Width: 581
VWidth: 960
Flags: HW
AnchorPoint: "top" 465 1400 basechar 0
AnchorPoint: "bottom" 158 0 basechar 0
LayerCount: 2
Fore
SplineSet
346.322265625 770 m 257
 368.884765625 770 l 258
 389.642578125 770 404.653320312 794 421.653320312 869 c 258
 480.686523438 1126 l 258
 497.716796875 1201 499.159179688 1225 473.889648438 1225 c 258
 451.322265625 1225 l 257
 346.322265625 770 l 257
385.01953125 725 m 257
 512.653320312 725 625.653320312 656 580.317382812 461 c 258
 542.317382812 294 l 258
 494.317382812 84 385.317382812 0 227.317382812 0 c 258
 48.322265625 0 l 258
 -55.677734375 0 -71.677734375 21 -47.677734375 125 c 258
 217.322265625 1275 l 262
 243.322265625 1389 267.322265625 1400 371.322265625 1400 c 262
 541.00390625 1400 l 258
 698.653320312 1400 752.653320312 1307 707.653320312 1112 c 258
 671.653320312 959 l 258
 626.653320312 764 497.653320312 700 370.918945312 700 c 257
 385.01953125 725 l 257
344.412109375 645 m 258
 317.322265625 645 l 257
 208.322265625 175 l 257
 235.459960938 175 l 258
 260.729492188 175 271.317382812 203 288.317382812 278 c 258
 349.317382812 541 l 258
 366.321289062 616 369.681640625 645 344.412109375 645 c 258
EndSplineSet
EndChar

StartChar: C
Encoding: 67 67 14
Width: 539
VWidth: 960
Flags: HW
AnchorPoint: "bottom" 168 0 basechar 0
AnchorPoint: "top" 500 1400 basechar 0
LayerCount: 2
Fore
SplineSet
547.384765625 503 m 260
 529.384765625 426 516.384765625 367 497.384765625 294 c 4
 447.384765625 98 332.384765625 -18 157.220703125 -18 c 260
 -46.779296875 -18 -59.779296875 109 -4.779296875 349 c 262
 155.220703125 1042 l 262
 208.220703125 1272 284.220703125 1418 497.52734375 1418 c 260
 674.862304688 1418 713.862304688 1293 663.862304688 1074 c 4
 656.862304688 1042 648.862304688 1006 639.862304688 966 c 260
 622.862304688 892 596.862304688 847 522.862304688 847 c 262
 518.862304688 847 l 262
 444.862304688 847 438.862304688 892 454.862304688 966 c 260
 491.020507812 1129 514.862304688 1218 478.584960938 1218 c 260
 446.997070312 1218 432.176757812 1161 405.220703125 1046 c 262
 236.220703125 314 l 262
 213.212890625 214 209.784179688 182 239.56640625 182 c 260
 272.959960938 182 296.420898438 262 352.384765625 503 c 260
 371.423828125 587 401.384765625 623 475.384765625 623 c 262
 480.384765625 623 l 262
 554.384765625 623 566.384765625 587 547.384765625 503 c 260
EndSplineSet
EndChar

StartChar: D
Encoding: 68 68 15
Width: 599
VWidth: 960
Flags: HW
AnchorPoint: "top" 485 1400 basechar 0
AnchorPoint: "bottom" 142 0 basechar 0
LayerCount: 2
Fore
SplineSet
170.998046875 0 m 258
 78.330078125 0 l 258
 -65.669921875 0 -73.669921875 11 -40.669921875 155 c 258
 210.330078125 1245 l 262
 243.330078125 1389 257.330078125 1400 401.330078125 1400 c 262
 494.01953125 1400 l 258
 694.979492188 1400 773.979492188 1285 705.979492188 992 c 258
 570.979492188 409 l 258
 502.979492188 116 391.979492188 0 170.998046875 0 c 258
229.087890625 175 m 258
 257.966796875 175 277.979492188 220 319.979492188 404 c 258
 456.979492188 996 l 258
 498.994140625 1180 500.91015625 1225 472.029296875 1225 c 258
 451.272460938 1225 l 257
 208.330078125 175 l 257
 229.087890625 175 l 258
EndSplineSet
EndChar

StartChar: E
Encoding: 69 69 16
Width: 429
VWidth: 960
Flags: HW
AnchorPoint: "ogonek" 230 0 basechar 0
AnchorPoint: "top" 495 1400 basechar 0
AnchorPoint: "bottom" 172 0 basechar 0
LayerCount: 2
Fore
SplineSet
346.330078125 770 m 257
 361.330078125 770 l 258
 435.330078125 770 447.330078125 754 437.330078125 710 c 258
 436.330078125 705 l 258
 426.330078125 661 406.330078125 645 332.330078125 645 c 258
 317.330078125 645 l 257
 208.330078125 175 l 257
 263.330078125 175 l 258
 337.330078125 175 381.330078125 164 364.330078125 90 c 258
 363.330078125 85 l 258
 346.330078125 11 297.330078125 0 223.330078125 0 c 258
 78.330078125 0 l 258
 -65.669921875 0 -73.669921875 11 -40.669921875 155 c 258
 210.330078125 1245 l 258
 243.330078125 1389 257.330078125 1400 401.330078125 1400 c 258
 536.330078125 1400 l 258
 610.330078125 1400 654.330078125 1389 637.330078125 1315 c 258
 635.330078125 1310 l 258
 618.330078125 1236 570.330078125 1225 496.330078125 1225 c 258
 451.330078125 1225 l 257
 346.330078125 770 l 257
EndSplineSet
EndChar

StartChar: F
Encoding: 70 70 17
Width: 424
VWidth: 960
Flags: HW
AnchorPoint: "top" 475 1400 basechar 0
AnchorPoint: "bottom" 152 0 basechar 0
LayerCount: 2
Fore
SplineSet
347.330078125 775 m 257
 357.330078125 775 l 258
 431.330078125 775 454.330078125 764 444.330078125 720 c 258
 441.330078125 705 l 258
 431.330078125 661 402.330078125 650 328.330078125 650 c 258
 318.330078125 650 l 257
 192.330078125 105 l 258
 173.330078125 21 129.330078125 -15 45.330078125 -15 c 258
 40.330078125 -15 l 258
 -43.669921875 -15 -71.669921875 21 -52.669921875 105 c 258
 210.330078125 1245 l 258
 243.330078125 1389 257.330078125 1400 401.330078125 1400 c 258
 541.330078125 1400 l 258
 615.330078125 1400 659.330078125 1389 642.330078125 1315 c 258
 640.330078125 1310 l 258
 623.330078125 1236 575.330078125 1225 501.330078125 1225 c 258
 451.330078125 1225 l 257
 347.330078125 775 l 257
EndSplineSet
EndChar

StartChar: G
Encoding: 71 71 18
Width: 561
VWidth: 960
Flags: HW
AnchorPoint: "top" 485 1400 basechar 0
AnchorPoint: "bottom" 202 0 basechar 0
LayerCount: 2
Fore
SplineSet
329.333984375 637 m 2
 330.303710938 640 l 2
 340.319335938 684 367.754882812 700 410.909179688 700 c 2
 460.909179688 700 l 2
 604.909179688 700 612.909179688 689 576.696289062 545 c 2
 474.696289062 105 l 2
 452.696289062 11 431.696289062 -15 387.696289062 -15 c 2
 382.696289062 -15 l 2
 338.696289062 -15 326.696289062 13 334.696289062 105 c 2
 350.696289062 280 l 1
 485.696289062 630 l 1
 386.696289062 245 322.696289062 -18 117.303710938 -18 c 0
 -50.6962890625 -18 -58.6962890625 119 8.3037109375 409 c 2
 143.303710938 992 l 2
 210.303710938 1282 284.303710938 1418 497.631835938 1418 c 0
 678.909179688 1418 713.909179688 1296 667.909179688 1094 c 0
 656.909179688 1043 651.909179688 1008 639.909179688 957 c 0
 622.909179688 883 578.909179688 848 514.909179688 848 c 2
 509.909179688 848 l 2
 445.909179688 848 417.909179688 883 434.909179688 957 c 0
 488.099609375 1195 500.909179688 1228 470.791992188 1228 c 0
 450.034179688 1228 437.244140625 1181 394.272460938 996 c 2
 257.303710938 404 l 2
 215.303710938 224 206.956054688 172 241.251953125 172 c 0
 271.034179688 172 289.509765625 231 388.696289062 628 c 1
 437.696289062 578 l 1
 378.696289062 578 l 2
 339.73828125 578 319.318359375 593 329.333984375 637 c 2
EndSplineSet
EndChar

StartChar: H
Encoding: 72 72 19
Width: 589
VWidth: 960
Flags: HW
AnchorPoint: "top" 505 1400 basechar 0
AnchorPoint: "bottom" 182 0 basechar 0
LayerCount: 2
Fore
SplineSet
660.454101562 1415 m 2
 665.454101562 1415 l 2
 739.454101562 1415 778.454101562 1389 745.454101562 1245 c 2
 494.454101562 155 l 2
 461.454101562 11 409.454101562 -15 335.454101562 -15 c 2
 330.454101562 -15 l 2
 256.454101562 -15 216.454101562 11 249.454101562 155 c 2
 356.489257812 620 l 257
 311.329101562 620 l 257
 204.329101562 155 l 2
 171.305664062 11 119.329101562 -15 45.3291015625 -15 c 2
 40.3291015625 -15 l 2
 -33.6708984375 -15 -73.6708984375 11 -40.6708984375 155 c 2
 210.329101562 1245 l 18
 243.329101562 1389 296.329101562 1415 370.329101562 1415 c 10
 375.329101562 1415 l 18
 449.329101562 1415 488.329101562 1389 455.329101562 1245 c 10
 352.305664062 795 l 257
 397.454101562 795 l 257
 500.517578125 1245 l 2
 533.541992188 1389 586.454101562 1415 660.454101562 1415 c 2
EndSplineSet
EndChar

StartChar: I
Encoding: 73 73 20
Width: 299
VWidth: 960
Flags: HW
AnchorPoint: "ogonek" 40 0 basechar 0
AnchorPoint: "top" 363 1400 basechar 0
AnchorPoint: "bottom" 40 0 basechar 0
LayerCount: 2
Fore
SplineSet
370.329101562 1415 m 10
 375.329101562 1415 l 18
 449.329101562 1415 488.329101562 1389 455.329101562 1245 c 10
 204.329101562 155 l 18
 171.329101562 11 119.329101562 -15 45.3291015625 -15 c 10
 40.3291015625 -15 l 18
 -33.6708984375 -15 -73.6708984375 11 -40.6708984375 155 c 10
 210.329101562 1245 l 18
 243.329101562 1389 296.329101562 1415 370.329101562 1415 c 10
EndSplineSet
EndChar

StartChar: J
Encoding: 74 74 21
Width: 510
VWidth: 960
Flags: HW
AnchorPoint: "top" 591 1400 basechar 0
AnchorPoint: "bottom" 118 0 basechar 0
LayerCount: 2
Fore
SplineSet
565.475585938 1415 m 2
 575.475585938 1415 l 2
 649.475585938 1415 688.475585938 1389 655.475585938 1245 c 2
 430.475585938 269 l 258
 385.475585938 76 320.475585938 -18 117.475585938 -18 c 256
 -58.4892578125 -18 -86.4892578125 77 -49.4892578125 239 c 258
 28.5107421875 577 l 2
 45.5107421875 651 88.5107421875 678 142.510742188 678 c 2
 147.510742188 678 l 2
 201.510742188 678 230.508789062 651 213.504882812 577 c 2
 136.510742188 244 l 258
 123.510742188 188 121.314453125 162 137.463867188 162 c 256
 153.614257812 162 161.475585938 184 177.475585938 254 c 258
 405.515625 1245 l 2
 438.52734375 1389 491.475585938 1415 565.475585938 1415 c 2
EndSplineSet
EndChar

StartChar: K
Encoding: 75 75 22
Width: 610
VWidth: 960
Flags: HW
AnchorPoint: "top" 525 1400 basechar 0
AnchorPoint: "bottom" 202 0 basechar 0
LayerCount: 2
Fore
SplineSet
370.329101562 1415 m 10
 375.329101562 1415 l 18
 449.329101562 1415 488.329101562 1389 455.329101562 1245 c 10
 204.329101562 155 l 18
 171.305664062 11 119.329101562 -15 45.3291015625 -15 c 10
 40.3291015625 -15 l 18
 -33.6708984375 -15 -73.6708984375 11 -40.6708984375 155 c 10
 210.329101562 1245 l 18
 243.329101562 1389 296.329101562 1415 370.329101562 1415 c 10
349.329101562 785 m 1
 539.944335938 890 l 1
 545.944335938 155 l 2
 546.944335938 36 488.944335938 -15 396.944335938 -15 c 6
 391.944335938 -15 l 6
 316.944335938 -15 269.944335938 25 281.944335938 155 c 6
 349.329101562 785 l 1
558.944335938 1245 m 2
 630.944335938 1376 661.944335938 1415 736.944335938 1415 c 2
 739.944335938 1415 l 2
 811.944335938 1415 842.944335938 1372 766.944335938 1245 c 2
 452.944335938 720 l 1
 405.892578125 770 l 1
 262.329101562 450 l 1
 160.329101562 505 l 1
 558.944335938 1245 l 2
EndSplineSet
EndChar

StartChar: L
Encoding: 76 76 23
Width: 455
VWidth: 960
Flags: HW
AnchorPoint: "top" 345 1400 basechar 0
AnchorPoint: "bottom" 152 0 basechar 0
LayerCount: 2
Fore
SplineSet
370.329101562 1415 m 2
 375.329101562 1415 l 2
 449.329101562 1415 488.329101562 1389 455.329101562 1245 c 2
 208.329101562 175 l 281
 283.329101562 175 l 2
 357.329101562 175 399.329101562 154 384.329101562 90 c 2
 383.329101562 85 l 2
 366.329101562 11 317.329101562 0 243.329101562 0 c 2
 78.3291015625 0 l 2
 -65.6708984375 0 -73.6708984375 11 -40.6708984375 155 c 2
 210.329101562 1245 l 2
 243.329101562 1389 296.329101562 1415 370.329101562 1415 c 2
EndSplineSet
EndChar

StartChar: M
Encoding: 77 77 24
Width: 770
VWidth: 960
Flags: HW
AnchorPoint: "top" 585 1400 basechar 0
AnchorPoint: "bottom" 252 0 basechar 0
LayerCount: 2
Fore
SplineSet
346.3046875 1115 m 261
 125.3046875 155 l 6
 92.28125 11 65.3046875 -15 1.3046875 -15 c 6
 -3.6953125 -15 l 6
 -67.6953125 -15 -82.6953125 11 -49.6953125 155 c 6
 201.3046875 1245 l 6
 234.3046875 1389 271.3046875 1415 395.3046875 1415 c 6
 397.3046875 1415 l 6
 511.056640625 1415 533.9140625 1388 512.645507812 1245 c 6
 423.306640625 644 l 261
 614.626953125 1245 l 6
 660.263671875 1388 692.459960938 1415 812.1796875 1415 c 6
 817.1796875 1415 l 6
 941.1796875 1415 960.1796875 1389 927.1796875 1245 c 6
 676.1796875 155 l 6
 643.1796875 11 596.1796875 -15 522.1796875 -15 c 6
 517.1796875 -15 l 6
 443.1796875 -15 408.1796875 11 441.1796875 155 c 6
 662.2421875 1115 l 261
 358.150390625 155 l 6
 309.581054688 2 285.732421875 -15 246.0234375 -15 c 6
 236.998046875 -15 l 6
 197.288085938 -15 181.42578125 2 203.822265625 155 c 6
 346.3046875 1115 l 261
EndSplineSet
EndChar

StartChar: N
Encoding: 78 78 25
Width: 562
VWidth: 960
Flags: HW
AnchorPoint: "top" 500 1400 basechar 0
AnchorPoint: "bottom" 172 0 basechar 0
LayerCount: 2
Fore
SplineSet
673.998046875 1415 m 6
 678.998046875 1415 l 6
 742.998046875 1415 761.998046875 1389 735.998046875 1275 c 6
 469.013671875 125 l 6
 443.013671875 11 401.013671875 -15 347.013671875 -15 c 6
 342.013671875 -15 l 6
 288.013671875 -15 262.013671875 17 260.013671875 125 c 6
 263.249023438 796 l 5
 283.244140625 796 l 261
 128.249023438 125 l 6
 102.216796875 11 60.2490234375 -15 6.2490234375 -15 c 6
 1.2490234375 -15 l 6
 -52.7509765625 -15 -82.7509765625 11 -56.7509765625 125 c 6
 211.249023438 1285 l 6
 235.249023438 1389 277.249023438 1415 351.249023438 1415 c 6
 356.249023438 1415 l 6
 430.040039062 1415 461.889648438 1376 456.923828125 1275 c 6
 420.013671875 629 l 5
 400.013671875 629 l 261
 550.998046875 1275 l 6
 577.013671875 1389 609.998046875 1415 673.998046875 1415 c 6
EndSplineSet
EndChar

StartChar: O
Encoding: 79 79 26
Width: 603
VWidth: 960
Flags: HW
AnchorPoint: "top" 515 1400 basechar 0
AnchorPoint: "bottom" 193 0 basechar 0
LayerCount: 2
Fore
SplineSet
-2.7490234375 359 m 262
 155.250976562 1042 l 262
 209.250976562 1275 288.250976562 1416 525.541992188 1416 c 256
 762.938476562 1416 776.938476562 1275 722.938476562 1042 c 262
 564.938476562 359 l 262
 510.938476562 126 431.938476562 -18 194.536132812 -18 c 256
 -42.7490234375 -18 -56.7490234375 126 -2.7490234375 359 c 262
225.250976562 264 m 258
 204.250976562 175 209.192382812 152 233.560546875 152 c 256
 257.926757812 152 271.982421875 175 292.938476562 264 c 258
 493.969726562 1136 l 258
 514.938476562 1225 510.930664062 1248 486.5625 1248 c 256
 462.1953125 1248 447.237304688 1225 426.250976562 1136 c 258
 225.250976562 264 l 258
EndSplineSet
EndChar

StartChar: P
Encoding: 80 80 27
Width: 554
VWidth: 960
Flags: HW
AnchorPoint: "top" 525 1400 basechar 0
AnchorPoint: "bottom" 18 0 basechar 0
LayerCount: 2
Fore
SplineSet
451.330078125 1225 m 257
 335.330078125 725 l 257
 344.413085938 725 l 258
 378.708007812 725 393.7265625 749 403.7265625 794 c 258
 487.7265625 1156 l 258
 497.7265625 1201 494.65234375 1225 460.358398438 1225 c 258
 451.330078125 1225 l 257
491.330078125 1400 m 258
 668.7265625 1400 736.7265625 1326 693.7265625 1141 c 258
 628.7265625 859 l 258
 585.7265625 674 485.7265625 600 343.404296875 600 c 258
 307.3046875 600 l 257
 204.330078125 155 l 2
 171.306640625 11 129.330078125 -15 45.330078125 -15 c 2
 40.330078125 -15 l 2
 -43.669921875 -15 -73.669921875 11 -40.669921875 155 c 2
 210.330078125 1245 l 2
 243.330078125 1389 257.330078125 1400 401.330078125 1400 c 2
 491.330078125 1400 l 258
EndSplineSet
EndChar

StartChar: Q
Encoding: 81 81 28
Width: 649
VWidth: 960
Flags: HW
AnchorPoint: "top" 515 1400 basechar 0
AnchorPoint: "bottom" 192 0 basechar 0
LayerCount: 2
Fore
SplineSet
589.967773438 110 m 2
 588.967773438 105 l 2
 569.967773438 21 537.967773438 -8 481.967773438 -8 c 4
 386.967773438 -8 341.967773438 46 372.967773438 179 c 257
 464.967773438 294 l 257
 424.967773438 119 337.967773438 -18 157.280273438 -18 c 256
 -50.7197265625 -18 -55.7197265625 129 -15.7197265625 304 c 258
 167.280273438 1096 l 258
 207.280273438 1271 284.280273438 1418 524.71484375 1418 c 256
 764.967773438 1418 774.967773438 1271 734.967773438 1096 c 258
 548.967773438 289 l 258
 535.967773438 232 549.967773438 219 562.967773438 213 c 0
 585.967773438 202 606.967773438 183 589.967773438 110 c 2
292.967773438 264 m 258
 493.999023438 1136 l 258
 508.999023438 1201 516.375 1248 485.689453125 1248 c 256
 455.004882812 1248 441.280273438 1201 426.280273438 1136 c 258
 225.280273438 264 l 258
 209.264648438 194 202.001953125 152 232.686523438 152 c 256
 263.372070312 152 276.967773438 194 292.967773438 264 c 258
EndSplineSet
EndChar

StartChar: R
Encoding: 82 82 29
Width: 611
VWidth: 960
Flags: HW
AnchorPoint: "top" 525 1400 basechar 0
AnchorPoint: "bottom" 202 0 basechar 0
LayerCount: 2
Fore
SplineSet
451.30859375 1225 m 261
 334.330078125 720 l 261
 352.401367188 720 l 262
 383.0859375 720 394.661132812 751 404.661132812 796 c 262
 485.677734375 1148 l 262
 494.701171875 1188 500.045898438 1225 469.361328125 1225 c 262
 451.30859375 1225 l 261
518.424804688 1400 m 262
 748.661132812 1400 769.661132812 1296 733.661132812 1141 c 262
 673.661132812 879 l 262
 634.661132812 709 504.661132812 640 343.379882812 640 c 261
 350.373046875 670 l 261
 525.661132812 670 625.661132812 656 582.661132812 466 c 262
 516.661132812 179 l 262
 510.661132812 152 512.661132812 130 513.661132812 114 c 260
 514.661132812 101 517.661132812 78 511.661132812 52 c 262
 510.661132812 49 l 262
 500.661132812 6 468.661132812 -15 394.661132812 -15 c 262
 379.661132812 -15 l 262
 303.661132812 -15 255.661132812 1 251.661132812 70 c 260
 249.661132812 97 248.661132812 120 258.661132812 164 c 262
 344.661132812 536 l 262
 353.671875 576 344.171875 595 318.90234375 595 c 262
 305.330078125 595 l 261
 204.307617188 155 l 6
 171.284179688 11 119.330078125 -15 45.330078125 -15 c 6
 40.330078125 -15 l 6
 -33.669921875 -15 -73.669921875 11 -40.669921875 155 c 6
 210.330078125 1245 l 6
 243.330078125 1389 257.330078125 1400 401.330078125 1400 c 6
 518.424804688 1400 l 262
EndSplineSet
EndChar

StartChar: S
Encoding: 83 83 30
Width: 472
VWidth: 960
Flags: HW
AnchorPoint: "top" 404 1400 basechar 0
AnchorPoint: "bottom" 122 0 basechar 0
LayerCount: 2
Fore
SplineSet
118.27734375 539 m 2
 124.27734375 539 l 2
 185.27734375 539 208.264648438 514 186.27734375 420 c 0
 170.27734375 352 175.27734375 372 155.27734375 285 c 0
 135.27734375 200 133.78125 172 150.928710938 172 c 256
 172.588867188 172 182.469726562 208 206.469726562 314 c 256
 241.478515625 466 216.27734375 558 187.27734375 645 c 0
 151.27734375 754 107.27734375 869 164.27734375 1116 c 256
 211.27734375 1321 306.27734375 1418 472.27734375 1418 c 256
 635.008789062 1418 662.008789062 1308 626.008789062 1150 c 2
 596.008789062 1016 l 2
 572.008789062 912 533.008789062 887 480.008789062 887 c 2
 476.008789062 887 l 2
 423.008789062 887 396.008789062 912 420.008789062 1016 c 0
 442.008789062 1110 430.0234375 1060 448.047851562 1139 c 0
 467.040039062 1221 467.422851562 1238 452.080078125 1238 c 256
 437.640625 1238 425.27734375 1211 407.27734375 1132 c 256
 365.27734375 952 397.008789062 839 430.008789062 753 c 0
 469.008789062 653 501.469726562 552 446.469726562 314 c 256
 393.469726562 85 291.469726562 -18 131.469726562 -18 c 256
 -27.72265625 -18 -82.72265625 52 -39.72265625 240 c 2
 2.27734375 420 l 2
 24.27734375 514 57.27734375 539 118.27734375 539 c 2
EndSplineSet
EndChar

StartChar: T
Encoding: 84 84 31
Width: 534
VWidth: 960
Flags: HW
AnchorPoint: "top" 475 1400 basechar 0
AnchorPoint: "bottom" 133 0 basechar 0
LayerCount: 2
Fore
SplineSet
326.205078125 1400 m 262
 651.205078125 1400 l 262
 739.205078125 1400 769.205078125 1369 757.205078125 1315 c 262
 755.205078125 1310 l 262
 743.205078125 1256 699.205078125 1225 611.205078125 1225 c 262
 571.205078125 1225 l 261
 315.205078125 115 l 262
 295.205078125 27 239.205078125 -15 165.205078125 -15 c 262
 160.205078125 -15 l 262
 86.205078125 -15 50.205078125 27 70.205078125 115 c 262
 326.205078125 1225 l 261
 286.205078125 1225 l 262
 198.205078125 1225 168.205078125 1256 180.205078125 1310 c 262
 182.205078125 1315 l 262
 194.205078125 1369 238.205078125 1400 326.205078125 1400 c 262
EndSplineSet
EndChar

StartChar: U
Encoding: 85 85 32
Width: 534
VWidth: 960
Flags: HW
AnchorPoint: "ogonek" 228 0 basechar 0
AnchorPoint: "top" 503 1400 basechar 0
AnchorPoint: "bottom" 180 0 basechar 0
LayerCount: 2
Fore
SplineSet
277.446289062 254 m 258
 510.486328125 1265 l 2
 534.487304688 1369 571.446289062 1415 635.446289062 1415 c 2
 640.446289062 1415 l 2
 704.446289062 1415 719.446289062 1369 695.446289062 1265 c 2
 472.446289062 299 l 258
 435.446289062 139 375.446289062 -18 162.817382812 -18 c 256
 -71.1826171875 -18 -57.1826171875 104 -13.1826171875 294 c 258
 205.817382812 1245 l 2
 238.817382812 1389 291.817382812 1415 365.817382812 1415 c 2
 375.817382812 1415 l 2
 449.817382812 1415 488.817382812 1389 455.817382812 1245 c 2
 235.817382812 289 l 258
 208.817382812 174 207.462890625 152 228.220703125 152 c 256
 248.978515625 152 260.446289062 179 277.446289062 254 c 258
EndSplineSet
EndChar

StartChar: V
Encoding: 86 86 33
Width: 536
VWidth: 960
Flags: HW
AnchorPoint: "top" 494 1400 basechar 0
AnchorPoint: "bottom" 170 0 basechar 0
LayerCount: 2
Fore
SplineSet
251.9921875 311 m 1
 539.026367188 1275 l 2
 570.026367188 1377 602.026367188 1415 676.026367188 1415 c 2
 686.026367188 1415 l 2
 758.026367188 1415 770.026367188 1379 735.026367188 1275 c 2
 345.026367188 125 l 2
 317.026367188 42 266.026367188 -15 180.575195312 -15 c 2
 135.04296875 -15 l 2
 42.04296875 -15 15.04296875 32 28.04296875 125 c 2
 184.04296875 1275 l 2
 198.04296875 1375 252.04296875 1415 327.04296875 1415 c 2
 337.04296875 1415 l 2
 409.04296875 1415 457.04296875 1380 437.04296875 1275 c 2
 251.9921875 311 l 1
EndSplineSet
EndChar

StartChar: W
Encoding: 87 87 34
Width: 785
VWidth: 960
Flags: HW
AnchorPoint: "top" 639 1400 basechar 0
AnchorPoint: "bottom" 296 0 basechar 0
LayerCount: 2
Fore
SplineSet
267.578125 495 m 257
 502.866210938 1245 l 2
 548.866210938 1387 589.866210938 1415 643.866210938 1415 c 2
 648.866210938 1415 l 2
 702.866210938 1415 728.866210938 1387 708.866210938 1245 c 2
 594.108398438 477 l 257
 815.360351562 1245 l 2
 857.360351562 1387 893.360351562 1415 947.360351562 1415 c 2
 952.360351562 1415 l 2
 1006.36035156 1415 1036.36035156 1387 990.360351562 1245 c 2
 622.360351562 115 l 2
 588.360351562 12 553.360351562 -15 483.758789062 -15 c 2
 474.734375 -15 l 2
 407.866210938 -15 365.866210938 12 379.866210938 115 c 2
 469.866210938 765 l 257
 262.866210938 115 l 2
 229.866210938 12 182.99609375 -15 115.712890625 -15 c 2
 113.712890625 -15 l 2
 39.712890625 -15 2.712890625 12 16.712890625 115 c 2
 171.712890625 1245 l 6
 189.712890625 1377 246.712890625 1415 320.712890625 1415 c 2
 328.712890625 1415 l 2
 402.712890625 1415 436.712890625 1378 411.712890625 1245 c 6
 267.578125 495 l 257
EndSplineSet
EndChar

StartChar: X
Encoding: 88 88 35
Width: 595
VWidth: 960
Flags: HW
AnchorPoint: "top" 519 1400 basechar 0
AnchorPoint: "bottom" 196 0 basechar 0
LayerCount: 2
Fore
SplineSet
687.666015625 1415 m 2
 699.666015625 1415 l 2
 773.666015625 1415 792.666015625 1344 746.666015625 1245 c 2
 507.666015625 732 l 257
 517.203125 155 l 2
 519.203125 38 454.203125 -15 370.203125 -15 c 2
 360.203125 -15 l 2
 276.203125 -15 234.203125 32 250.203125 155 c 2
 289.920898438 436 l 257
 181.61328125 155 l 2
 132.61328125 34 77.61328125 -15 -6.38671875 -15 c 2
 -13.38671875 -15 l 2
 -97.38671875 -15 -111.38671875 32 -45.38671875 155 c 2
 235.61328125 680 l 257
 214.61328125 1245 l 2
 210.61328125 1343 281.61328125 1415 355.61328125 1415 c 2
 365.61328125 1415 l 2
 439.61328125 1415 483.61328125 1348 470.61328125 1245 c 2
 430.491210938 946 l 257
 525.666015625 1245 l 2
 559.666015625 1348 613.666015625 1415 687.666015625 1415 c 2
EndSplineSet
EndChar

StartChar: Y
Encoding: 89 89 36
Width: 630
VWidth: 960
Flags: HW
AnchorPoint: "top" 543 1400 basechar 0
AnchorPoint: "bottom" 205 0 basechar 0
LayerCount: 2
Fore
SplineSet
751.36328125 1415 m 2
 754.36328125 1415 l 2
 818.36328125 1415 841.36328125 1365 807.36328125 1295 c 2
 478.36328125 625 l 257
 370.36328125 155 l 6
 337.36328125 11 285.36328125 -15 211.36328125 -15 c 2
 206.36328125 -15 l 2
 132.36328125 -15 92.36328125 11 125.36328125 155 c 6
 233.36328125 625 l 257
 215.36328125 1295 l 6
 213.36328125 1365 290.36328125 1415 364.36328125 1415 c 2
 371.36328125 1415 l 2
 445.36328125 1415 497.36328125 1378 489.36328125 1295 c 2
 439.36328125 800 l 257
 617.36328125 1295 l 2
 643.36328125 1368 687.36328125 1415 751.36328125 1415 c 2
EndSplineSet
EndChar

StartChar: Z
Encoding: 90 90 37
Width: 523
VWidth: 960
Flags: HW
AnchorPoint: "top" 466 1400 basechar 0
AnchorPoint: "bottom" 164 0 basechar 0
LayerCount: 2
Fore
SplineSet
-70.052734375 155 m 2
 429.947265625 1225 l 257
 361.947265625 1225 l 2
 217.947265625 1225 195.947265625 1246 210.947265625 1310 c 2
 212.947265625 1315 l 2
 227.947265625 1379 257.947265625 1400 401.947265625 1400 c 2
 596.947265625 1400 l 2
 720.947265625 1400 733.947265625 1363 678.947265625 1245 c 2
 185.947265625 175 l 257
 303.947265625 175 l 2
 447.947265625 175 469.947265625 154 454.947265625 90 c 2
 453.947265625 85 l 2
 438.947265625 21 407.947265625 0 263.947265625 0 c 2
 8.947265625 0 l 2
 -125.052734375 0 -130.052734375 27 -70.052734375 155 c 2
EndSplineSet
EndChar

StartChar: a
Encoding: 97 97 38
Width: 560
VWidth: 960
Flags: HMW
AnchorPoint: "ogonek" 333 0 basechar 0
AnchorPoint: "top" 427 1050 basechar 0
AnchorPoint: "bottom" 131 0 basechar 0
LayerCount: 2
Fore
SplineSet
267 238 m 257
 234 93 135 -18 37 -18 c 256
 -51 -18 -87 54 -48 224 c 258
 91 827 l 258
 128 987 214 1067 352 1067 c 256
 476 1067 535 986 502 841 c 257
 368 807 l 257
 384 877 382 897 367 897 c 256
 351 897 338 872 325 817 c 258
 190 234 l 258
 177 179 172 152 191 152 c 256
 208 152 225 189 238 244 c 257
 267 238 l 257
487 120 m 2
 487 117 l 2
 487 53 459.188383628 -4.54928245776 375 -14 c 0
 247.009560597 -28.3677956362 187 22 223 176 c 2
 387 887 l 2
 586 1043 l 2
 605.605252045 1058.3689413 616 1067 633 1067 c 2
 635 1067 l 2
 647 1067 665.683921709 1056.99763941 656 1015 c 2
 466 191 l 2
 458 157 462.613884055 150.247733626 468 147 c 0
 481.555664062 138.826171875 487 133 487 120 c 2
EndSplineSet
EndChar

StartChar: b
Encoding: 98 98 39
Width: 570
VWidth: 1920
Flags: HW
LayerCount: 2
Fore
SplineSet
372.298828125 1465 m 262
 377.298828125 1465 l 262
 451.298828125 1465 487.298828125 1424 468.298828125 1340 c 262
 197.271484375 165 l 261
 53.298828125 30 l 262
 24.298828125 3 -0.701171875 -15 -28.701171875 -15 c 262
 -34.701171875 -15 l 262
 -68.701171875 -15 -82.701171875 12 -64.701171875 90 c 262
 223.298828125 1340 l 262
 242.298828125 1424 298.298828125 1465 372.298828125 1465 c 262
314.298828125 801 m 261
 347.298828125 946 443.200195312 1067 539.90234375 1067 c 260
 647.90234375 1067 683.90234375 997 644.90234375 827 c 262
 505.90234375 224 l 262
 468.90234375 64 381.90234375 -18 233.90234375 -18 c 260
 115.298828125 -18 49.298828125 63 82.298828125 208 c 261
 215.294921875 244 l 261
 199.279296875 174 199.6875 152 218.638671875 152 c 260
 240.299804688 152 249.932617188 179 262.90234375 234 c 262
 397.90234375 817 l 262
 410.90234375 872 412.298828125 897 390.638671875 897 c 260
 371.685546875 897 358.263671875 862 345.29296875 807 c 261
 314.298828125 801 l 261
EndSplineSet
EndChar

StartChar: c
Encoding: 99 99 40
Width: 461
VWidth: 960
Flags: HW
AnchorPoint: "bottom" 132 0 basechar 0
AnchorPoint: "top" 371 1050 basechar 0
LayerCount: 2
Fore
SplineSet
433.520507812 364 m 0
 390.520507812 179 358.520507812 89 288.520507812 32 c 0
 243.520507812 -5 186.870117188 -18 122.743164062 -18 c 256
 -12.2568359375 -18 -72.2568359375 76 -38.2568359375 224 c 258
 100.743164062 827 l 258
 134.743164062 975 225.743164062 1067 375.743164062 1067 c 256
 446.520507812 1067 491.520507812 1047 511.520507812 1021 c 0
 533.520507812 992 565.520507812 951 506.520507812 697 c 0
 491.520507812 634 462.520507812 598 408.520507812 598 c 2
 403.520507812 598 l 2
 350.520507812 598 336.943359375 635 350.974609375 697 c 0
 372.922851562 790 388.893554688 858 381.041992188 870 c 0
 380.18359375 872 378.401367188 873 375.693359375 873 c 256
 358.545898438 873 348.743164062 842 331.743164062 767 c 258
 220.743164062 284 l 258
 203.743164062 212 195.743164062 178 213.84375 178 c 256
 217.455078125 178 221.086914062 179 223.861328125 182 c 0
 236.745117188 193 253.572265625 259 278.520507812 365 c 0
 292.551757812 427 322.520507812 453 375.520507812 453 c 2
 380.520507812 453 l 2
 434.520507812 453 448.520507812 427 433.520507812 364 c 0
EndSplineSet
EndChar

StartChar: d
Encoding: 100 100 41
Width: 570
VWidth: 960
Flags: HW
LayerCount: 2
Fore
SplineSet
289.510742188 238 m 257
 256.510742188 93 168.873046875 -18 66.7431640625 -18 c 256
 -41.2568359375 -18 -77.2568359375 54 -38.2568359375 224 c 258
 100.743164062 827 l 258
 139.743164062 997 208.743164062 1067 316.743164062 1067 c 256
 418.921875 1067 454.500976562 956 421.500976562 811 c 257
 390.505859375 807 l 257
 403.500976562 862 409.678710938 897 388.01953125 897 c 256
 366.359375 897 357.673828125 872 344.704101562 817 c 258
 209.743164062 234 l 258
 196.743164062 179 194.359375 152 216.01953125 152 c 256
 237.6796875 152 247.538085938 189 260.51171875 244 c 257
 289.510742188 238 l 257
758.500976562 1335 m 258
 477.510742188 115 l 258
 458.510742188 31 404.510742188 -15 330.510742188 -15 c 258
 327.510742188 -15 l 258
 253.510742188 -15 220.510742188 31 239.510742188 115 c 258
 242.510742188 130 l 257
 235.514648438 136 l 257
 512.500976562 1335 l 258
 531.534179688 1419 589.500976562 1465 663.500976562 1465 c 258
 668.500976562 1465 l 258
 742.500976562 1465 777.500976562 1419 758.500976562 1335 c 258
EndSplineSet
EndChar

StartChar: e
Encoding: 101 101 42
Width: 551
VWidth: 960
Flags: HW
AnchorPoint: "ogonek" 289 30 basechar 0
AnchorPoint: "bottom" 180 0 basechar 0
AnchorPoint: "top" 427 1050 basechar 0
LayerCount: 2
Fore
SplineSet
507.17578125 314 m 4
 475.17578125 177 444.17578125 105 374.17578125 48 c 4
 318.17578125 3 248.17578125 -18 171.603515625 -18 c 260
 -10.2119140625 -18 -74.2119140625 69 -27.2119140625 274 c 262
 88.7880859375 777 l 262
 134.788085938 977 235.788085938 1067 421.651367188 1067 c 260
 603.17578125 1067 657.17578125 979 612.17578125 767 c 260
 603.17578125 722 596.17578125 677 586.17578125 635 c 4
 553.17578125 493 540.17578125 481 396.17578125 481 c 6
 158.788085938 481 l 261
 177.788085938 565 l 261
 327.321289062 565 l 261
 404.489257812 906 411.279296875 927 389.619140625 927 c 260
 373.375 927 363.764648438 901 349.778320312 841 c 262
 203.788085938 209 l 262
 186.756835938 134 188.291015625 122 202.731445312 122 c 260
 223.489257812 122 243.498046875 209 265.17578125 290 c 4
 290.17578125 381 334.17578125 433 415.17578125 433 c 6
 421.17578125 433 l 6
 495.17578125 433 522.17578125 377 507.17578125 314 c 4
EndSplineSet
EndChar

StartChar: f
Encoding: 102 102 43
Width: 326
VWidth: 960
Flags: HW
LayerCount: 2
Fore
SplineSet
357.697265625 930 m 258
 194.697265625 930 l 258
 120.697265625 930 90.697265625 941 101.697265625 989 c 258
 102.697265625 994 l 258
 113.697265625 1042 147.697265625 1050 221.697265625 1050 c 258
 384.697265625 1050 l 258
 458.697265625 1050 488.697265625 1042 477.697265625 994 c 258
 476.697265625 989 l 258
 465.697265625 941 431.697265625 930 357.697265625 930 c 258
238.697265625 1319 m 262
 265.697265625 1438 386.697265625 1466 540.697265625 1443 c 260
 578.697265625 1437 592.697265625 1424 582.697265625 1380 c 262
 580.697265625 1375 l 262
 570.697265625 1332 548.697265625 1320 507.697265625 1308 c 260
 488.697265625 1302 474.697265625 1292 466.697265625 1259 c 262
 113.697265625 -270 l 262
 98.697265625 -334 42.697265625 -375 -21.302734375 -375 c 262
 -43.302734375 -375 l 262
 -107.302734375 -375 -143.302734375 -334 -128.302734375 -270 c 262
 238.697265625 1319 l 262
EndSplineSet
EndChar

StartChar: g
Encoding: 103 103 44
Width: 547
VWidth: 960
Flags: HW
AnchorPoint: "top" 426 1075 basechar 0
LayerCount: 2
Fore
SplineSet
723.625976562 1206 m 0
 706.625976562 1134 607.625976562 1030 429.551757812 1030 c 257
 419.9609375 1045 l 257
 447.036132812 1045 473.625976562 1074 512.625976562 1176 c 0
 540.625976562 1249 586.625976562 1274 650.625976562 1274 c 2
 652.625976562 1274 l 2
 706.625976562 1274 731.625976562 1240 723.625976562 1206 c 0
282.625976562 170 m 258
 422.625976562 170 478.625976562 100 435.625976562 -88 c 256
 389.625976562 -286 281.625976562 -360 97.515625 -360 c 258
 21.83984375 -360 l 258
 -121.499023438 -360 -184.499023438 -296 -154.499023438 -168 c 256
 -131.499023438 -70 -25.4990234375 15 117.55859375 15 c 257
 180.622070312 15 l 257
 139.8046875 5 102.599609375 -44 82.58984375 -132 c 256
 60.599609375 -226 69.0966796875 -260 107.905273438 -260 c 258
 114.696289062 -260 l 258
 143.802734375 -260 178.625976562 -206 198.625976562 -118 c 256
 217.625976562 -34 209.625976562 0 170.81640625 0 c 258
 61.18359375 0 l 258
 -38.4990234375 0 -89.4990234375 68 -67.4990234375 162 c 256
 -43.4990234375 266 69.5009765625 333 187.66015625 333 c 257
 165.97265625 283 l 257
 136.866210938 283 111.49609375 262 103.500976562 228 c 256
 92.5009765625 182 129.297851562 170 192.360351562 170 c 258
 282.625976562 170 l 258
323.625976562 494 m 258
 396.643554688 811 l 258
 419.674804688 912 424.885742188 943 405.932617188 943 c 256
 388.78515625 943 375.474609375 913 351.500976562 811 c 258
 278.500976562 494 l 258
 252.126953125 396 251.900390625 363 270.333984375 363 c 256
 290.708007812 363 299.639648438 392 323.625976562 494 c 258
562.625976562 574 m 258
 522.625976562 399 424.625976562 237 241.331054688 237 c 256
 61.5009765625 237 37.5009765625 399 77.5009765625 574 c 258
 124.500976562 781 l 258
 164.500976562 956 252.500976562 1067 433.994140625 1067 c 256
 615.625976562 1067 649.625976562 956 609.625976562 781 c 258
 562.625976562 574 l 258
EndSplineSet
EndChar

StartChar: h
Encoding: 104 104 45
Width: 561
VWidth: 960
Flags: HW
AnchorPoint: "bottom" 173 0 basechar 0
AnchorPoint: "top" 367 1450 basechar 0
LayerCount: 2
Fore
SplineSet
372.260742188 1465 m 2
 377.260742188 1465 l 2
 451.260742188 1465 491.260742188 1439 458.260742188 1295 c 2
 195.260742188 155 l 2
 162.236328125 11 109.260742188 -15 36.2607421875 -15 c 2
 31.2607421875 -15 l 2
 -42.7392578125 -15 -82.7392578125 11 -49.7392578125 155 c 2
 213.260742188 1295 l 2
 246.260742188 1439 298.260742188 1465 372.260742188 1465 c 2
336.260742188 877 m 257
 364.260742188 997 448.067382812 1067 542.067382812 1067 c 256
 646.067382812 1067 677.067382812 1012 641.067382812 857 c 258
 479.067382812 155 l 2
 446.067382812 11 394.067382812 -15 320.067382812 -15 c 2
 315.067382812 -15 l 2
 241.067382812 -15 201.067382812 11 234.067382812 155 c 2
 390.07421875 831 l 258
 402.067382812 881 402.524414062 903 389.889648438 903 c 256
 373.645507812 903 359.260742188 866 335.250976562 761 c 257
 336.260742188 877 l 257
EndSplineSet
EndChar

StartChar: i
Encoding: 105 105 46
Width: 280
VWidth: 960
Flags: HW
AnchorPoint: "bottom" 28 0 basechar 0
AnchorPoint: "ogonek" 28 0 basechar 0
LayerCount: 2
Fore
SplineSet
443.241210938 1360 m 2
 426.241210938 1285 l 2
 404.241210938 1191 367.241210938 1145 303.241210938 1145 c 2
 298.241210938 1145 l 2
 234.241210938 1145 219.241210938 1191 241.241210938 1285 c 2
 258.241210938 1360 l 2
 280.241210938 1454 316.241210938 1500 380.241210938 1500 c 2
 385.241210938 1500 l 2
 449.241210938 1500 465.241210938 1454 443.241210938 1360 c 2
366.241210938 895 m 6
 195.241210938 155 l 6
 162.241210938 11 110.241210938 -15 36.2412109375 -15 c 6
 31.2412109375 -15 l 6
 -42.7587890625 -15 -82.7587890625 11 -49.7587890625 155 c 6
 121.241210938 895 l 6
 154.241210938 1039 206.241210938 1065 280.241210938 1065 c 6
 285.241210938 1065 l 6
 359.241210938 1065 399.241210938 1039 366.241210938 895 c 6
EndSplineSet
EndChar

StartChar: j
Encoding: 106 106 47
Width: 301
VWidth: 960
Flags: HW
LayerCount: 2
Fore
SplineSet
165.676757812 -59 m 6
 116.571289062 -270.975585938 28.6767578125 -371 -130.323242188 -371 c 4
 -369.323242188 -371 -320.504882812 -199.083984375 -311.323242188 -157 c 4
 -299.323242188 -102 -257.323242188 -85 -220.323242188 -85 c 6
 -215.323242188 -85 l 6
 -168.323242188 -85 -140.795898438 -109.729492188 -152.323242188 -147 c 4
 -163.506835938 -183.158203125 -164.323242188 -204 -145.323242188 -204 c 4
 -117.323242188 -204 -99.009765625 -145.072265625 -79.3232421875 -60 c 6
 141.676757812 895 l 6
 174.676757812 1039 226.676757812 1065 300.676757812 1065 c 6
 305.676757812 1065 l 6
 379.676757812 1065 419.676757812 1039 386.676757812 895 c 6
 165.676757812 -59 l 6
463.676757812 1360 m 2
 446.676757812 1285 l 2
 424.676757812 1191 387.676757812 1145 323.676757812 1145 c 2
 318.676757812 1145 l 2
 254.676757812 1145 239.676757812 1191 261.676757812 1285 c 2
 278.676757812 1360 l 2
 300.676757812 1454 336.676757812 1500 400.676757812 1500 c 2
 405.676757812 1500 l 2
 469.676757812 1500 485.676757812 1454 463.676757812 1360 c 2
EndSplineSet
EndChar

StartChar: k
Encoding: 107 107 48
Width: 577
VWidth: 960
Flags: HW
LayerCount: 2
Fore
SplineSet
372.260742188 1465 m 6
 377.260742188 1465 l 6
 451.260742188 1465 491.260742188 1439 458.260742188 1295 c 6
 195.260742188 155 l 6
 162.236328125 11 110.260742188 -15 36.2607421875 -15 c 6
 31.2607421875 -15 l 6
 -42.7392578125 -15 -82.7392578125 11 -49.7392578125 155 c 6
 213.260742188 1295 l 6
 246.260742188 1439 298.260742188 1465 372.260742188 1465 c 6
171.260742188 422 m 5
 446.5078125 895 l 6
 527.5078125 1031 553.5078125 1065 619.5078125 1065 c 6
 626.5078125 1065 l 6
 690.5078125 1065 748.5078125 1030 652.5078125 895 c 6
 203.260742188 256 l 5
 171.260742188 422 l 5
274.260742188 586 m 261
 415.5078125 616 l 261
 499.5078125 155 l 6
 515.5078125 65 474.5078125 -15 370.5078125 -15 c 6
 365.5078125 -15 l 6
 281.5078125 -15 241.5078125 15 248.5078125 155 c 6
 274.260742188 586 l 261
EndSplineSet
EndChar

StartChar: l
Encoding: 108 108 49
Width: 280
VWidth: 960
Flags: HW
LayerCount: 2
Fore
SplineSet
372.260742188 1465 m 6
 377.260742188 1465 l 6
 451.260742188 1465 491.260742188 1439 458.260742188 1295 c 6
 195.260742188 155 l 6
 162.260742188 11 109.260742188 -15 36.2607421875 -15 c 6
 31.2607421875 -15 l 6
 -42.7392578125 -15 -82.7392578125 11 -49.7392578125 155 c 6
 213.260742188 1295 l 6
 246.260742188 1439 298.260742188 1465 372.260742188 1465 c 6
EndSplineSet
EndChar

StartChar: m
Encoding: 109 109 50
Width: 779
VWidth: 960
Flags: HW
LayerCount: 2
Fore
SplineSet
551.854492188 877 m 257
 579.853515625 997 661.592773438 1067 758.466796875 1067 c 256
 862.466796875 1067 894.466796875 1012 858.466796875 857 c 258
 696.466796875 155 l 2
 663.466796875 11 616.466796875 -15 542.466796875 -15 c 2
 537.466796875 -15 l 2
 463.466796875 -15 428.466796875 11 461.466796875 155 c 2
 623.473632812 857 l 258
 630.466796875 887 627.216796875 903 615.483398438 903 c 256
 603.750976562 903 590.854492188 892 566.844726562 787 c 257
 551.854492188 877 l 257
274.241210938 1065 m 2
 276.241210938 1065 l 2
 350.241210938 1065 382.241210938 1029 351.241210938 895 c 2
 345.241210938 869 l 257
 346.241210938 855 l 257
 185.241210938 155 l 2
 152.216796875 11 105.241210938 -15 31.2412109375 -15 c 2
 26.2412109375 -15 l 2
 -47.7587890625 -15 -82.7587890625 11 -49.7587890625 155 c 2
 121.241210938 895 l 2
 152.241210938 1029 200.241210938 1065 274.241210938 1065 c 2
326.241210938 877 m 257
 354.241210938 997 411.541015625 1067 502.853515625 1067 c 256
 596.853515625 1067 618.83984375 1012 582.854492188 857 c 258
 420.854492188 155 l 2
 387.830078125 11 340.853515625 -15 286.853515625 -15 c 2
 281.853515625 -15 l 2
 227.853515625 -15 192.853515625 11 225.854492188 155 c 2
 387.861328125 857 l 258
 394.854492188 887 390.701171875 903 379.87109375 903 c 256
 368.138671875 903 355.241210938 892 331.232421875 787 c 257
 326.241210938 877 l 257
EndSplineSet
EndChar

StartChar: n
Encoding: 110 110 51
Width: 561
VWidth: 960
Flags: HW
AnchorPoint: "bottom" 197 0 basechar 0
AnchorPoint: "top" 440 1050 basechar 0
LayerCount: 2
Fore
SplineSet
275.241210938 1065 m 6
 285.241210938 1065 l 6
 359.241210938 1065 394.241210938 1039 361.241210938 895 c 6
 355.241210938 869 l 261
 356.241210938 855 l 261
 195.241210938 155 l 6
 162.216796875 11 110.241210938 -15 36.2412109375 -15 c 6
 31.2412109375 -15 l 6
 -42.7587890625 -15 -82.7587890625 11 -49.7587890625 155 c 6
 121.241210938 895 l 6
 154.241210938 1039 201.241210938 1065 275.241210938 1065 c 6
336.241210938 877 m 261
 364.241210938 997 448.048828125 1067 542.048828125 1067 c 260
 646.048828125 1067 677.048828125 1012 641.048828125 857 c 262
 479.048828125 155 l 6
 446.048828125 11 394.048828125 -15 320.048828125 -15 c 6
 315.048828125 -15 l 6
 241.048828125 -15 201.048828125 11 234.048828125 155 c 6
 390.055664062 831 l 262
 402.048828125 881 402.505859375 903 389.87109375 903 c 260
 373.625976562 903 359.241210938 866 335.232421875 761 c 261
 336.241210938 877 l 261
EndSplineSet
EndChar

StartChar: o
Encoding: 111 111 52
Width: 561
VWidth: 960
Flags: HW
AnchorPoint: "top" 412 1050 basechar 0
AnchorPoint: "bottom" 170 0 basechar 0
LayerCount: 2
Fore
SplineSet
-27.2119140625 274 m 262
 88.7880859375 777 l 262
 133.788085938 972 237.788085938 1067 423.651367188 1067 c 260
 609.400390625 1067 669.400390625 972 624.400390625 777 c 262
 508.400390625 274 l 262
 463.400390625 79 359.400390625 -18 173.603515625 -18 c 260
 -12.2119140625 -18 -72.2119140625 79 -27.2119140625 274 c 262
205.788085938 209 m 262
 191.788085938 149 189.389648438 122 205.634765625 122 c 260
 221.87890625 122 232.4140625 149 246.400390625 209 c 262
 392.400390625 841 l 262
 406.400390625 901 407.865234375 927 391.619140625 927 c 260
 375.375 927 365.764648438 901 351.778320312 841 c 262
 205.788085938 209 l 262
EndSplineSet
EndChar

StartChar: p
Encoding: 112 112 53
Width: 571
VWidth: 960
Flags: HW
LayerCount: 2
Fore
SplineSet
316.403320312 812 m 257
 349.403320312 957 437.905273438 1068 540.075195312 1068 c 256
 648.075195312 1068 684.075195312 996 645.075195312 826 c 258
 505.075195312 223 l 258
 466.075195312 53 397.075195312 -17 289.075195312 -17 c 256
 186.955078125 -17 151.403320312 94 184.403320312 239 c 257
 215.369140625 243 l 257
 202.399414062 188 196.196289062 153 217.856445312 153 c 256
 239.516601562 153 249.104492188 178 262.075195312 233 c 258
 396.1328125 816 l 258
 409.103515625 871 411.516601562 898 389.85546875 898 c 256
 368.196289062 898 358.338867188 861 345.3671875 806 c 257
 316.403320312 812 l 257
-143.596679688 -245 m 262
 129.403320312 935 l 258
 148.403320312 1019 202.403320312 1065 276.403320312 1065 c 258
 279.403320312 1065 l 258
 353.403320312 1065 386.403320312 1019 367.403320312 935 c 258
 363.403320312 920 l 257
 370.361328125 914 l 257
 102.403320312 -245 l 262
 83.3642578125 -329 25.4033203125 -375 -48.5966796875 -375 c 262
 -53.5966796875 -375 l 262
 -127.596679688 -375 -162.596679688 -329 -143.596679688 -245 c 262
EndSplineSet
EndChar

StartChar: q
Encoding: 113 113 54
Width: 570
VWidth: 960
Flags: HW
LayerCount: 2
Fore
SplineSet
242.482421875 -375 m 262
 237.482421875 -375 l 262
 163.482421875 -375 127.482421875 -334 146.482421875 -250 c 262
 408.486328125 885 l 261
 552.482421875 1020 l 262
 581.482421875 1047 607.482421875 1065 635.482421875 1065 c 262
 641.482421875 1065 l 262
 675.482421875 1065 689.482421875 1038 671.482421875 960 c 262
 391.482421875 -250 l 262
 372.482421875 -334 316.482421875 -375 242.482421875 -375 c 262
291.482421875 249 m 261
 258.482421875 104 162.557617188 -17 65.7978515625 -17 c 260
 -42.2021484375 -17 -78.203125 53 -39.2021484375 223 c 262
 100.796875 826 l 262
 137.797851562 986 224.797851562 1068 372.797851562 1068 c 260
 491.482421875 1068 556.482421875 987 523.482421875 842 c 261
 390.482421875 806 l 261
 406.482421875 876 406.071289062 898 387.118164062 898 c 260
 365.458984375 898 355.796875 871 342.796875 816 c 262
 208.797851562 233 l 262
 195.797851562 178 193.458984375 153 215.118164062 153 c 260
 234.071289062 153 247.494140625 188 260.482421875 243 c 261
 291.482421875 249 l 261
EndSplineSet
EndChar

StartChar: r
Encoding: 114 114 55
Width: 496
VWidth: 960
Flags: HW
AnchorPoint: "top" 350 1050 basechar 0
AnchorPoint: "bottom" 32 0 basechar 0
LayerCount: 2
Fore
SplineSet
277.241210938 513 m 1
 290.241210938 770 l 1
 364.241210938 930 414.076171875 1059 543.560546875 1059 c 0
 692.560546875 1059 589.055664062 807.779296875 518.560546875 670 c 0
 490.850585938 615.841796875 459.560546875 583 402.560546875 583 c 2
 398.560546875 583 l 2
 351.560546875 583 326.264648438 606 347.560546875 670 c 0
 381.232421875 767.955078125 413.560546875 840 391.560546875 840 c 0
 364.923828125 840 326.98046875 718 277.241210938 513 c 1
270.241210938 1065 m 2
 278.241210938 1065 l 2
 352.241210938 1065 381.241210938 1038 348.241210938 895 c 2
 346.241210938 887 l 25
 363.184570312 883 l 25
 195.178710938 155 l 18
 162.154296875 11 109.241210938 -15 36.2412109375 -15 c 10
 31.2412109375 -15 l 18
 -41.7587890625 -15 -82.7587890625 12 -49.7587890625 155 c 10
 121.241210938 895 l 2
 154.241210938 1038 197.241210938 1065 270.241210938 1065 c 2
EndSplineSet
EndChar

StartChar: s
Encoding: 115 115 56
Width: 485
VWidth: 960
Flags: HW
AnchorPoint: "top" 363 1050 basechar 0
AnchorPoint: "bottom" 123 0 basechar 0
LayerCount: 2
Fore
SplineSet
80.7060546875 414 m 2
 86.7060546875 414 l 2
 140.706054688 414 167.706054688 387 143.706054688 284 c 0
 141.698242188 274 138.706054688 262 137.706054688 257 c 0
 122.682617188 191 120.224609375 162 138.274414062 162 c 256
 153.6171875 162 167.61328125 181 184.61328125 256 c 256
 248.61328125 531 24.7060546875 467 102.706054688 804 c 256
 145.706054688 992 251.706054688 1067 391.61328125 1067 c 256
 528.61328125 1067 580.61328125 981 551.61328125 842 c 0
 548.61328125 826 545.61328125 807 540.61328125 786 c 0
 514.61328125 673 482.61328125 646 428.61328125 646 c 2
 421.61328125 646 l 2
 367.61328125 646 349.61328125 674 375.61328125 787 c 0
 377.61328125 795 378.61328125 806 382.61328125 824 c 0
 393.61328125 877 388.61328125 895 374.61328125 895 c 256
 361.61328125 895 342.61328125 875 330.61328125 823 c 256
 261.61328125 525 513.61328125 601 428.61328125 231 c 256
 393.61328125 79 309.61328125 -18 139.61328125 -18 c 256
 -40.2939453125 -18 -76.2939453125 65 -48.2939453125 211 c 0
 -43.2939453125 238 -37.2939453125 268 -33.2939453125 285 c 0
 -9.2939453125 388 26.7060546875 414 80.7060546875 414 c 2
EndSplineSet
EndChar

StartChar: t
Encoding: 116 116 57
Width: 346
VWidth: 960
Flags: HW
AnchorPoint: "bottom" 134 0 basechar 0
LayerCount: 2
Fore
SplineSet
377.95703125 930 m 2
 177.95703125 930 l 2
 103.95703125 930 78.95703125 941 88.95703125 985 c 2
 91.95703125 995 l 2
 101.95703125 1039 130.95703125 1050 204.95703125 1050 c 2
 404.95703125 1050 l 2
 478.95703125 1050 501.95703125 1039 491.95703125 995 c 2
 488.95703125 985 l 2
 478.95703125 941 451.95703125 930 377.95703125 930 c 2
284.95703125 85 m 2
 282.95703125 80 l 2
 265.95703125 6 236.95703125 -8 142.95703125 -8 c 0
 -1.04296875 -8 -68.04296875 22 -32.04296875 176 c 258
 216.95703125 1255 l 6
 249.95703125 1399 307.95703125 1425 381.95703125 1425 c 6
 383.95703125 1425 l 6
 457.95703125 1425 492.95703125 1399 459.95703125 1255 c 6
 218.95703125 211 l 258
 208.95703125 167 231.95703125 161 241.95703125 161 c 0
 274.95703125 161 301.95703125 158 284.95703125 85 c 2
EndSplineSet
EndChar

StartChar: u
Encoding: 117 117 58
Width: 563
VWidth: 960
Flags: HW
AnchorPoint: "ogonek" 319 0 basechar 0
AnchorPoint: "bottom" 142 0 basechar 0
AnchorPoint: "top" 406 1050 basechar 0
LayerCount: 2
Fore
SplineSet
322.315429688 -16 m 6
 312.315429688 -16 l 6
 238.315429688 -16 204.315429688 10 237.315429688 154 c 6
 243.315429688 180 l 261
 241.315429688 194 l 261
 402.310546875 894 l 6
 435.333984375 1038 488.310546875 1064 562.310546875 1064 c 6
 567.310546875 1064 l 6
 641.310546875 1064 680.310546875 1038 647.310546875 894 c 6
 477.315429688 154 l 6
 444.315429688 10 396.315429688 -16 322.315429688 -16 c 6
261.315429688 172 m 261
 233.315429688 52 149.49609375 -18 55.49609375 -18 c 260
 -48.50390625 -18 -79.50390625 37 -43.50390625 192 c 262
 118.49609375 894 l 6
 151.49609375 1038 204.49609375 1064 278.49609375 1064 c 6
 283.49609375 1064 l 6
 357.49609375 1064 396.49609375 1038 363.49609375 894 c 6
 207.49609375 218 l 262
 195.49609375 168 195.045898438 146 207.680664062 146 c 260
 223.92578125 146 238.315429688 183 262.319335938 288 c 261
 261.315429688 172 l 261
EndSplineSet
EndChar

StartChar: v
Encoding: 118 118 59
Width: 522
VWidth: 960
Flags: HW
LayerCount: 2
Fore
SplineSet
253.427734375 319 m 257
 430.427734375 895 l 2
 471.427734375 1028 519.427734375 1065 573.427734375 1065 c 2
 576.427734375 1065 l 2
 640.427734375 1065 671.427734375 1028 626.427734375 895 c 2
 374.427734375 155 l 2
 329.427734375 22 251.427734375 -15 167.427734375 -15 c 2
 165.427734375 -15 l 2
 81.427734375 -15 19.427734375 23 32.427734375 155 c 2
 104.427734375 895 l 2
 118.427734375 1037 182.427734375 1064 256.427734375 1064 c 2
 261.427734375 1064 l 2
 335.427734375 1064 383.427734375 1039 357.427734375 895 c 2
 253.427734375 319 l 257
EndSplineSet
EndChar

StartChar: w
Encoding: 119 119 60
Width: 642
VWidth: 960
Flags: HW
LayerCount: 2
Fore
SplineSet
473.459960938 454 m 257
 591.6875 895 l 2
 630.6875 1039 653.6875 1065 707.6875 1065 c 2
 712.6875 1065 l 2
 766.6875 1065 784.6875 1038 742.6875 895 c 2
 531.024414062 155 l 2
 489.024414062 12 444.024414062 -15 370.024414062 -15 c 2
 363.024414062 -15 l 2
 289.024414062 -15 256.024414062 11 282.024414062 155 c 2
 335.756835938 459 l 257
 246.827148438 155 l 2
 202.827148438 12 152.827148438 -15 78.8271484375 -15 c 2
 76.8271484375 -15 l 2
 2.8271484375 -15 -34.1728515625 12 -11.1728515625 155 c 2
 107.827148438 895 l 2
 130.827148438 1038 180.827148438 1065 254.827148438 1065 c 6
 255.827148438 1065 l 6
 329.827148438 1065 360.827148438 1039 331.827148438 895 c 2
 243.719726562 469 l 257
 378.756835938 895 l 2
 424.756835938 1038 453.756835938 1065 497.756835938 1065 c 2
 505.756835938 1065 l 2
 549.756835938 1065 566.756835938 1038 544.756835938 895 c 2
 473.459960938 454 l 257
EndSplineSet
EndChar

StartChar: x
Encoding: 120 120 61
Width: 544
VWidth: 960
Flags: HW
LayerCount: 2
Fore
SplineSet
5.4912109375 -15 m 2
 0.4912109375 -15 l 2
 -73.5087890625 -15 -118.508789062 22 -47.5087890625 155 c 2
 140.491210938 508 l 257
 137.491210938 895 l 2
 136.491210938 1032 207.491210938 1065 281.491210938 1065 c 6
 286.491210938 1065 l 6
 350.491210938 1065 400.078125 1039 373.078125 895 c 2
 340.078125 718 l 257
 404.078125 895 l 2
 455.078125 1037 497.078125 1065 561.078125 1065 c 6
 566.078125 1065 l 6
 640.078125 1065 675.078125 1030 607.078125 895 c 2
 412.078125 507 l 257
 446.078125 155 l 2
 459.078125 24 383.078125 -15 309.078125 -15 c 6
 304.078125 -15 l 6
 230.078125 -15 171.078125 12 194.078125 155 c 2
 222.294921875 326 l 257
 162.491210938 155 l 2
 110.491210938 13 69.4912109375 -15 5.4912109375 -15 c 2
EndSplineSet
EndChar

StartChar: y
Encoding: 121 121 62
Width: 532
VWidth: 960
Flags: HW
AnchorPoint: "top" 404 1050 basechar 0
LayerCount: 2
Fore
SplineSet
252.020507812 281 m 5
 445.020507812 895 l 6
 490.020507812 1037 526.020507812 1065 590.020507812 1065 c 6
 594.020507812 1065 l 6
 658.020507812 1065 690.020507812 1036 641.020507812 895 c 6
 312.020507812 -59 l 6
 239.952148438 -267.9765625 146.020507812 -371 -12.9794921875 -371 c 4
 -241.979492188 -371 -205.241210938 -222.004882812 -196.979492188 -172 c 4
 -189.676757812 -127.801757812 -159.979492188 -85 -102.979492188 -85 c 6
 -96.9794921875 -85 l 6
 -59.9794921875 -85 -27.40234375 -107.572265625 -38.9794921875 -162 c 4
 -43.4619140625 -183.073242188 -47.9794921875 -204 -27.9794921875 -204 c 4
 -4.9794921875 -204 7.0205078125 -163 30.0205078125 -104 c 5
 111.020507812 895 l 6
 122.020507812 1035 183.020507812 1065 257.020507812 1065 c 6
 267.020507812 1065 l 6
 341.020507812 1065 383.020507812 1038 358.020507812 895 c 6
 252.020507812 281 l 5
EndSplineSet
EndChar

StartChar: z
Encoding: 122 122 63
Width: 477
VWidth: 960
Flags: HW
AnchorPoint: "top" 362 1050 basechar 0
LayerCount: 2
Fore
SplineSet
-50.9052734375 145 m 2
 305.094726562 875 l 1
 269.094726562 875 l 2
 125.094726562 875 104.094726562 896 119.094726562 960 c 2
 120.094726562 965 l 2
 135.094726562 1029 165.094726562 1050 309.094726562 1050 c 2
 479.094726562 1050 l 2
 613.094726562 1050 620.094726562 1023 561.094726562 895 c 2
 227.094726562 175 l 1
 247.094726562 175 l 2
 391.094726562 175 410.094726562 144 398.094726562 90 c 2
 397.094726562 85 l 2
 385.094726562 32 351.094726562 0 207.094726562 0 c 2
 32.0947265625 0 l 2
 -101.905273438 0 -112.905273438 19 -50.9052734375 145 c 2
EndSplineSet
EndChar

StartChar: comma
Encoding: 44 44 65
Width: 400
VWidth: 1920
Flags: HMW
LayerCount: 2
Fore
SplineSet
-120 -326 m 10
 -122 -326 l 18
 -140 -326 -144 -307 -120 -270 c 10
 58 0 l 257
 52 0 l 2
 -22 0 -59 40 -37 134 c 2
 -17 221 l 2
 9 335 51 377 139 377 c 6
 155 377 l 6
 243 377 305 335 279 221 c 2
 270 180 l 2
 250 92 216 22 142 -60 c 2
 -61 -286 l 18
 -87 -315 -107 -326 -120 -326 c 10
EndSplineSet
EndChar

StartChar: exclam
Encoding: 33 33 67
Width: 400
VWidth: 1920
Flags: HMW
LayerCount: 2
Fore
SplineSet
103 -17 m 6
 87 -17 l 6
 3 -17 -63 24 -37 138 c 2
 -18 222 l 2
 8 336 54 377 138 377 c 2
 154 377 l 2
 238 377 304 336 278 222 c 2
 259 138 l 2
 233 24 187 -17 103 -17 c 6
175 1150 m 2
 206 1280 l 2
 231 1387 306 1465 413 1465 c 2
 423 1465 l 2
 530 1465 571 1387 546 1280 c 2
 515 1150 l 2
 490 1043 470 976 379 780 c 2
 323 660 l 2
 271 549 234 485 197 485 c 2
 187 485 l 2
 150 485 141 549 141 660 c 2
 141 780 l 2
 141 976 150 1043 175 1150 c 2
EndSplineSet
EndChar

StartChar: quotesingle
Encoding: 39 39 70
Width: 360
VWidth: 1920
Flags: HMW
LayerCount: 2
Fore
SplineSet
245 800 m 2
 235 800 l 2
 201 800 192 842 196 910 c 2
 205 1080 l 2
 209 1157 216 1213 231 1280 c 2
 237 1310 l 2
 255 1387 306 1450 390 1450 c 2
 395 1450 l 2
 483 1450 505 1387 487 1310 c 2
 481 1280 l 2
 466 1213 440 1155 408 1080 c 2
 334 910 l 2
 305 844 279 800 245 800 c 2
EndSplineSet
EndChar

StartChar: question
Encoding: 63 63 71
Width: 600
VWidth: 1920
Flags: HMW
LayerCount: 2
Fore
SplineSet
199 -17 m 6
 183 -17 l 6
 99 -17 33 24 59 138 c 2
 78 222 l 2
 104 336 150 377 234 377 c 2
 250 377 l 2
 334 377 400 336 374 222 c 2
 355 138 l 2
 329 24 283 -17 199 -17 c 6
254 415 m 2
 249 415 l 2
 195 415 180 442 201 535 c 0
 226 642 353 730 387 877 c 258
 457 1178 l 258
 479 1273 476 1291 458 1291 c 256
 438 1291 427 1266 405 1170 c 258
 391 1107 l 2
 365 993 311 937 237 937 c 2
 227 937 l 2
 153 937 125 993 151 1107 c 2
 173 1205 l 258
 206 1347 314 1467 512 1467 c 256
 710 1467 779 1361 747 1221 c 258
 681 934 l 258
 625 692 435 614 384 524 c 0
 332 434 307 415 254 415 c 2
EndSplineSet
EndChar

StartChar: parenleft
Encoding: 40 40 72
Width: 332
VWidth: 2048
Flags: HMW
LayerCount: 2
Fore
SplineSet
179 1252 m 258
 226 1454 321 1574 500 1626 c 0
 556 1642 593 1617 584 1578 c 2
 582 1568 l 2
 573 1530 542 1505 513 1486 c 0
 467 1456 448 1386 413 1236 c 258
 131 14 l 258
 96 -136 91 -216 123 -246 c 0
 144 -265 156 -280 147 -318 c 2
 144 -328 l 2
 135 -367 86 -392 38 -376 c 0
 -117 -324 -157 -204 -110 -2 c 258
 179 1252 l 258
EndSplineSet
EndChar

StartChar: parenright
Encoding: 41 41 73
Width: 332
VWidth: 2048
Flags: HMW
LayerCount: 2
Fore
SplineSet
202 -2 m 258
 155 -204 59 -324 -120 -376 c 0
 -176 -392 -213 -367 -204 -328 c 2
 -201 -318 l 2
 -192 -280 -161 -255 -132 -236 c 0
 -86 -206 -68 -136 -33 14 c 258
 249 1236 l 258
 284 1386 289 1466 257 1496 c 0
 236 1515 225 1530 234 1568 c 2
 236 1578 l 2
 245 1617 294 1642 342 1626 c 0
 497 1574 538 1454 491 1252 c 258
 202 -2 l 258
EndSplineSet
EndChar

StartChar: asterisk
Encoding: 42 42 74
Width: 644
VWidth: 2048
Flags: HMW
LayerCount: 2
Fore
SplineSet
485 1202 m 257
 481 1236 l 257
 614 1341 l 2
 664 1381 676 1390 710 1400 c 2
 713 1402 l 2
 773 1420 810 1377 814 1326 c 2
 816 1312 l 2
 820 1261 794 1200 734 1182 c 2
 731 1181 l 2
 697 1171 682 1172 628 1180 c 2
 485 1202 l 257
466 1210 m 257
 499 1230 l 257
 617 1160 l 2
 661 1134 671 1127 685 1100 c 2
 686 1098 l 2
 709 1050 671 993 620 961 c 2
 606 952 l 2
 555 920 491 914 468 962 c 2
 467 964 l 2
 453 991 454 1005 457 1061 c 2
 466 1210 l 257
472 1230 m 257
 495 1209 l 257
 436 1060 l 2
 413 1004 407 990 381 963 c 2
 379 961 l 2
 334 913 274 920 237 952 c 2
 227 960 l 2
 190 992 178 1049 223 1097 c 2
 226 1099 l 2
 252 1126 266 1134 322 1160 c 2
 472 1230 l 257
492 1236 m 257
 474 1202 l 257
 319 1180 l 2
 261 1172 248 1171 218 1181 c 2
 215 1182 l 2
 163 1200 165 1261 193 1312 c 2
 201 1326 l 2
 229 1377 286 1420 338 1402 c 2
 339 1400 l 2
 369 1390 377 1381 409 1341 c 2
 492 1236 l 257
500 1219 m 257
 465 1219 l 257
 430 1354 l 2
 416 1405 413 1418 421 1452 c 2
 422 1454 l 2
 435 1512 496 1544 550 1544 c 2
 565 1544 l 2
 619 1544 666 1512 653 1454 c 2
 652 1452 l 2
 644 1418 637 1405 599 1354 c 2
 500 1219 l 257
EndSplineSet
EndChar

StartChar: at
Encoding: 64 64 75
Width: 935
VWidth: 1920
Flags: HMW
LayerCount: 2
Fore
SplineSet
448 199 m 257
 415 54 410 -17 276 -17 c 256
 168 -17 98 41 137 211 c 258
 281 838 l 258
 318 998 424 1067 542 1067 c 256
 670 1067 661 996 628 851 c 257
 552 841 l 257
 564 891 569 921 546 921 c 256
 522 921 516 901 504 851 c 258
 354 199 l 258
 342 149 339 128 363 128 c 256
 386 128 394 159 406 209 c 257
 448 199 l 257
387 -344 m 0
 343 -367 285 -377 235 -377 c 256
 -83 -377 -114 -191 -59 49 c 258
 159 990 l 258
 218 1245 421 1417 689 1417 c 256
 993 1417 1045 1212 1000 1016 c 258
 819 235 l 258
 777 55 675 -17 561 -17 c 256
 457 -17 371 55 396 165 c 258
 580 961 l 257
 678 1021 l 2
 743 1061 753 1067 777 1067 c 2
 778 1067 l 2
 812 1067 817 1035 800 961 c 2
 631 231 l 258
 609 134 615 103 649 103 c 256
 677 103 706 135 729 235 c 258
 910 1016 l 258
 949 1186 897 1347 673 1347 c 256
 469 1347 303 1206 255 996 c 258
 35 45 l 258
 -9 -145 -7 -307 251 -307 c 256
 287 -307 345 -293 376 -277 c 0
 408 -260 426 -264 430 -285 c 2
 431 -290 l 2
 433 -302 415 -329 387 -344 c 0
EndSplineSet
EndChar

StartChar: dollar
Encoding: 36 36 76
Width: 564
VWidth: 1920
Flags: HMW
LayerCount: 2
Fore
SplineSet
100 503 m 2
 106 503 l 2
 167 503 194 477 160 330 c 2
 158 320 l 2
 132 206 120 155 190 155 c 256
 244 155 274 217 302 338 c 256
 331 462 323 561 263 644 c 256
 160 787 94 875 151 1123 c 256
 193 1303 294 1435 475 1435 c 256
 657 1435 709 1336 659 1121 c 2
 652 1091 l 2
 630 994 593 948 540 948 c 2
 536 948 l 2
 473 948 454 994 476 1091 c 2
 485 1131 l 2
 502 1206 499 1265 441 1265 c 256
 405 1265 368 1203 347 1113 c 256
 335 1062 305 912 395 812 c 256
 503 692 571 597 514 348 c 256
 450 71 336 -35 136 -35 c 256
 -48 -35 -95 63 -36 319 c 2
 -34 329 l 2
 0 476 39 503 100 503 c 2
515 1590 m 6
 519 1590 l 6
 527 1590 535 1583 531 1565 c 6
 132 -165 l 6
 128 -183 116 -190 108 -190 c 6
 104 -190 l 6
 96 -190 88 -183 92 -165 c 6
 491 1565 l 6
 495 1583 507 1590 515 1590 c 6
EndSplineSet
EndChar

StartChar: numbersign
Encoding: 35 35 77
Width: 805
VWidth: 1920
Flags: HMW
LayerCount: 2
Fore
SplineSet
95 545 m 2
 650 545 l 2
 714 545 770 524 770 470 c 2
 770 465 l 2
 770 411 714 390 650 390 c 2
 95 390 l 2
 1 390 -25 411 -25 465 c 2
 -25 470 l 2
 -25 524 1 545 95 545 c 2
254 1050 m 6
 809 1050 l 6
 903 1050 929 1029 929 975 c 6
 929 970 l 6
 929 916 903 895 809 895 c 6
 254 895 l 6
 160 895 134 916 134 970 c 6
 134 975 l 6
 134 1029 160 1050 254 1050 c 6
827 1415 m 2
 832 1415 l 2
 917 1415 930 1377 884 1245 c 2
 505 155 l 2
 459 23 412 -15 337 -15 c 2
 332 -15 l 2
 257 -15 234 23 280 155 c 2
 659 1245 l 2
 705 1377 742 1415 827 1415 c 2
542 1415 m 2
 547 1415 l 2
 631 1415 645 1377 599 1245 c 2
 220 155 l 2
 174 23 126 -15 52 -15 c 2
 47 -15 l 2
 -27 -15 -51 23 -5 155 c 2
 374 1245 l 2
 420 1377 458 1415 542 1415 c 2
EndSplineSet
EndChar

StartChar: slash
Encoding: 47 47 78
Width: 520
VWidth: 2048
Flags: HMW
LayerCount: 2
Fore
SplineSet
656 1295 m 6
 92 5 l 2
 56 -76 9 -115 -44 -115 c 2
 -46 -115 l 2
 -100 -115 -124 -76 -88 5 c 2
 476 1295 l 2
 511 1376 559 1415 612 1415 c 2
 614 1415 l 2
 668 1415 691 1376 656 1295 c 6
EndSplineSet
EndChar

StartChar: percent
Encoding: 37 37 79
Width: 927
VWidth: 2048
Flags: HMW
LayerCount: 2
Fore
SplineSet
146 1042 m 258
 184 1209 l 258
 215 1344 311 1418 449 1418 c 256
 587 1418 655 1344 624 1209 c 258
 586 1042 l 258
 555 907 452 832 314 832 c 256
 176 832 115 907 146 1042 c 258
329 1026 m 258
 315 966 311 942 339 942 c 256
 367 942 381 966 395 1026 c 258
 441 1224 l 258
 455 1284 452 1308 424 1308 c 256
 396 1308 389 1284 375 1224 c 258
 329 1026 l 258
387 192 m 258
 426 359 l 258
 457 494 553 568 691 568 c 256
 829 568 897 494 866 359 c 258
 827 192 l 258
 796 57 694 -18 556 -18 c 256
 418 -18 356 57 387 192 c 258
571 176 m 258
 557 116 553 92 581 92 c 256
 609 92 623 116 637 176 c 258
 682 374 l 258
 696 434 694 458 666 458 c 256
 638 458 630 434 616 374 c 258
 571 176 l 258
984 1245 m 6
 207 155 l 6
 117 29 84 -14 30 -14 c 6
 27 -14 l 6
 -37 -14 -63 29 27 155 c 6
 804 1245 l 6
 905 1387 928 1415 982 1415 c 6
 985 1415 l 6
 1049 1415 1085 1387 984 1245 c 6
EndSplineSet
EndChar

StartChar: hyphen
Encoding: 45 45 80
Width: 285
VWidth: 1920
Flags: HMW
LayerCount: 2
Fore
SplineSet
26 604 m 14
 26 621 l 22
 26 675 66 701 120 701 c 14
 206 701 l 22
 260 701 300 675 300 621 c 14
 300 604 l 22
 300 550 260 524 206 524 c 14
 120 524 l 22
 66 524 26 550 26 604 c 14
EndSplineSet
EndChar

StartChar: underscore
Encoding: 95 95 81
Width: 450
VWidth: 1920
Flags: HMW
LayerCount: 2
Fore
SplineSet
-154 -97 m 14
 -154 -80 l 22
 -154 -26 -113 0 -59 0 c 14
 231 0 l 22
 285 0 326 -26 326 -80 c 14
 326 -97 l 22
 326 -151 285 -177 231 -177 c 14
 -59 -177 l 22
 -113 -177 -154 -151 -154 -97 c 14
EndSplineSet
EndChar

StartChar: plus
Encoding: 43 43 82
Width: 520
VWidth: 1920
Flags: HMW
LayerCount: 2
Fore
SplineSet
47 678 m 14
 47 695 l 22
 47 749 87 775 141 775 c 14
 457 775 l 22
 511 775 551 749 551 695 c 14
 551 678 l 22
 551 624 511 598 457 598 c 14
 141 598 l 22
 87 598 47 624 47 678 c 14
351 950 m 10
 367 950 l 18
 421 950 437 909 425 855 c 10
 345 505 l 18
 333 451 297 410 243 410 c 10
 227 410 l 18
 173 410 157 451 169 505 c 10
 249 855 l 18
 261 909 297 950 351 950 c 10
EndSplineSet
EndChar

StartChar: equal
Encoding: 61 61 83
Width: 590
VWidth: 1920
Flags: HMW
LayerCount: 2
Fore
SplineSet
30 371 m 10
 30 389 l 18
 30 443 71 469 125 469 c 10
 405 469 l 18
 459 469 500 443 500 389 c 10
 500 371 l 18
 500 317 459 291 405 291 c 10
 125 291 l 18
 71 291 30 317 30 371 c 10
83 606 m 14
 83 624 l 22
 83 678 124 704 178 704 c 14
 458 704 l 22
 512 704 553 678 553 624 c 14
 553 606 l 22
 553 552 512 526 458 526 c 14
 178 526 l 22
 124 526 83 552 83 606 c 14
EndSplineSet
EndChar

StartChar: less
Encoding: 60 60 84
Width: 505
VWidth: 1920
Flags: HMW
LayerCount: 2
Fore
SplineSet
275 390 m 6
 87 487 l 6
 28 517 4 541 16 595 c 6
 19 605 l 6
 31 659 67 683 140 713 c 6
 372 810 l 6
 458 846 489 799 477 745 c 6
 476 740 l 6
 464 686 436 666 358 644 c 6
 203 600 l 261
 337 556 l 6
 405 534 423 514 411 460 c 6
 410 455 l 6
 398 401 345 354 275 390 c 6
EndSplineSet
EndChar

StartChar: greater
Encoding: 62 62 85
Width: 505
VWidth: 1920
Flags: HMW
LayerCount: 2
Fore
SplineSet
266 810 m 6
 454 713 l 6
 513 683 537 659 525 605 c 6
 522 595 l 6
 510 541 474 517 401 487 c 6
 169 390 l 6
 83 354 52 401 64 455 c 6
 65 460 l 6
 77 514 105 534 183 556 c 6
 339 600 l 261
 204 644 l 6
 136 666 118 686 130 740 c 6
 131 745 l 6
 143 799 196 846 266 810 c 6
EndSplineSet
EndChar

StartChar: backslash
Encoding: 92 92 86
Width: 519
VWidth: 2048
Flags: HMW
LayerCount: 2
Fore
SplineSet
370 5 m 2
 368 -76 326 -115 272 -115 c 2
 270 -115 l 2
 217 -115 188 -76 190 5 c 2
 222 1295 l 2
 224 1376 266 1415 320 1415 c 2
 322 1415 l 2
 375 1415 404 1376 402 1295 c 2
 370 5 l 2
EndSplineSet
EndChar

StartChar: bracketleft
Encoding: 91 91 87
Width: 380
VWidth: 1920
Flags: HMW
LayerCount: 2
Fore
SplineSet
456 1475 m 261
 61 -235 l 261
 101 -235 l 6
 155 -235 192 -246 182 -290 c 6
 179 -305 l 6
 169 -349 126 -360 72 -360 c 6
 -64 -360 l 6
 -142 -360 -162 -333 -144 -255 c 6
 260 1495 l 6
 278 1573 310 1600 388 1600 c 6
 524 1600 l 6
 578 1600 616 1589 606 1545 c 6
 602 1530 l 6
 592 1486 550 1475 496 1475 c 6
 456 1475 l 261
EndSplineSet
EndChar

StartChar: braceleft
Encoding: 123 123 88
Width: 388
VWidth: 2048
Flags: HMW
LayerCount: 2
Fore
SplineSet
288 1437 m 262
 314 1551 385 1593 530 1598 c 4
 583 1600 594 1572 586 1538 c 6
 585 1533 l 6
 577 1499 561 1483 526 1478 c 4
 501 1474 479 1454 459 1367 c 262
 324 786 l 262
 303 694 248 642 164 618 c 261
 236 594 268 542 247 450 c 262
 114 -126 l 262
 94 -212 107 -233 129 -237 c 4
 163 -243 172 -258 164 -292 c 6
 161 -302 l 6
 153 -336 130 -364 76 -362 c 4
 -66 -357 -116 -315 -90 -201 c 262
 60 450 l 262
 73 506 66 533 45 544 c 4
 19 557 -1 568 10 616 c 6
 11 620 l 6
 22 668 47 680 78 692 c 4
 107 703 124 729 137 786 c 262
 288 1437 l 262
EndSplineSet
EndChar

StartChar: bracketright
Encoding: 93 93 89
Width: 380
VWidth: 1920
Flags: HMW
LayerCount: 2
Fore
SplineSet
-29 -235 m 261
 366 1475 l 261
 326 1475 l 6
 272 1475 234 1486 244 1530 c 6
 248 1545 l 6
 258 1589 300 1600 354 1600 c 6
 490 1600 l 6
 568 1600 588 1573 570 1495 c 6
 166 -255 l 6
 148 -333 116 -360 38 -360 c 6
 -98 -360 l 6
 -152 -360 -189 -349 -179 -305 c 6
 -176 -290 l 6
 -166 -246 -123 -235 -69 -235 c 6
 -29 -235 l 261
EndSplineSet
EndChar

StartChar: braceright
Encoding: 125 125 90
Width: 388
VWidth: 2048
Flags: HMW
LayerCount: 2
Fore
SplineSet
144 -199 m 262
 118 -313 47 -355 -98 -360 c 4
 -151 -362 -162 -334 -154 -300 c 6
 -153 -295 l 6
 -145 -261 -129 -245 -94 -240 c 4
 -69 -236 -47 -216 -27 -129 c 262
 107 452 l 262
 128 544 184 596 268 620 c 261
 196 644 164 696 185 788 c 262
 318 1364 l 262
 338 1450 325 1471 303 1475 c 4
 269 1481 260 1496 268 1530 c 6
 271 1540 l 6
 279 1574 301 1602 355 1600 c 4
 497 1595 548 1553 522 1439 c 262
 372 788 l 262
 359 732 366 705 387 694 c 4
 413 681 433 670 422 622 c 6
 421 618 l 6
 410 570 385 558 354 546 c 4
 325 535 307 509 294 452 c 262
 144 -199 l 262
EndSplineSet
EndChar

StartChar: bar
Encoding: 124 124 91
Width: 260
VWidth: 1920
Flags: HMW
LayerCount: 2
Fore
SplineSet
378 1615 m 10
 388 1615 l 18
 442 1615 458 1553 445 1495 c 10
 41 -255 l 18
 29 -309 -18 -375 -72 -375 c 10
 -82 -375 l 18
 -136 -375 -151 -309 -139 -255 c 10
 265 1495 l 18
 278 1553 324 1615 378 1615 c 10
EndSplineSet
EndChar

StartChar: asciitilde
Encoding: 126 126 92
Width: 664
VWidth: 2048
Flags: HMW
LayerCount: 2
Fore
SplineSet
221 562 m 260
 200 562 191 552 185 541 c 4
 166 503 130 487 92 487 c 6
 82 487 l 6
 28 487 4 535 30 586 c 4
 57 640 127 742 262 742 c 260
 406 742 432 644 483 644 c 260
 504 644 512 653 521 674 c 4
 532 702 574 724 612 724 c 6
 622 724 l 6
 676 724 705 676 679 624 c 4
 652 570 577 469 442 469 c 260
 298 469 272 562 221 562 c 260
EndSplineSet
EndChar

StartChar: asciicircum
Encoding: 94 94 93
Width: 412
VWidth: 1920
Flags: HMW
LayerCount: 2
Fore
SplineSet
346 1131 m 257
 250 811 l 6
 228 736 184 715 130 715 c 6
 125 715 l 2
 71 715 30 741 61 811 c 2
 287 1320 l 2
 315 1382 353 1416 407 1416 c 2
 417 1416 l 2
 471 1416 494 1382 493 1320 c 2
 483 811 l 6
 482 741 431 715 375 715 c 2
 370 715 l 2
 315 715 282 736 294 811 c 6
 346 1131 l 257
EndSplineSet
EndChar

StartChar: figuredash
Encoding: 8210 8210 108
Width: 575
VWidth: 2048
Flags: HMW
LayerCount: 2
Fore
SplineSet
24 604 m 14
 24 621 l 22
 24 675 66 701 120 701 c 14
 494 701 l 22
 548 701 590 675 590 621 c 14
 590 604 l 22
 590 550 548 524 494 524 c 14
 120 524 l 22
 66 524 24 550 24 604 c 14
EndSplineSet
EndChar

StartChar: endash
Encoding: 8211 8211 109
Width: 550
VWidth: 2048
Flags: HMW
LayerCount: 2
Fore
SplineSet
25 604 m 14
 25 621 l 22
 25 675 67 701 121 701 c 14
 469 701 l 22
 523 701 565 675 565 621 c 14
 565 604 l 22
 565 550 523 524 469 524 c 14
 121 524 l 22
 67 524 25 550 25 604 c 14
EndSplineSet
EndChar

StartChar: emdash
Encoding: 8212 8212 110
Width: 1100
VWidth: 2048
Flags: HMW
LayerCount: 2
Fore
SplineSet
25 604 m 14
 25 621 l 22
 25 675 67 701 121 701 c 14
 1019 701 l 22
 1073 701 1115 675 1115 621 c 14
 1115 604 l 22
 1115 550 1073 524 1019 524 c 14
 121 524 l 22
 67 524 25 550 25 604 c 14
EndSplineSet
EndChar

StartChar: uni2015
Encoding: 8213 8213 111
Width: 1180
VWidth: 2048
Flags: HMW
LayerCount: 2
Fore
SplineSet
25 604 m 14
 25 621 l 22
 25 675 67 701 121 701 c 14
 1099 701 l 22
 1153 701 1195 675 1195 621 c 14
 1195 604 l 22
 1195 550 1153 524 1099 524 c 14
 121 524 l 22
 67 524 25 550 25 604 c 14
EndSplineSet
EndChar

StartChar: quoteleft
Encoding: 8216 8216 114
Width: 400
VWidth: 1920
Flags: HMW
LayerCount: 2
Fore
SplineSet
543 1451 m 10
 545 1451 l 18
 563 1451 567 1432 543 1395 c 10
 365 1125 l 257
 371 1125 l 2
 445 1125 482 1085 460 991 c 2
 440 904 l 2
 414 790 352 748 264 748 c 2
 248 748 l 2
 160 748 118 790 144 904 c 2
 153 945 l 2
 173 1033 207 1103 281 1185 c 2
 484 1411 l 18
 510 1440 530 1451 543 1451 c 10
EndSplineSet
EndChar

StartChar: quotereversed
Encoding: 8219 8219 117
Width: 400
VWidth: 1920
Flags: HMW
LayerCount: 2
Fore
SplineSet
367 714 m 18
 354 714 339 725 326 754 c 10
 227 980 l 2
 191 1062 191 1132 211 1220 c 2
 220 1261 l 2
 246 1375 308 1417 396 1417 c 2
 412 1417 l 2
 500 1417 542 1375 516 1261 c 2
 496 1174 l 2
 474 1080 419 1040 345 1040 c 2
 339 1040 l 257
 393 770 l 18
 400 733 387 714 369 714 c 10
 367 714 l 18
EndSplineSet
EndChar

StartChar: bullet
Encoding: 8226 8226 120
Width: 395
VWidth: 2048
Flags: HMW
LayerCount: 2
Fore
SplineSet
75 722 m 262
 75 769 l 262
 75 864 147 922 245 922 c 260
 343 922 420 864 420 769 c 262
 420 722 l 262
 420 627 343 568 245 568 c 260
 147 568 75 627 75 722 c 262
EndSplineSet
EndChar

StartChar: dagger
Encoding: 8224 8224 124
Width: 554
VWidth: 1920
Flags: HMW
LayerCount: 2
Fore
SplineSet
115 977 m 14
 115 995 l 22
 115 1033 157 1050 211 1050 c 14
 563 1050 l 22
 617 1050 659 1023 659 995 c 14
 659 977 l 22
 659 949 617 923 563 923 c 14
 211 923 l 22
 157 923 115 939 115 977 c 14
467 1415 m 10
 501 1415 l 18
 579 1415 594 1358 576 1280 c 10
 308 120 l 18
 290 42 249 -15 171 -15 c 10
 137 -15 l 18
 59 -15 44 42 62 120 c 10
 330 1280 l 18
 348 1358 389 1415 467 1415 c 10
EndSplineSet
EndChar

StartChar: daggerdbl
Encoding: 8225 8225 125
Width: 554
VWidth: 1920
Flags: HMW
LayerCount: 2
Fore
SplineSet
-95 54 m 14
 -95 72 l 22
 -95 110 -53 127 1 127 c 14
 353 127 l 22
 407 127 449 100 449 72 c 14
 449 54 l 22
 449 26 407 0 353 0 c 14
 1 0 l 22
 -53 0 -95 16 -95 54 c 14
115 977 m 10
 115 995 l 18
 115 1033 157 1050 211 1050 c 10
 563 1050 l 18
 617 1050 659 1023 659 995 c 10
 659 977 l 18
 659 949 617 923 563 923 c 10
 211 923 l 18
 157 923 115 939 115 977 c 10
467 1415 m 10
 501 1415 l 18
 579 1415 594 1358 576 1280 c 10
 225 -240 l 18
 207 -318 165 -375 87 -375 c 10
 53 -375 l 18
 -25 -375 -39 -318 -21 -240 c 10
 330 1280 l 18
 348 1358 389 1415 467 1415 c 10
EndSplineSet
EndChar

StartChar: perthousand
Encoding: 8240 8240 126
Width: 1417
VWidth: 2048
Flags: HMW
LayerCount: 2
Fore
SplineSet
877 192 m 258
 916 359 l 258
 947 494 1043 568 1181 568 c 256
 1319 568 1387 494 1356 359 c 258
 1317 192 l 258
 1286 57 1184 -18 1046 -18 c 256
 908 -18 846 57 877 192 c 258
1061 176 m 258
 1047 116 1043 92 1071 92 c 256
 1099 92 1113 116 1127 176 c 258
 1172 374 l 258
 1186 434 1184 458 1156 458 c 256
 1128 458 1120 434 1106 374 c 258
 1061 176 l 258
146 1042 m 258
 184 1209 l 258
 215 1344 311 1418 449 1418 c 256
 587 1418 655 1344 624 1209 c 258
 586 1042 l 258
 555 907 452 832 314 832 c 256
 176 832 115 907 146 1042 c 258
329 1026 m 258
 315 966 311 942 339 942 c 256
 367 942 381 966 395 1026 c 258
 441 1224 l 258
 455 1284 452 1308 424 1308 c 256
 396 1308 389 1284 375 1224 c 258
 329 1026 l 258
387 192 m 258
 426 359 l 258
 457 494 553 568 691 568 c 256
 829 568 897 494 866 359 c 258
 827 192 l 258
 796 57 694 -18 556 -18 c 256
 418 -18 356 57 387 192 c 258
571 176 m 258
 557 116 553 92 581 92 c 256
 609 92 623 116 637 176 c 258
 682 374 l 258
 696 434 694 458 666 458 c 256
 638 458 630 434 616 374 c 258
 571 176 l 258
984 1245 m 2
 207 155 l 2
 117 29 84 -14 30 -14 c 2
 27 -14 l 2
 -37 -14 -63 29 27 155 c 2
 804 1245 l 2
 905 1387 928 1415 982 1415 c 2
 985 1415 l 2
 1049 1415 1085 1387 984 1245 c 2
EndSplineSet
EndChar

StartChar: uni2031
Encoding: 8241 8241 127
Width: 1907
VWidth: 2048
Flags: HMW
LayerCount: 2
Fore
SplineSet
1367 192 m 258
 1406 359 l 258
 1437 494 1533 568 1671 568 c 256
 1809 568 1877 494 1846 359 c 258
 1807 192 l 258
 1776 57 1674 -18 1536 -18 c 256
 1398 -18 1336 57 1367 192 c 258
1551 176 m 258
 1537 116 1533 92 1561 92 c 256
 1589 92 1603 116 1617 176 c 258
 1662 374 l 258
 1676 434 1674 458 1646 458 c 256
 1618 458 1610 434 1596 374 c 258
 1551 176 l 258
877 192 m 258
 916 359 l 258
 947 494 1043 568 1181 568 c 256
 1319 568 1387 494 1356 359 c 258
 1317 192 l 258
 1286 57 1184 -18 1046 -18 c 256
 908 -18 846 57 877 192 c 258
1061 176 m 258
 1047 116 1043 92 1071 92 c 256
 1099 92 1113 116 1127 176 c 258
 1172 374 l 258
 1186 434 1184 458 1156 458 c 256
 1128 458 1120 434 1106 374 c 258
 1061 176 l 258
146 1042 m 258
 184 1209 l 258
 215 1344 311 1418 449 1418 c 256
 587 1418 655 1344 624 1209 c 258
 586 1042 l 258
 555 907 452 832 314 832 c 256
 176 832 115 907 146 1042 c 258
329 1026 m 258
 315 966 311 942 339 942 c 256
 367 942 381 966 395 1026 c 258
 441 1224 l 258
 455 1284 452 1308 424 1308 c 256
 396 1308 389 1284 375 1224 c 258
 329 1026 l 258
387 192 m 258
 426 359 l 258
 457 494 553 568 691 568 c 256
 829 568 897 494 866 359 c 258
 827 192 l 258
 796 57 694 -18 556 -18 c 256
 418 -18 356 57 387 192 c 258
571 176 m 258
 557 116 553 92 581 92 c 256
 609 92 623 116 637 176 c 258
 682 374 l 258
 696 434 694 458 666 458 c 256
 638 458 630 434 616 374 c 258
 571 176 l 258
984 1245 m 2
 207 155 l 2
 117 29 84 -14 30 -14 c 2
 27 -14 l 2
 -37 -14 -63 29 27 155 c 2
 804 1245 l 2
 905 1387 928 1415 982 1415 c 2
 985 1415 l 2
 1049 1415 1085 1387 984 1245 c 2
EndSplineSet
EndChar

StartChar: fraction
Encoding: 8260 8260 128
Width: 580
VWidth: 1920
Flags: HMW
LayerCount: 2
Fore
SplineSet
645 1293 m 2
 648 1291 l 2
 673 1277 687 1251 637 1156 c 10
 156 239 l 18
 111 153 64 127 33 144 c 10
 30 146 l 18
 -1 163 1 198 46 284 c 10
 526 1201 l 18
 576 1296 622 1306 645 1293 c 2
EndSplineSet
EndChar

StartChar: uni2074
Encoding: 8308 8308 129
Width: 349
VWidth: 1920
Flags: HMW
LayerCount: 2
Fore
SplineSet
441 879 m 6
 440 876 l 6
 430 832 400 825 368 825 c 6
 362 825 l 261
 339 723 l 6
 322 649 284 621 240 621 c 6
 237 621 l 6
 193 621 175 649 192 723 c 6
 215 825 l 261
 173 825 l 6
 93 825 76 844 86 888 c 6
 87 891 l 6
 93 917 105 947 145 1029 c 6
 315 1383 l 6
 343 1441 379 1479 429 1479 c 6
 444 1479 l 6
 494 1479 504 1439 490 1377 c 6
 387 930 l 261
 393 930 l 6
 425 930 451 923 441 879 c 6
243 930 m 261
 312 1230 l 261
 184 930 l 261
 243 930 l 261
EndSplineSet
EndChar

StartChar: uni2073
Encoding: 8307 8307 130
Width: 354
VWidth: 1920
Flags: HMW
LayerCount: 2
Fore
SplineSet
177 913 m 6
 186 913 l 6
 224 913 248 884 231 810 c 6
 226 788 l 6
 218 752 211 725 225 725 c 4
 239 725 245 747 254 786 c 6
 294 956 l 6
 300 983 301 1002 272 1002 c 6
 271 1002 l 6
 251 1002 227 1015 236 1053 c 6
 237 1056 l 6
 246 1094 270 1107 290 1107 c 6
 291 1107 l 6
 317 1107 326 1119 332 1143 c 6
 373 1322 l 6
 381 1358 383 1374 370 1374 c 4
 357 1374 351 1354 344 1323 c 6
 339 1300 l 6
 322 1226 290 1192 246 1192 c 6
 240 1192 l 6
 196 1192 178 1226 195 1300 c 6
 205 1341 l 6
 221 1411 276 1480 398 1480 c 4
 520 1480 542 1408 526 1339 c 6
 490 1181 l 6
 467 1082 402 1050 295 1050 c 5
 305 1065 l 5
 412 1065 458 1035 434 930 c 6
 401 788 l 6
 377 686 321 619 184 619 c 4
 66 619 54 681 75 770 c 6
 84 810 l 6
 101 884 139 913 177 913 c 6
EndSplineSet
EndChar

StartChar: uni2072
Encoding: 8306 8306 131
Width: 360
VWidth: 1920
Flags: HMW
LayerCount: 2
Fore
SplineSet
67 721 m 262
 116 932 300 991 348 1200 c 262
 379 1333 l 262
 387 1369 388 1383 377 1383 c 260
 367 1383 363 1368 355 1334 c 262
 328 1218 l 6
 312 1150 285 1116 235 1116 c 6
 229 1116 l 6
 179 1116 168 1150 184 1218 c 6
 207 1316 l 262
 230 1416 291 1488 410 1488 c 260
 508 1488 544 1424 522 1328 c 262
 501 1237 l 262
 444 992 246 887 215 751 c 262
 215 748 l 261
 305 748 l 6
 367 748 404 738 394 694 c 6
 394 691 l 6
 384 647 341 637 279 637 c 6
 135 637 l 6
 67 637 58 680 67 718 c 6
 67 721 l 262
EndSplineSet
EndChar

StartChar: uni2070
Encoding: 8304 8304 132
Width: 389
VWidth: 1920
Flags: HMW
LayerCount: 2
Fore
SplineSet
84 777 m 258
 211 1324 l 258
 234 1422 296 1481 417 1481 c 256
 538 1481 573 1422 550 1324 c 258
 423 777 l 258
 400 679 339 620 218 620 c 256
 97 620 61 679 84 777 c 258
233 783 m 258
 223 739 223 722 242 722 c 256
 261 722 268 739 278 783 c 258
 401 1318 l 258
 411 1362 412 1379 393 1379 c 256
 374 1379 366 1362 356 1318 c 258
 233 783 l 258
EndSplineSet
EndChar

StartChar: uni2075
Encoding: 8309 8309 133
Width: 382
VWidth: 1920
Flags: HMW
LayerCount: 2
Fore
SplineSet
175 851 m 6
 178 851 l 6
 234 851 241 835 231 779 c 4
 224 738 222 715 236 715 c 4
 253 715 260 739 286 851 c 6
 321 1002 l 6
 333 1056 337 1075 324 1075 c 4
 308 1075 307 1057 294 1018 c 4
 276 961 256 946 206 946 c 6
 203 946 l 6
 165 946 144 980 164 1048 c 6
 265 1388 l 6
 283 1450 318 1463 380 1463 c 6
 482 1463 l 6
 532 1463 554 1450 547 1418 c 6
 547 1417 l 6
 539 1381 518 1358 452 1358 c 6
 376 1358 l 5
 276 1040 l 5
 270 1040 l 5
 298 1143 339 1181 405 1181 c 4
 477 1181 501 1142 471 1014 c 6
 433 851 l 6
 392 675 324 613 201 613 c 4
 101 613 78 669 95 779 c 4
 103 829 119 851 175 851 c 6
EndSplineSet
EndChar

StartChar: uni2076
Encoding: 8310 8310 134
Width: 388
VWidth: 1920
Flags: HMW
LayerCount: 2
Fore
SplineSet
316 1033 m 260
 301 1033 294 1016 280 955 c 262
 276 937 l 261
 255 961 l 261
 273 1040 317 1108 388 1108 c 260
 474 1108 484 1047 460 941 c 262
 426 791 l 262
 399 672 343 622 225 622 c 260
 94 622 73 683 106 827 c 262
 216 1304 l 262
 242 1418 301 1481 417 1481 c 260
 536 1481 561 1421 537 1318 c 262
 525 1264 l 6
 508 1190 476 1162 432 1162 c 6
 429 1162 l 6
 385 1162 367 1190 384 1264 c 6
 394 1306 l 262
 403 1346 410 1376 394 1376 c 260
 379 1376 371 1347 361 1302 c 262
 246 807 l 262
 231 744 232 727 246 727 c 260
 264 727 268 745 282 805 c 262
 315 947 l 262
 329 1008 331 1033 316 1033 c 260
EndSplineSet
EndChar

StartChar: uni2077
Encoding: 8311 8311 135
Width: 280
VWidth: 1920
Flags: HMW
LayerCount: 2
Fore
SplineSet
479 1371 m 14
 240 723 l 22
 218 661 178 621 127 621 c 14
 125 621 l 22
 74 621 59 663 86 723 c 14
 356 1335 l 29
 280 1335 l 22
 212 1335 184 1356 194 1401 c 14
 195 1404 l 22
 207 1455 243 1470 311 1470 c 14
 421 1470 l 22
 489 1470 503 1438 479 1371 c 14
EndSplineSet
EndChar

StartChar: uni2078
Encoding: 8312 8312 136
Width: 404
VWidth: 1920
Flags: HMW
LayerCount: 2
Fore
SplineSet
250 724 m 256
 268 724 275 737 280 760 c 258
 329 971 l 258
 334 994 334 1008 316 1008 c 256
 298 1008 289 994 284 971 c 258
 235 760 l 258
 230 737 232 724 250 724 c 256
340 1113 m 256
 355 1113 361 1124 365 1141 c 258
 414 1353 l 258
 417 1367 415 1377 401 1377 c 256
 387 1377 377 1367 374 1353 c 258
 325 1141 l 258
 321 1124 325 1113 340 1113 c 256
339 1068 m 257
 468 1068 486 1016 466 928 c 258
 429 765 l 258
 408 673 363 620 226 620 c 256
 104 620 68 673 89 765 c 258
 126 928 l 258
 146 1016 206 1068 320 1068 c 257
 318 1056 l 257
 208 1058 171 1104 193 1200 c 258
 224 1333 l 258
 246 1430 315 1481 425 1481 c 256
 550 1481 579 1430 557 1333 c 258
 526 1200 l 258
 504 1104 460 1058 335 1056 c 257
 339 1068 l 257
EndSplineSet
EndChar

StartChar: uni2079
Encoding: 8313 8313 137
Width: 388
VWidth: 1920
Flags: HMW
LayerCount: 2
Fore
SplineSet
316 1067 m 260
 331 1067 338 1084 352 1145 c 262
 356 1163 l 261
 378 1139 l 261
 360 1060 316 992 245 992 c 260
 159 992 149 1053 173 1159 c 262
 207 1309 l 262
 234 1428 290 1478 408 1478 c 260
 539 1478 560 1417 527 1273 c 262
 417 796 l 262
 391 682 332 619 216 619 c 260
 97 619 66 679 90 782 c 262
 102 836 l 6
 119 910 151 938 195 938 c 6
 198 938 l 6
 242 938 260 910 243 836 c 6
 233 794 l 262
 224 754 217 724 236 724 c 260
 254 724 262 753 272 798 c 262
 387 1293 l 262
 402 1356 401 1373 387 1373 c 260
 369 1373 365 1355 351 1295 c 262
 318 1153 l 262
 304 1092 301 1067 316 1067 c 260
EndSplineSet
EndChar

StartChar: uni00B9
Encoding: 185 185 138
Width: 258
VWidth: 1920
Flags: HMW
LayerCount: 2
Fore
SplineSet
296 1445 m 256
 314 1451 321 1454 335 1467 c 256
 349 1481 363 1483 377 1483 c 258
 378 1483 l 258
 407 1483 421 1464 412 1423 c 258
 245 703 l 258
 233 650 199 625 155 625 c 258
 153 625 l 258
 109 625 87 650 99 703 c 258
 258 1391 l 258
 265 1423 279 1439 296 1445 c 256
EndSplineSet
EndChar

StartChar: cent
Encoding: 162 162 154
Width: 461
VWidth: 1920
Flags: HMW
LayerCount: 2
Fore
SplineSet
408.889648438 1240 m 262
 413.889648438 1240 l 262
 421.889648438 1240 429.889648438 1234 425.889648438 1216 c 262
 106.889648438 -166 l 262
 102.889648438 -184 91.8896484375 -190 83.8896484375 -190 c 262
 78.8896484375 -190 l 262
 70.8896484375 -190 62.8896484375 -184 66.8896484375 -166 c 262
 385.889648438 1216 l 262
 389.889648438 1234 400.889648438 1240 408.889648438 1240 c 262
EndSplineSet
Refer: 40 99 N 1 0 0 1 0 0 2
EndChar

StartChar: uni203D
Encoding: 8253 8253 157
Width: 800
VWidth: 1920
Flags: HMW
LayerCount: 2
Fore
SplineSet
380 930 m 2
 419 1100 l 2
 444 1207 493 1245 547 1245 c 2
 552 1245 l 2
 606 1245 649 1207 624 1100 c 2
 562 830 l 2
 560 823 558 817 556 810 c 2
 425 450 l 2
 423 443 400 430 396 430 c 2
 394 430 l 2
 340 430 319 455 329 560 c 2
 343 710 l 2
 349 776 353 813 380 930 c 2
310 -17 m 2
 294 -17 l 2
 210 -17 164 24 190 138 c 2
 209 222 l 2
 235 336 301 377 385 377 c 2
 401 377 l 2
 485 377 531 336 505 222 c 2
 486 138 l 2
 460 24 394 -17 310 -17 c 2
401 430 m 2
 396 430 l 2
 392 430 351 493 352 499 c 0
 414 771 581 848 612 983 c 258
 662 1198 l 258
 674 1248 663 1285 569 1285 c 256
 464 1285 420 1235 408 1182 c 258
 352 942 l 2
 323 815 271 767 197 767 c 2
 187 767 l 2
 113 767 83 815 112 942 c 2
 149 1102 l 258
 205 1346 357 1467 631 1467 c 256
 869 1467 982 1373 931 1153 c 258
 914 1078 l 258
 837 745 626 669 543 548 c 0
 485 463 454 430 401 430 c 2
EndSplineSet
EndChar

StartChar: ordfeminine
Encoding: 170 170 159
Width: 430
VWidth: 1920
Flags: HMW
LayerCount: 2
Fore
SplineSet
278 892 m 0
 269 854 256 791 270 791 c 256
 285 791 296 835 312 903 c 257
 333 827 l 257
 305 705 242 609 158 609 c 256
 71 609 50 693 87 852 c 0
 132 1047 210 1095 302 1139 c 256
 358 1166 377 1185 383 1211 c 257
 366 1084 l 257
 362 1066 343 1042 327 1024 c 256
 307 1002 287 930 278 892 c 0
281 769 m 258
 395 1261 l 258
 407 1315 412 1341 398 1341 c 256
 388 1341 379 1323 355 1222 c 0
 354 1218 352 1217 350 1217 c 2
 200 1217 l 2
 198 1217 198 1218 199 1222 c 0
 248 1392 319 1489 447 1489 c 256
 590 1489 605 1395 563 1214 c 258
 460 769 l 258
 447 712 444 673 449 648 c 0
 450 645 449 644 447 644 c 2
 282 644 l 2
 280 644 280 646 279 648 c 0
 274 674 268 712 281 769 c 258
EndSplineSet
EndChar

StartChar: exclamdown
Encoding: 161 161 160
Width: 400
VWidth: 1920
Flags: HMW
LayerCount: 2
Fore
SplineSet
318 1065 m 2
 334 1065 l 2
 418 1065 464 1024 438 910 c 2
 419 826 l 2
 393 712 327 671 243 671 c 2
 227 671 l 2
 143 671 97 712 123 826 c 2
 142 910 l 2
 168 1024 234 1065 318 1065 c 2
226 -102 m 2
 196 -232 l 2
 171 -339 96 -417 -11 -417 c 2
 -21 -417 l 2
 -128 -417 -169 -339 -144 -232 c 2
 -114 -102 l 2
 -89 5 -68 72 23 268 c 2
 79 388 l 2
 131 499 168 563 205 563 c 2
 215 563 l 2
 252 563 261 499 261 388 c 2
 261 268 l 2
 261 72 251 5 226 -102 c 2
EndSplineSet
EndChar

StartChar: AE
Encoding: 198 198 161
Width: 788
VWidth: 1920
Flags: HMW
LayerCount: 2
Fore
SplineSet
118 520 m 257
 498 520 l 257
 498 395 l 257
 118 395 l 257
 118 520 l 257
696 1400 m 5
 136 130 l 6
 91 28 32 -15 -25 -15 c 6
 -35 -15 l 6
 -92 -15 -129 29 -84 130 c 6
 414 1260 l 6
 463 1371 519 1400 606 1400 c 6
 696 1400 l 5
EndSplineSet
Refer: 16 69 N 1 0 0 1 348 0 2
EndChar

StartChar: questiondown
Encoding: 191 191 162
Width: 600
VWidth: 1920
Flags: HMW
LayerCount: 2
Fore
SplineSet
423 1067 m 6
 439 1067 l 6
 523 1067 570 1026 544 912 c 6
 524 828 l 6
 498 714 432 673 348 673 c 6
 332 673 l 6
 248 673 202 714 228 828 c 6
 248 912 l 6
 274 1026 339 1067 423 1067 c 6
349 635 m 6
 354 635 l 6
 408 635 423 608 402 515 c 4
 377 408 249 320 215 173 c 262
 145 -128 l 262
 123 -223 126 -241 144 -241 c 260
 164 -241 175 -216 197 -120 c 262
 212 -57 l 6
 238 57 291 113 365 113 c 6
 375 113 l 6
 449 113 478 57 452 -57 c 6
 429 -155 l 262
 396 -297 289 -417 91 -417 c 260
 -107 -417 -176 -311 -144 -171 c 262
 -78 116 l 262
 -22 358 167 436 218 526 c 4
 270 616 296 635 349 635 c 6
EndSplineSet
EndChar

StartChar: yen
Encoding: 165 165 163
Width: 630
VWidth: 1920
Flags: HMW
LayerCount: 2
Fore
SplineSet
13 474 m 14
 13 476 l 22
 13 494 30 506 68 506 c 14
 553 506 l 22
 591 506 608 494 608 476 c 14
 608 474 l 22
 608 456 591 444 553 444 c 14
 68 444 l 22
 30 444 13 456 13 474 c 14
43 609 m 10
 43 611 l 18
 43 629 60 641 98 641 c 10
 583 641 l 18
 621 641 638 629 638 611 c 10
 638 609 l 18
 638 591 621 579 583 579 c 10
 98 579 l 18
 60 579 43 591 43 609 c 10
EndSplineSet
Refer: 36 89 N 1 0 0 1 0 0 2
EndChar

StartChar: gravecomb
Encoding: 768 768 164
Width: 0
Flags: HMW
AnchorPoint: "top" -452 1000 mark 0
LayerCount: 2
Fore
SplineSet
-426 1054 m 2
 -430 1054 l 2
 -474 1054 -513 1121 -551 1204 c 2
 -563 1230 l 2
 -612 1339 -534 1430 -456 1430 c 2
 -451 1430 l 2
 -373 1430 -348 1390 -357 1290 c 2
 -365 1214 l 2
 -375 1105 -398 1054 -426 1054 c 2
EndSplineSet
EndChar

StartChar: acutecomb
Encoding: 769 769 165
Width: 0
Flags: HMW
AnchorPoint: "top" -437 1000 mark 0
LayerCount: 2
Fore
SplineSet
-439 1054 m 6
 -467 1054 -466 1105 -426 1214 c 6
 -397 1290 l 6
 -360 1390 -317 1430 -239 1430 c 6
 -234 1430 l 6
 -156 1430 -119 1339 -218 1230 c 6
 -242 1204 l 6
 -318 1121 -389 1054 -433 1054 c 6
 -439 1054 l 6
EndSplineSet
EndChar

StartChar: uni0302
Encoding: 770 770 166
Width: 0
VWidth: 1920
Flags: HMW
AnchorPoint: "top" -446 1000 mark 0
LayerCount: 2
Fore
SplineSet
-387 1261 m 257
 -413 1210 l 2
 -463 1112 -494 1088 -538 1088 c 2
 -541 1088 l 2
 -585 1088 -608 1114 -554 1210 c 2
 -509 1290 l 2
 -454 1389 -426 1415 -352 1415 c 2
 -350 1415 l 2
 -276 1415 -260 1387 -248 1290 c 2
 -239 1210 l 2
 -228 1115 -261 1088 -307 1088 c 2
 -310 1088 l 2
 -355 1088 -375 1114 -383 1210 c 2
 -387 1261 l 257
EndSplineSet
EndChar

StartChar: tildecomb
Encoding: 771 771 167
Width: 0
Flags: HMW
AnchorPoint: "top" -467 1000 mark 0
LayerCount: 2
Fore
SplineSet
-453 1229 m 256
 -469 1229 -478 1210 -481 1197 c 0
 -499 1121 -520 1093 -553 1093 c 2
 -556 1093 l 2
 -590 1093 -606 1131 -593 1187 c 4
 -569 1292 -504 1399 -429 1399 c 260
 -345 1399 -375 1232 -349 1232 c 256
 -334 1232 -323 1251 -313 1293 c 0
 -295 1370 -260 1388 -237 1388 c 2
 -235 1388 l 2
 -211 1388 -187 1370 -207 1283 c 0
 -244 1125 -323 1082 -368 1082 c 256
 -452 1082 -427 1229 -453 1229 c 256
EndSplineSet
EndChar

StartChar: uni0304
Encoding: 772 772 168
Width: 0
VWidth: 1920
Flags: HMW
AnchorPoint: "top" -449.132 1000 mark 0
LayerCount: 2
Fore
SplineSet
-563 1151 m 14
 -563 1154 l 22
 -563 1198 -537 1211 -483 1211 c 14
 -343 1211 l 22
 -289 1211 -263 1198 -263 1154 c 14
 -263 1151 l 22
 -263 1107 -289 1094 -343 1094 c 14
 -483 1094 l 22
 -537 1094 -563 1107 -563 1151 c 14
EndSplineSet
EndChar

StartChar: uni0306
Encoding: 774 774 169
Width: 0
VWidth: 1920
Flags: HMW
AnchorPoint: "top" -449.132 1000 mark 0
LayerCount: 2
Fore
SplineSet
-388 1265 m 4
 -358 1265 -340 1309 -329 1357 c 4
 -311 1435 -277 1453 -243 1453 c 6
 -240 1453 l 6
 -206 1453 -168 1435 -187 1354 c 4
 -218 1222 -295 1095 -427 1095 c 4
 -559 1095 -578 1223 -547 1357 c 4
 -529 1435 -484 1453 -450 1453 c 6
 -447 1453 l 6
 -413 1453 -387 1435 -405 1355 c 4
 -417 1305 -417 1265 -388 1265 c 4
EndSplineSet
EndChar

StartChar: uni0307
Encoding: 775 775 170
Width: 0
Flags: HMW
AnchorPoint: "top" -448.675 950 mark 0
LayerCount: 2
Fore
SplineSet
-405 1030 m 6
 -409 1030 l 6
 -483 1030 -529 1077 -529 1135 c 6
 -529 1145 l 6
 -529 1203 -483 1250 -409 1250 c 6
 -405 1250 l 6
 -331 1250 -285 1203 -285 1145 c 6
 -285 1135 l 6
 -285 1077 -331 1030 -405 1030 c 6
EndSplineSet
EndChar

StartChar: uni0308
Encoding: 776 776 171
Width: 0
Flags: HMW
AnchorPoint: "top" -448.675 950 mark 0
LayerCount: 2
Fore
SplineSet
-523 1030 m 6
 -528 1030 l 6
 -586 1030 -623 1071 -623 1135 c 6
 -623 1145 l 6
 -623 1209 -586 1250 -528 1250 c 6
 -523 1250 l 6
 -465 1250 -428 1209 -428 1145 c 6
 -428 1135 l 6
 -428 1071 -465 1030 -523 1030 c 6
-298 1030 m 6
 -303 1030 l 6
 -361 1030 -398 1071 -398 1135 c 6
 -398 1145 l 6
 -398 1209 -361 1250 -303 1250 c 6
 -298 1250 l 6
 -240 1250 -203 1209 -203 1145 c 6
 -203 1135 l 6
 -203 1071 -240 1030 -298 1030 c 6
EndSplineSet
EndChar

StartChar: uni030A
Encoding: 778 778 172
Width: 0
Flags: HMW
AnchorPoint: "top" -554 1000 mark 0
LayerCount: 2
Fore
SplineSet
-418 1232 m 4
 -418 1180 -462 1137 -514 1137 c 4
 -567 1137 -612 1179 -612 1232 c 4
 -612 1283 -567 1327 -514 1327 c 4
 -461 1327 -418 1286 -418 1232 c 4
-464 1232 m 4
 -464 1260 -487 1280 -514 1280 c 4
 -541 1280 -564 1257 -564 1232 c 4
 -564 1205 -541 1184 -514 1184 c 4
 -488 1184 -464 1207 -464 1232 c 4
EndSplineSet
EndChar

StartChar: uni030B
Encoding: 779 779 173
Width: 0
Flags: HMW
AnchorPoint: "top" -507 1000 mark 0
LayerCount: 2
Fore
SplineSet
-376 1054 m 6
 -404 1054 -403 1105 -363 1214 c 6
 -334 1290 l 6
 -297 1390 -254 1430 -176 1430 c 6
 -171 1430 l 6
 -93 1430 -56 1339 -155 1230 c 6
 -179 1204 l 6
 -255 1121 -326 1054 -370 1054 c 6
 -376 1054 l 6
-632 1054 m 6
 -660 1054 -659 1105 -619 1214 c 6
 -590 1290 l 6
 -553 1390 -510 1430 -432 1430 c 6
 -427 1430 l 6
 -349 1430 -312 1339 -411 1230 c 6
 -435 1204 l 6
 -511 1121 -582 1054 -626 1054 c 6
 -632 1054 l 6
EndSplineSet
EndChar

StartChar: uni030C
Encoding: 780 780 174
Width: 0
Flags: HMW
AnchorPoint: "top" -443 1000 mark 0
LayerCount: 2
Fore
SplineSet
-383 1259 m 261
 -358 1310 l 6
 -308 1408 -276 1432 -232 1432 c 6
 -229 1432 l 6
 -185 1432 -163 1406 -217 1310 c 6
 -261 1230 l 6
 -316 1131 -344 1105 -418 1105 c 6
 -420 1105 l 6
 -494 1105 -510 1133 -522 1230 c 6
 -532 1310 l 6
 -543 1405 -509 1432 -463 1432 c 6
 -460 1432 l 6
 -415 1432 -396 1406 -388 1310 c 6
 -383 1259 l 261
EndSplineSet
EndChar

StartChar: uni030F
Encoding: 783 783 175
Width: 0
Flags: HMW
AnchorPoint: "top" -397 1000 mark 0
LayerCount: 2
Fore
SplineSet
-483 1054 m 2
 -489 1054 l 2
 -533 1054 -572 1121 -610 1204 c 2
 -622 1230 l 2
 -671 1339 -592 1430 -514 1430 c 2
 -509 1430 l 2
 -431 1430 -406 1390 -415 1290 c 2
 -422 1214 l 2
 -432 1105 -455 1054 -483 1054 c 2
-227 1054 m 2
 -233 1054 l 2
 -277 1054 -316 1121 -354 1204 c 2
 -366 1230 l 2
 -415 1339 -336 1430 -258 1430 c 2
 -253 1430 l 2
 -175 1430 -150 1390 -159 1290 c 2
 -166 1214 l 2
 -176 1105 -199 1054 -227 1054 c 2
EndSplineSet
EndChar

StartChar: uni0311
Encoding: 785 785 176
Width: 0
Flags: HMW
AnchorPoint: "top" -493.132 1000 mark 0
LayerCount: 2
Fore
SplineSet
-413 1345 m 4
 -443 1345 -462 1301 -473 1253 c 4
 -491 1175 -525 1157 -559 1157 c 6
 -562 1157 l 6
 -596 1157 -633 1175 -614 1256 c 4
 -583 1388 -506 1515 -374 1515 c 4
 -242 1515 -224 1387 -255 1253 c 4
 -273 1175 -318 1157 -352 1157 c 6
 -355 1157 l 6
 -389 1157 -414 1175 -396 1255 c 4
 -384 1305 -384 1345 -413 1345 c 4
EndSplineSet
EndChar

StartChar: dotbelowcomb
Encoding: 803 803 177
Width: 0
Flags: HMW
AnchorPoint: "bottom" -671 0 mark 0
LayerCount: 2
Fore
SplineSet
-718 -340 m 6
 -722 -340 l 6
 -796 -340 -842 -293 -842 -235 c 6
 -842 -225 l 6
 -842 -167 -796 -120 -722 -120 c 6
 -718 -120 l 6
 -644 -120 -598 -167 -598 -225 c 6
 -598 -235 l 6
 -598 -293 -644 -340 -718 -340 c 6
EndSplineSet
EndChar

StartChar: uni0326
Encoding: 806 806 178
Width: 0
Flags: HMW
AnchorPoint: "bottom" -681 0 mark 0
LayerCount: 2
Fore
SplineSet
-878 -484 m 10
 -881 -484 l 18
 -896 -484 -899 -468 -875 -440 c 10
 -804 -360 l 257
 -808 -360 l 2
 -852 -360 -879 -320 -869 -276 c 2
 -865 -260 l 2
 -851 -201 -801 -160 -730 -160 c 2
 -718 -160 l 2
 -647 -160 -615 -201 -629 -260 c 2
 -632 -272 l 2
 -647 -335 -699 -375 -737 -400 c 2
 -817 -452 l 18
 -848 -472 -863 -484 -878 -484 c 10
EndSplineSet
EndChar

StartChar: uni0327
Encoding: 807 807 179
Width: 1200
Flags: HMW
AnchorPoint: "bottom" -681 0 mark 0
LayerCount: 2
Fore
SplineSet
-880 -650 m 0
 -950 -650 -974 -637 -989 -627 c 0
 -1012 -612 -1020 -563 -999 -504 c 2
 -997 -496 l 2
 -976 -437 -934 -427 -913 -441 c 0
 -902 -448 -885 -459 -855 -459 c 0
 -833 -459 -811 -439 -792 -357 c 0
 -774 -281 -774 -244 -849 -240 c 0
 -866 -239 -875 -234 -875 -223 c 2
 -876 -219 l 2
 -876 -208 -868 -192 -859 -176 c 2
 -723 60 l 1
 -552 60 l 1
 -690 -172 l 1
 -681 -167 -672 -164 -664 -164 c 0
 -621 -164 -580 -182 -622 -362 c 0
 -675 -590 -778 -650 -880 -650 c 0
EndSplineSet
EndChar

StartChar: uni0328
Encoding: 808 808 180
Width: 1200
Flags: HMW
AnchorPoint: "ogonek" -711 0 mark 0
LayerCount: 2
Fore
SplineSet
-693 -370 m 2
 -696 -380 l 2
 -721 -487 -755 -540 -809 -540 c 2
 -814 -540 l 2
 -883 -540 -1010 -488 -962 -280 c 0
 -912 -62 -786 -2 -689 70 c 1
 -674 0 l 1
 -736 -44 -765 -96 -777 -150 c 0
 -787 -192 -775 -200 -730 -200 c 2
 -729 -200 l 2
 -675 -200 -669 -264 -693 -370 c 2
EndSplineSet
EndChar

StartChar: uni0312
Encoding: 786 786 181
Width: 0
Flags: HMW
AnchorPoint: "top" -516.219 900 mark 0
LayerCount: 2
Fore
SplineSet
-152 1706 m 14
 -150 1706 l 22
 -132 1706 -128 1687 -152 1650 c 14
 -330 1380 l 261
 -324 1380 l 6
 -250 1380 -213 1340 -235 1246 c 6
 -255 1159 l 6
 -281 1045 -343 1003 -431 1003 c 6
 -447 1003 l 6
 -535 1003 -577 1045 -551 1159 c 6
 -542 1200 l 6
 -522 1288 -489 1358 -415 1440 c 6
 -211 1666 l 22
 -185 1695 -165 1706 -152 1706 c 14
EndSplineSet
EndChar

StartChar: sterling
Encoding: 163 163 182
Width: 610
VWidth: 1920
Flags: HMW
LayerCount: 2
Fore
SplineSet
55 692 m 14
 55 700 l 22
 55 754 82 775 176 775 c 14
 470 775 l 22
 564 775 591 754 591 700 c 14
 591 692 l 22
 591 638 564 617 470 617 c 14
 176 617 l 22
 82 617 55 638 55 692 c 14
-41 177 m 0
 44 278 138 422 192 657 c 0
 238 856 156 907 198 1091 c 0
 248 1306 357 1417 525 1417 c 0
 697 1417 745 1322 712 1067 c 0
 703 993 649 948 575 948 c 2
 569 948 l 2
 496 948 460 973 481 1067 c 0
 512 1210 527 1247 500 1247 c 0
 482 1247 465 1211 432 1066 c 0
 404 945 474 885 425 672 c 0
 368 426 282 295 186 177 c 1
 401 177 l 2
 485 177 517 156 502 92 c 2
 501 85 l 2
 486 21 444 0 360 0 c 2
 70 0 l 2
 -74 0 -90 41 -75 105 c 2
 -74 107 l 2
 -64 149 -53 162 -41 177 c 0
EndSplineSet
EndChar

StartChar: currency
Encoding: 164 164 183
Width: 579
Flags: HMW
LayerCount: 2
Fore
SplineSet
624 945 m 14
 630 937 l 22
 659 899 636 855 589 817 c 14
 554 789 l 22
 552 787 548 787 546 789 c 14
 458 903 l 22
 456 905 458 908 460 910 c 14
 495 938 l 22
 542 976 595 983 624 945 c 14
119 627 m 14
 206 513 l 22
 208 511 207 508 205 506 c 14
 170 478 l 22
 123 440 76 425 47 463 c 14
 41 471 l 22
 12 509 31 561 78 599 c 14
 113 627 l 22
 115 629 117 629 119 627 c 14
145 940 m 14
 155 949 l 22
 202 987 248 976 277 938 c 14
 298 910 l 22
 300 908 298 905 296 903 c 14
 156 788 l 22
 154 786 152 786 150 788 c 14
 128 817 l 22
 99 855 98 902 145 940 c 14
368 513 m 14
 467 592 l 22
 469 594 515 629 517 627 c 14
 538 599 l 22
 567 561 567 513 520 475 c 14
 510 467 l 22
 463 429 417 439 388 477 c 14
 367 506 l 22
 365 508 366 511 368 513 c 14
90 709 m 4
 121 843 257 954 391 954 c 4
 525 954 611 843 580 709 c 4
 549 575 412 464 278 464 c 4
 144 464 59 575 90 709 c 4
270 709 m 4
 260 665 275 639 319 639 c 4
 363 639 390 665 400 709 c 4
 410 753 395 779 351 779 c 4
 307 779 280 753 270 709 c 4
EndSplineSet
EndChar

StartChar: brokenbar
Encoding: 166 166 184
Width: 260
VWidth: 1920
Flags: HMW
LayerCount: 2
Fore
SplineSet
108 445 m 10
 118 445 l 18
 172 445 188 383 175 325 c 10
 41 -255 l 18
 29 -309 -18 -375 -72 -375 c 10
 -82 -375 l 18
 -136 -375 -151 -309 -139 -255 c 10
 -5 325 l 18
 8 383 54 445 108 445 c 10
378 1615 m 10
 388 1615 l 18
 442 1615 458 1553 445 1495 c 10
 311 915 l 18
 299 861 253 795 199 795 c 10
 189 795 l 18
 135 795 119 861 131 915 c 10
 265 1495 l 18
 278 1553 324 1615 378 1615 c 10
EndSplineSet
EndChar

StartChar: section
Encoding: 167 167 185
Width: 512
VWidth: 1920
Flags: HMW
LayerCount: 2
Fore
SplineSet
356 873 m 257
 318 873 272 809 245 691 c 256
 213 554 195 435 262 324 c 256
 310 245 334 150 295 -20 c 256
 241 -252 155 -377 17 -377 c 256
 -110 -377 -119 -274 -97 -134 c 0
 -82 -38 -55 -10 -11 -10 c 2
 -9 -10 l 2
 35 -10 48 -38 29 -135 c 0
 19 -185 11 -212 29 -212 c 256
 43 -212 64 -157 80 -87 c 256
 100 1 84 52 54 115 c 256
 2 226 -24 329 35 586 c 256
 98 858 248 953 380 953 c 257
 356 873 l 257
157 167 m 257
 195 167 241 231 268 349 c 256
 300 486 317 605 250 716 c 256
 202 795 178 890 217 1060 c 256
 271 1292 357 1417 495 1417 c 256
 622 1417 628 1294 611 1174 c 0
 597 1078 568 1050 524 1050 c 2
 519 1050 l 2
 475 1050 463 1078 483 1175 c 0
 488 1200 505 1252 483 1252 c 256
 469 1252 448 1197 432 1127 c 256
 412 1039 428 988 458 925 c 256
 510 814 536 711 477 454 c 256
 414 182 265 87 133 87 c 257
 157 167 l 257
EndSplineSet
EndChar

StartChar: copyright
Encoding: 169 169 186
Width: 844
Flags: HMW
LayerCount: 2
Fore
SplineSet
585 562 m 256
 543 379 513 249 346 249 c 260
 224 249 215 325 248 469 c 258
 344 885 l 258
 376 1023 423 1111 551 1111 c 256
 703 1111 671 974 640 839 c 256
 630 795 613 768 569 768 c 258
 567 768 l 258
 523 768 519 795 529 839 c 256
 550 937 565 991 541 991 c 256
 520 991 511 956 495 887 c 258
 393 448 l 258
 379 388 377 369 397 369 c 256
 419 369 435 417 468 562 c 256
 480 612 497 634 541 634 c 258
 544 634 l 258
 588 634 597 612 585 562 c 256
803 668 m 0
 714 284 609 -28 295 -28 c 0
 -19 -28 20 284 109 668 c 0
 198 1052 302 1366 616 1366 c 0
 930 1366 892 1052 803 668 c 0
757 668 m 0
 835 1006 894 1320 606 1320 c 0
 318 1320 233 1006 155 668 c 0
 77 330 17 18 305 18 c 0
 593 18 679 330 757 668 c 0
EndSplineSet
EndChar

StartChar: registered
Encoding: 174 174 188
Width: 844
Flags: HMW
LayerCount: 2
Fore
SplineSet
510 995 m 261
 440 692 l 261
 452 692 l 262
 472 692 479 711 485 738 c 262
 534 949 l 262
 540 973 542 995 522 995 c 262
 510 995 l 261
552 1100 m 262
 692 1100 704 1038 683 945 c 262
 647 787 l 262
 623 685 545 644 447 644 c 261
 451 662 l 261
 558 662 618 654 592 540 c 262
 553 367 l 262
 549 351 550 338 551 328 c 260
 552 320 553 307 549 291 c 262
 549 289 l 262
 543 263 523 251 479 251 c 262
 470 251 l 262
 424 251 396 261 393 302 c 260
 392 318 392 332 398 358 c 262
 449 582 l 262
 455 606 448 617 431 617 c 262
 422 617 l 261
 361 353 l 6
 341 267 310 251 266 251 c 6
 263 251 l 6
 219 251 194 267 214 353 c 6
 365 1007 l 6
 385 1093 394 1100 480 1100 c 6
 552 1100 l 262
803 668 m 0
 714 284 609 -28 295 -28 c 0
 -19 -28 20 284 109 668 c 0
 198 1052 302 1366 616 1366 c 0
 930 1366 892 1052 803 668 c 0
757 668 m 0
 835 1006 894 1320 606 1320 c 0
 318 1320 233 1006 155 668 c 0
 77 330 17 18 305 18 c 0
 593 18 679 330 757 668 c 0
EndSplineSet
EndChar

StartChar: dotlessi
Encoding: 305 305 279
Width: 295
VWidth: 960
Flags: HMW
AnchorPoint: "top" 272.411 1050 basechar 0
LayerCount: 2
Fore
SplineSet
357 895 m 6
 186 155 l 6
 153 11 101 -15 27 -15 c 6
 22 -15 l 6
 -52 -15 -92 11 -59 155 c 6
 112 895 l 6
 145 1039 197 1065 271 1065 c 6
 276 1065 l 6
 350 1065 390 1039 357 895 c 6
EndSplineSet
EndChar

StartChar: uni0237
Encoding: 567 567 291
Width: 295
VWidth: 960
Flags: HMW
AnchorPoint: "top" 271 1050 basechar 0
LayerCount: 2
Fore
SplineSet
136 -59 m 2
 86.8945479307 -270.975571376 -1 -371 -160 -371 c 0
 -399 -371 -350.181986548 -199.084105011 -341 -157 c 0
 -329 -102 -287 -85 -250 -85 c 2
 -245 -85 l 2
 -198 -85 -170.472390652 -109.729177327 -182 -147 c 0
 -193.183549085 -183.158414309 -194 -204 -175 -204 c 0
 -147 -204 -128.686923047 -145.072450269 -109 -60 c 2
 112 895 l 2
 145 1039 197 1065 271 1065 c 2
 276 1065 l 2
 350 1065 390 1039 357 895 c 2
 136 -59 l 2
EndSplineSet
EndChar

StartChar: kgreenlandic
Encoding: 312 312 298
Width: 595
VWidth: 960
Flags: HMW
LayerCount: 2
Fore
SplineSet
271 1065 m 6
 276 1065 l 6
 350 1065 390 1039 357 895 c 6
 186 155 l 2
 153 11 101 -15 27 -15 c 2
 22 -15 l 2
 -52 -15 -92 11 -59 155 c 2
 112 895 l 6
 145 1039 197 1065 271 1065 c 6
162 422 m 1
 443 895 l 2
 524 1031 550 1065 616 1065 c 2
 623 1065 l 2
 687 1065 745 1030 649 895 c 2
 194 256 l 1
 162 422 l 1
265 586 m 257
 412 616 l 257
 496 155 l 2
 512 65 471 -15 367 -15 c 2
 362 -15 l 2
 278 -15 238 15 245 155 c 2
 265 586 l 257
EndSplineSet
EndChar

StartChar: grave
Encoding: 96 96 339
Width: 386
VWidth: 0
Flags: HMW
LayerCount: 2
Fore
SplineSet
441 1054 m 2
 437 1054 l 2
 393 1054 354 1121 316 1204 c 2
 304 1230 l 2
 255 1339 333 1430 411 1430 c 2
 416 1430 l 2
 494 1430 519 1390 510 1290 c 2
 502 1214 l 2
 492 1105 469 1054 441 1054 c 2
EndSplineSet
EndChar

StartChar: longs
Encoding: 383 383 352
Width: 335
VWidth: 960
Flags: HMW
LayerCount: 2
Fore
SplineSet
225 1319 m 262
 252 1438 373 1466 527 1443 c 260
 565 1437 579 1424 569 1380 c 262
 567 1375 l 262
 557 1332 535 1320 494 1308 c 260
 475 1302 461 1292 453 1259 c 262
 100 -270 l 262
 85 -334 29 -375 -35 -375 c 262
 -57 -375 l 262
 -121 -375 -157 -334 -142 -270 c 262
 225 1319 l 262
EndSplineSet
EndChar

StartChar: uni0259
Encoding: 601 601 359
Width: 570
VWidth: 960
Flags: HMW
LayerCount: 2
Fore
SplineSet
70 736 m 0
 97 854 147 1068 409 1068 c 260
 593 1068 656 981 609 776 c 258
 493 273 l 258
 447 73 346 -17 158 -17 c 256
 -26 -17 -80 71 -35 283 c 256
 -26 328 -18 373 -8 415 c 0
 25 557 37 569 181 569 c 2
 423 569 l 257
 404 485 l 257
 250 485 l 257
 173 144 166 123 190 123 c 256
 208 123 218 149 232 209 c 258
 378 841 l 258
 395 916 393 928 377 928 c 256
 354 928 335 841 313 760 c 0
 288 669 243 617 162 617 c 2
 156 617 l 2
 82 617 55 673 70 736 c 0
EndSplineSet
EndChar

StartChar: logicalnot
Encoding: 172 172 373
Width: 575
VWidth: 2048
Flags: HMW
LayerCount: 2
Fore
SplineSet
48 619 m 2
 52 636 l 2
 64 690 111 716 165 716 c 2
 455 716 l 2
 559 716 579 690 555 586 c 2
 542 529 l 2
 530 475 494 434 440 434 c 2
 405 434 l 2
 351 434 335 475 347 529 c 2
 349 539 l 1
 124 539 l 2
 70 539 36 565 48 619 c 2
EndSplineSet
EndChar

StartChar: acute
Encoding: 180 180 374
Width: 386
Flags: HMW
LayerCount: 2
Fore
SplineSet
191 1054 m 6
 163 1054 164 1105 204 1214 c 6
 233 1290 l 6
 270 1390 313 1430 391 1430 c 6
 396 1430 l 6
 474 1430 511 1339 412 1230 c 6
 388 1204 l 6
 312 1121 241 1054 197 1054 c 6
 191 1054 l 6
EndSplineSet
EndChar

StartChar: degree
Encoding: 176 176 376
Width: 490
VWidth: 2048
Flags: HMW
LayerCount: 2
Fore
SplineSet
180 1191 m 262
 184 1209 l 262
 214 1339 325 1417 449 1417 c 260
 573 1417 654 1339 624 1209 c 262
 620 1191 l 262
 590 1061 473 983 349 983 c 260
 225 983 150 1061 180 1191 c 262
357 1191 m 262
 349 1156 365 1143 389 1143 c 260
 413 1143 435 1156 443 1191 c 262
 447 1209 l 262
 455 1244 439 1257 415 1257 c 260
 391 1257 369 1244 361 1209 c 262
 357 1191 l 262
EndSplineSet
EndChar

StartChar: plusminus
Encoding: 177 177 377
Width: 575
Flags: HMW
LayerCount: 2
Fore
SplineSet
36 527 m 14
 36 544 l 22
 36 598 78 624 132 624 c 14
 446 624 l 22
 500 624 542 598 542 544 c 14
 542 527 l 22
 542 473 500 447 446 447 c 14
 132 447 l 22
 78 447 36 473 36 527 c 14
126 910 m 14
 126 927 l 22
 126 981 168 1007 222 1007 c 14
 536 1007 l 22
 590 1007 632 981 632 927 c 14
 632 910 l 22
 632 856 590 830 536 830 c 14
 222 830 l 22
 168 830 126 856 126 910 c 14
429 1157 m 14
 443 1157 l 22
 497 1157 513 1116 501 1062 c 14
 432 762 l 22
 420 708 384 667 330 667 c 14
 316 667 l 22
 262 667 246 708 258 762 c 14
 327 1062 l 22
 339 1116 375 1157 429 1157 c 14
EndSplineSet
EndChar

StartChar: ae
Encoding: 230 230 379
Width: 836
VWidth: 960
Flags: HMW
LayerCount: 2
Fore
SplineSet
202 330 m 0
 172 198 175 158 189 158 c 256
 206 158 215 186 226 234 c 257
 346 234 l 257
 322 132 243 -18 107 -18 c 256
 -18 -18 -105 28 -53 255 c 0
 1 491 88 566 233 627 c 256
 295 653 328 678 341 734 c 257
 327 584 l 257
 315 562 299 548 285 535 c 256
 255 507 232 460 202 330 c 0
219 204 m 265
 360 814 l 258
 374 874 383 907 366 907 c 256
 347 907 338 882 330 846 c 0
 301 723 259 676 186 676 c 2
 183 676 l 2
 109 676 88 723 117 846 c 0
 153 1002 240 1067 393 1067 c 256
 533 1067 567 975 518 761 c 258
 387 194 l 273
 219 204 l 265
764 294 m 4
 735 167 692 -18 430 -18 c 260
 246 -18 262 69 309 274 c 262
 425 777 l 262
 471 977 552 1067 710 1067 c 260
 897 1067 910 956 861 707 c 4
 848 642 845 629 844 625 c 4
 818 513 761 481 657 481 c 6
 415 481 l 261
 434 565 l 261
 588 565 l 261
 665 906 672 927 648 927 c 260
 630 927 620 901 606 841 c 262
 460 209 l 262
 443 134 445 122 461 122 c 260
 480 122 499 165 529 294 c 4
 555 406 593 433 676 433 c 6
 682 433 l 6
 766 433 790 407 764 294 c 4
EndSplineSet
EndChar

StartChar: paragraph
Encoding: 182 182 380
Width: 755
VWidth: 1920
Flags: HMW
LayerCount: 2
Fore
SplineSet
826 1235 m 1
 483 -250 l 2
 463 -337 425 -390 371 -390 c 2
 356 -390 l 2
 302 -390 288 -337 308 -250 c 2
 651 1235 l 1
 611 1235 l 1
 268 -250 l 2
 248 -337 210 -390 156 -390 c 2
 146 -390 l 2
 92 -390 78 -337 98 -250 c 2
 248 400 l 1
 243 400 l 2
 115 400 30 548 104 868 c 2
 119 932 l 2
 193 1252 346 1400 474 1400 c 2
 859 1400 l 2
 923 1400 946 1362 935 1315 c 2
 933 1310 l 2
 922 1263 875 1235 831 1235 c 2
 826 1235 l 1
EndSplineSet
EndChar

StartChar: guilsinglleft
Encoding: 8249 8249 381
Width: 630
Flags: HMW
LayerCount: 2
Fore
SplineSet
285 196 m 2
 141 349 l 2
 78 413 40 478 58 555 c 2
 60 565 l 2
 78 642 139 698 236 761 c 2
 446 894 l 2
 568 971 585 887 560 780 c 2
 555 760 l 2
 530 653 498 605 389 560 c 2
 377 555 l 257
 387 548 l 2
 460 493 481 437 456 330 c 2
 452 310 l 2
 427 203 360 116 285 196 c 2
EndSplineSet
EndChar

StartChar: guilsinglright
Encoding: 8250 8250 382
Width: 630
Flags: HW
LayerCount: 2
Fore
SplineSet
359 904 m 2
 503 751 l 2
 566 687 604 622 586 545 c 2
 584 535 l 2
 566 458 505 402 408 339 c 2
 198 206 l 2
 76 129 59 213 84 320 c 2
 88 340 l 2
 113 447 146 495 255 540 c 2
 267 545 l 257
 257 552 l 2
 184 607 163 663 188 770 c 2
 192 790 l 2
 217 897 284 984 359 904 c 2
EndSplineSet
EndChar

StartChar: mu
Encoding: 181 181 385
Width: 582
VWidth: 1920
Flags: HW
LayerCount: 2
Fore
SplineSet
362 935 m 258
 89 -245 l 258
 69 -333 13 -375 -61 -375 c 258
 -65 -375 l 258
 -139 -375 -175 -333 -155 -245 c 258
 118 935 l 258
 138 1023 194 1065 268 1065 c 258
 272 1065 l 258
 346 1065 382 1023 362 935 c 258
317 -16 m 2
 307 -16 l 2
 233 -16 199 10 232 154 c 2
 238 180 l 257
 236 194 l 257
 397 894 l 2
 430 1038 483 1064 557 1064 c 2
 562 1064 l 2
 636 1064 675 1038 642 894 c 2
 472 154 l 2
 439 10 391 -16 317 -16 c 2
256 172 m 257
 228 52 190 -18 146 -18 c 256
 92 -18 41 37 77 192 c 258
 239 894 l 2
 272 1038 235 1064 269 1064 c 2
 270 1064 l 2
 294 1064 385 1038 352 894 c 2
 196 218 l 258
 184 168 186 146 200 146 c 256
 218 146 233 183 257 288 c 257
 256 172 l 257
EndSplineSet
EndChar

StartChar: Eth
Encoding: 208 208 387
Width: 599
VWidth: 1920
Flags: HW
LayerCount: 2
Fore
SplineSet
-20.1748046875 704 m 14
 -20.1748046875 721 l 22
 -20.1748046875 775 21.8251953125 801 75.8251953125 801 c 14
 279.825195312 801 l 22
 333.825195312 801 375.825195312 775 375.825195312 721 c 14
 375.825195312 704 l 22
 375.825195312 650 333.825195312 624 279.825195312 624 c 14
 75.8251953125 624 l 22
 21.8251953125 624 -20.1748046875 650 -20.1748046875 704 c 14
EndSplineSet
Refer: 15 68 N 1 0 0 1 0 0 2
EndChar

StartChar: Dcroat
Encoding: 272 272 388
Width: 599
VWidth: 1920
Flags: HW
LayerCount: 2
Fore
SplineSet
-30.1748046875 704 m 14
 -30.1748046875 721 l 22
 -30.1748046875 775 11.8251953125 801 65.8251953125 801 c 14
 269.825195312 801 l 22
 323.825195312 801 365.825195312 775 365.825195312 721 c 14
 365.825195312 704 l 22
 365.825195312 650 323.825195312 624 269.825195312 624 c 14
 65.8251953125 624 l 22
 11.8251953125 624 -30.1748046875 650 -30.1748046875 704 c 14
EndSplineSet
Refer: 15 68 N 1 0 0 1 0 0 2
EndChar

StartChar: thorn
Encoding: 254 254 389
Width: 590
VWidth: 960
Flags: HW
LayerCount: 2
Fore
SplineSet
363 1465 m 2
 368 1465 l 2
 442 1465 482 1439 449 1295 c 2
 103 -205 l 2
 70 -349 16 -375 -57 -375 c 2
 -62 -375 l 2
 -136 -375 -175 -349 -142 -205 c 2
 204 1295 l 2
 237 1439 289 1465 363 1465 c 2
305 801 m 257
 338 946 412 1067 516 1067 c 256
 624 1067 680 997 641 827 c 258
 502 224 l 258
 463 54 374 -18 266 -18 c 256
 162 -18 144 103 177 248 c 257
 206 244 l 257
 193 189 188 152 212 152 c 256
 236 152 246 179 259 234 c 258
 394 817 l 258
 407 872 408 897 384 897 c 256
 360 897 349 862 336 807 c 257
 305 801 l 257
EndSplineSet
EndChar

StartChar: Thorn
Encoding: 222 222 390
Width: 575
VWidth: 960
Flags: HW
LayerCount: 2
Fore
SplineSet
426 1110 m 2
 600 1108 666 1032 624 851 c 2
 559 569 l 2
 516 384 416 310 272 310 c 2
 232 310 l 1
 196 155 l 6
 165 21 106 -15 42 -15 c 6
 27 -15 l 6
 -37 -15 -80 21 -49 155 c 6
 202 1245 l 6
 233 1379 293 1415 357 1415 c 6
 372 1415 l 6
 436 1415 478 1379 447 1245 c 6
 416 1110 l 1
 426 1110 l 2
260 435 m 1
 270 435 l 2
 308 435 324 459 334 504 c 2
 418 866 l 2
 428 911 424 935 386 935 c 2
 376 935 l 1
 260 435 l 1
EndSplineSet
EndChar

StartChar: divide
Encoding: 247 247 391
Width: 990
VWidth: 2048
Flags: HW
LayerCount: 2
Fore
SplineSet
25 689 m 10
 25 696 l 18
 25 744 55 756 109 756 c 10
 921 756 l 18
 975 756 1005 744 1005 696 c 10
 1005 689 l 18
 1005 641 975 629 921 629 c 10
 109 629 l 18
 55 629 25 641 25 689 c 10
EndSplineSet
Refer: 1 46 S 1 0 0 1 515 906 2
Refer: 1 46 N 1 0 0 1 315 119 2
EndChar

StartChar: multiply
Encoding: 215 215 392
Width: 650
VWidth: 1920
Flags: HW
LayerCount: 2
Fore
SplineSet
509 540 m 14
 498 529 l 22
 470 501 409 511 381 539 c 14
 152 768 l 22
 124 796 113 858 142 885 c 14
 153 896 l 22
 182 923 243 914 270 886 c 14
 499 657 l 22
 526 629 537 568 509 540 c 14
153 529 m 14
 142 540 l 22
 113 567 124 629 152 657 c 14
 381 886 l 22
 409 914 470 924 498 896 c 14
 509 885 l 22
 537 857 526 796 499 768 c 14
 270 539 l 22
 243 511 182 502 153 529 c 14
EndSplineSet
EndChar

StartChar: Oslash
Encoding: 216 216 393
Width: 603
VWidth: 1920
Flags: HW
LayerCount: 2
Fore
SplineSet
622.34375 1478 m 6
 648.34375 1471 l 6
 650.34375 1470 649.34375 1467 648.34375 1464 c 6
 72.34375 -76 l 6
 71.34375 -79 68.34375 -79 65.34375 -78 c 6
 40.34375 -71 l 6
 37.34375 -70 38.34375 -67 39.34375 -64 c 6
 615.34375 1476 l 6
 616.34375 1479 618.34375 1479 622.34375 1478 c 6
EndSplineSet
Refer: 26 79 N 1 0 0 1 0 0 2
EndChar

StartChar: oslash
Encoding: 248 248 394
Width: 561
VWidth: 1920
Flags: HW
LayerCount: 2
Fore
SplineSet
542.806640625 1198 m 6
 567.806640625 1191 l 6
 569.806640625 1190 568.806640625 1187 567.806640625 1184 c 6
 56.806640625 -76 l 6
 55.806640625 -79 52.806640625 -79 49.806640625 -78 c 6
 24.806640625 -71 l 6
 21.806640625 -70 22.806640625 -67 23.806640625 -64 c 6
 534.806640625 1196 l 6
 535.806640625 1199 538.806640625 1199 542.806640625 1198 c 6
EndSplineSet
Refer: 52 111 N 1 0 0 1 0 0 2
EndChar

StartChar: germandbls
Encoding: 223 223 396
Width: 685
VWidth: 1920
Flags: HW
LayerCount: 2
Fore
SplineSet
196 1218 m 2
 236 1390 368 1467 538 1467 c 0
 730 1467 760 1355 738 1261 c 0
 702 1103 666 1061 636 931 c 0
 599 771 705 641 647 391 c 0
 579 95 423 -17 308 -17 c 0
 204 -17 192 3 207 67 c 2
 209 73 l 2
 221 127 239 137 288 157 c 0
 316 169 363 245 401 409 c 0
 448 611 348 698 390 878 c 0
 426 1034 458 1113 480 1208 c 0
 496 1278 497 1304 481 1304 c 0
 465 1304 453 1279 433 1193 c 2
 194 155 l 2
 163 21 114 -15 40 -15 c 2
 28 -15 l 2
 -46 -15 -80 21 -49 155 c 2
 196 1218 l 2
EndSplineSet
EndChar

StartChar: eth
Encoding: 240 240 397
Width: 593
VWidth: 1920
Flags: HW
LayerCount: 2
Fore
SplineSet
375 1235 m 10
 365 1277 l 18
 364 1280 365 1282 368 1284 c 10
 710 1494 l 18
 713 1496 715 1495 716 1492 c 10
 726 1450 l 18
 727 1447 724 1445 721 1443 c 10
 381 1233 l 18
 378 1231 376 1232 375 1235 c 10
387 917 m 256
 362 917 349 879 329 793 c 258
 203 249 l 258
 183 164 177 133 201 133 c 256
 235 133 245 172 260 237 c 258
 407 874 l 258
 484 1207 455 1393 381 1450 c 0
 351 1473 360 1512 394 1550 c 10
 409 1566 l 18
 456 1617 509 1603 539 1579 c 0
 666 1480 743 1279 655 896 c 258
 510 269 l 258
 472 104 376 -17 162 -17 c 256
 -49 -17 -79 90 -47 229 c 258
 87 808 l 258
 119 945 173 1067 321 1067 c 256
 425 1067 445 953 423 856 c 257
 381 761 l 257
 396 826 l 258
 413 898 412 917 387 917 c 256
EndSplineSet
EndChar

StartChar: dcroat
Encoding: 273 273 398
Width: 570
VWidth: 1920
Flags: HW
LayerCount: 2
Fore
SplineSet
380.383789062 1214 m 14
 380.383789062 1231 l 22
 380.383789062 1285 422.383789062 1311 476.383789062 1311 c 14
 745.383789062 1311 l 22
 799.383789062 1311 841.383789062 1285 841.383789062 1231 c 14
 841.383789062 1214 l 22
 841.383789062 1160 799.383789062 1134 745.383789062 1134 c 14
 476.383789062 1134 l 22
 422.383789062 1134 380.383789062 1160 380.383789062 1214 c 14
EndSplineSet
Refer: 41 100 N 1 0 0 1 0 0 2
EndChar

StartChar: Hbar
Encoding: 294 294 399
Width: 589
VWidth: 1920
Flags: HW
LayerCount: 2
Fore
SplineSet
102.5625 1104 m 14
 102.5625 1121 l 22
 102.5625 1175 144.5625 1201 198.5625 1201 c 14
 706.5625 1201 l 22
 760.5625 1201 802.5625 1175 802.5625 1121 c 14
 802.5625 1104 l 22
 802.5625 1050 760.5625 1024 706.5625 1024 c 14
 198.5625 1024 l 22
 144.5625 1024 102.5625 1050 102.5625 1104 c 14
EndSplineSet
Refer: 19 72 N 1 0 0 1 0 0 2
EndChar

StartChar: hbar
Encoding: 295 295 400
Width: 561
VWidth: 1920
Flags: HW
LayerCount: 2
Fore
SplineSet
82.9033203125 1214 m 14
 82.9033203125 1231 l 22
 82.9033203125 1285 124.903320312 1311 178.903320312 1311 c 14
 447.903320312 1311 l 22
 501.903320312 1311 543.903320312 1285 543.903320312 1231 c 14
 543.903320312 1214 l 22
 543.903320312 1160 501.903320312 1134 447.903320312 1134 c 14
 178.903320312 1134 l 22
 124.903320312 1134 82.9033203125 1160 82.9033203125 1214 c 14
EndSplineSet
Refer: 45 104 N 1 0 0 1 0 0 2
EndChar

StartChar: Lslash
Encoding: 321 321 405
Width: 455
VWidth: 1920
Flags: HW
LayerCount: 2
Fore
SplineSet
488 1024 m 6
 497 998 l 6
 498 995 497 993 494 991 c 6
 29 754 l 6
 26 752 24 753 23 756 c 6
 14 782 l 6
 13 785 14 787 17 789 c 6
 482 1026 l 6
 485 1028 487 1027 488 1024 c 6
EndSplineSet
Refer: 23 76 N 1 0 0 1 0 0 2
EndChar

StartChar: lslash
Encoding: 322 322 406
Width: 280
VWidth: 1920
Flags: HW
LayerCount: 2
Fore
SplineSet
468 1024 m 6
 477 998 l 6
 478 995 477 993 474 991 c 6
 9 754 l 6
 6 752 4 753 3 756 c 6
 -6 782 l 6
 -7 785 -6 787 -3 789 c 6
 462 1026 l 6
 465 1028 467 1027 468 1024 c 6
EndSplineSet
Refer: 49 108 N 1 0 0 1 0 0 2
EndChar

StartChar: eng
Encoding: 331 331 408
Width: 580
VWidth: 960
Flags: HW
LayerCount: 2
Fore
SplineSet
266 1065 m 2
 276 1065 l 2
 350 1065 385 1039 352 895 c 2
 346 869 l 257
 347 855 l 257
 186 155 l 2
 153 11 101 -15 27 -15 c 2
 22 -15 l 2
 -52 -15 -92 11 -59 155 c 2
 112 895 l 2
 145 1039 192 1065 266 1065 c 2
397 -179 m 6
 356 -358 225 -361 141 -361 c 0
 47 -361 22 -344 34 -290 c 2
 36 -280 l 2
 48 -227 70 -216 103 -216 c 0
 118 -216 145 -208 160 -144 c 2
 385 831 l 2
 397 881 397 903 383 903 c 0
 365 903 350 866 326 761 c 1
 327 877 l 1
 355 997 443 1067 537 1067 c 0
 641 1067 672 1012 636 857 c 2
 397 -179 l 6
EndSplineSet
EndChar

StartChar: Eng
Encoding: 330 330 409
Width: 590
VWidth: 960
Flags: HW
LayerCount: 2
Fore
SplineSet
677 1415 m 2
 682 1415 l 2
 746 1415 765 1389 739 1275 c 6
 404 -179 l 6
 363 -358 232 -361 148 -361 c 0
 54 -361 29 -344 41 -290 c 2
 43 -280 l 2
 55 -227 77 -216 110 -216 c 0
 125 -216 152 -208 167 -144 c 2
 262 271 l 1
 255 715 l 1
 119 125 l 2
 93 11 51 -15 -3 -15 c 2
 -8 -15 l 2
 -62 -15 -92 11 -66 125 c 2
 202 1285 l 2
 226 1389 268 1415 342 1415 c 2
 347 1415 l 2
 421 1415 455 1376 451 1275 c 2
 429 734 l 1
 554 1275 l 2
 580 1389 613 1415 677 1415 c 2
EndSplineSet
EndChar

StartChar: oe
Encoding: 339 339 410
Width: 864
VWidth: 960
Flags: HW
LayerCount: 2
Fore
SplineSet
-37 274 m 258
 79 777 l 258
 124 972 228 1067 366 1067 c 256
 544 1067 594 972 549 777 c 258
 433 274 l 258
 388 79 294 -18 116 -18 c 256
 -22 -18 -82 79 -37 274 c 258
196 209 m 258
 182 149 180 122 198 122 c 256
 216 122 227 149 241 209 c 258
 387 841 l 258
 401 901 402 927 384 927 c 256
 366 927 356 901 342 841 c 258
 196 209 l 258
792 294 m 4
 763 167 720 -18 458 -18 c 260
 274 -18 290 69 337 274 c 262
 453 777 l 262
 499 977 580 1067 738 1067 c 260
 925 1067 938 956 889 707 c 4
 876 642 873 629 872 625 c 4
 846 513 789 481 685 481 c 6
 443 481 l 261
 462 565 l 261
 616 565 l 261
 693 906 700 927 676 927 c 260
 658 927 648 901 634 841 c 262
 488 209 l 262
 471 134 473 122 489 122 c 260
 508 122 527 165 557 294 c 4
 583 406 621 433 704 433 c 6
 710 433 l 6
 794 433 818 407 792 294 c 4
EndSplineSet
EndChar

StartChar: OE
Encoding: 338 338 411
Width: 745
VWidth: 1920
Flags: HW
LayerCount: 2
Fore
SplineSet
540 1400 m 262
 783 1400 l 262
 787 1400 788 1399 787 1395 c 262
 466 5 l 262
 465 1 464 0 460 0 c 262
 217 0 l 262
 10 0 -69 115 -1 408 c 262
 134 991 l 262
 202 1284 313 1400 540 1400 c 262
480 1225 m 262
 448 1225 427 1180 385 996 c 262
 248 404 l 262
 206 220 205 175 237 175 c 262
 260 175 l 261
 503 1225 l 261
 480 1225 l 262
EndSplineSet
Refer: 16 69 N 1 0 0 1 305 0 2
EndChar

StartChar: Tbar
Encoding: 358 358 413
Width: 534
VWidth: 1920
Flags: HW
LayerCount: 2
Fore
SplineSet
87.5 593.75 m 14
 87.5 701.25 l 22
 87.5 704.75 89 706.25 92.5 706.25 c 14
 527.5 706.25 l 22
 531 706.25 532.5 704.75 532.5 701.25 c 14
 532.5 593.75 l 22
 532.5 590.25 531 588.75 527.5 588.75 c 14
 92.5 588.75 l 22
 89 588.75 87.5 590.25 87.5 593.75 c 14
EndSplineSet
Refer: 31 84 N 1 0 0 1 0 0 2
EndChar

StartChar: tbar
Encoding: 359 359 414
Width: 346
VWidth: 1920
Flags: HW
LayerCount: 2
Fore
SplineSet
-9 523.75 m 14
 -9 631.25 l 22
 -9 634.75 -7.5 636.25 -4 636.25 c 14
 336 636.25 l 22
 339.5 636.25 341 634.75 341 631.25 c 14
 341 523.75 l 22
 341 520.25 339.5 518.75 336 518.75 c 14
 -4 518.75 l 22
 -7.5 518.75 -9 520.25 -9 523.75 c 14
EndSplineSet
Refer: 57 116 N 1 0 0 1 0 0 2
EndChar

StartChar: florin
Encoding: 402 402 415
Width: 295
VWidth: 960
Flags: HW
LayerCount: 2
Fore
SplineSet
430 930 m 2
 95 930 l 2
 91 930 90 931 91 935 c 2
 116 1045 l 2
 117 1049 118 1050 122 1050 c 2
 457 1050 l 2
 461 1050 462 1049 461 1045 c 2
 436 935 l 2
 435 931 434 930 430 930 c 2
182 1199 m 2
 231 1411 319 1511 478 1511 c 0
 717 1511 678 1340 643 1247 c 0
 641 1242 638 1240 631 1240 c 2
 495 1240 l 2
 488 1240 486 1243 487 1247 c 0
 501 1291 523 1344 493 1344 c 0
 465 1344 447 1285 427 1200 c 2
 376 980 l 2
 374 973 371 970 364 970 c 2
 139 970 l 2
 132 970 129 973 131 980 c 2
 182 1199 l 2
136 -59 m 6
 87 -271 -1 -371 -160 -371 c 4
 -399 -371 -360 -200 -325 -107 c 4
 -323 -102 -320 -100 -313 -100 c 6
 -177 -100 l 6
 -170 -100 -168 -103 -169 -107 c 4
 -183 -151 -205 -204 -175 -204 c 4
 -147 -204 -129 -145 -109 -60 c 6
 140 1020 l 6
 142 1027 146 1030 153 1030 c 6
 378 1030 l 6
 385 1030 387 1027 385 1020 c 6
 136 -59 l 6
EndSplineSet
EndChar

StartChar: uni0394
Encoding: 916 916 430
Width: 562
VWidth: 960
Flags: HW
LayerCount: 2
Fore
SplineSet
85 0 m 2
 13 0 -7.21484375 35.9931640625 4 140 c 2
 127 1275 l 2
 135.980240977 1358.24748935 174 1400 266 1400 c 2
 316 1400 l 2
 409 1400 446.043578059 1368.23488413 455 1275 c 2
 564 140 l 2
 573.573242188 39.916015625 528 0 453 0 c 2
 85 0 l 2
199 125 m 1
 312 125 l 1
 270 1089 l 1
 199 125 l 1
EndSplineSet
EndChar

StartChar: uni03A9
Encoding: 937 937 431
Width: 636
VWidth: 1920
Flags: HW
LayerCount: 2
Fore
SplineSet
344 195 m 0
 365.676757812 231.580078125 366 289 366 379 c 2
 366 1111 l 2
 366 1195 365 1247 318 1247 c 0
 271 1247 270 1195 270 1111 c 2
 270 379 l 2
 270 289 270.208984375 234.50390625 293 195 c 0
 308 169 308 151 308 115 c 2
 308 85 l 2
 308 21 287 -1.02870331128e-14 203 0 c 2
 128 0 l 2
 44 0 8 21 8 85 c 2
 8 92 l 2
 8 156 44 177 128 177 c 2
 200 177 l 1
 99 215 20 322 20 424 c 2
 20 1141 l 2
 20 1334 102 1417 318 1417 c 0
 534 1417 616 1334 616 1141 c 2
 616 424 l 2
 616 322 534 215 434 177 c 1
 508 177 l 2
 592 177 628 156 628 92 c 2
 628 85 l 2
 628 21 592 -1.02870331128e-14 508 0 c 2
 433 0 l 2
 349 0 328 21 328 85 c 2
 328 115 l 2
 328 151 328 168 344 195 c 0
EndSplineSet
EndChar

StartChar: pi
Encoding: 960 960 432
Width: 760
VWidth: 1920
Flags: HW
LayerCount: 2
Fore
SplineSet
339 1020 m 2
 339 155 l 2
 339 41 303 -15 219 -15 c 2
 214 -15 l 2
 130 -15 94 41 94 155 c 2
 94 1020 l 2
 94 1024 95 1025 99 1025 c 2
 334 1025 l 2
 338 1025 339 1024 339 1020 c 2
  Spiro
    339 1020 [
    339 155 ]
    326.581 60.3348 o
    287.391 3.7032 o
    219 -15 [
    214 -15 ]
    145.609 3.7032 o
    106.419 60.3348 o
    94 155 [
    94 1020 ]
    94.4065 1023.07 o
    95.9281 1024.59 o
    99 1025 [
    334 1025 ]
    337.072 1024.59 o
    338.593 1023.07 o
    0 0 z
  EndSpiro
765 85 m 2
 765 80 l 2
 765 16 738.999888621 -8.02984991508 645 -8 c 0
 510.996275465 -7.95744676024 412 22 412 176 c 258
 412 975 l 2
 412 979 414 980 418 980 c 2
 650 980 l 2
 654 980 655 979 655 975 c 2
 655 211 l 258
 655 157 695.219766542 159.461205047 716 161 c 0
 748.924998753 163.438125732 765 148 765 85 c 2
  Spiro
    765 85 [
    765 80 ]
    754.8 28.7732 o
    717.835 0.561558 o
    645 -8 o
    525.139 5.46997 o
    442.57 59.9431 o
    412 176 [
    412 975 ]
    412.665 978.072 o
    414.669 979.593 o
    418 980 [
    650 980 ]
    653.072 979.593 o
    654.593 978.072 o
    655 975 [
    655 211 ]
    666.177 173.718 o
    690.977 161.275 o
    716 161 o
    743.315 156.393 o
    759.624 133.211 o
    0 0 z
  EndSpiro
-5 958 m 10
 -5 965 l 18
 -5 1029 41 1050 135 1050 c 10
 630 1050 l 18
 714 1050 760 1029 760 965 c 10
 760 958 l 18
 760 894 714 873 630 873 c 10
 135 873 l 18
 41 873 -5 894 -5 958 c 10
  Spiro
    -5 958 [
    -5 965 ]
    10.3765 1015.44 o
    56.9882 1042.2 o
    135 1050 [
    630 1050 ]
    700.979 1042.2 o
    744.993 1015.44 o
    760 965 [
    760 958 ]
    744.993 907.556 o
    700.979 880.798 o
    630 873 [
    135 873 ]
    56.9882 880.798 o
    10.3765 907.556 o
    0 0 z
  EndSpiro
EndSplineSet
EndChar

StartChar: minute
Encoding: 8242 8242 433
Width: 280
VWidth: 1920
Flags: HW
LayerCount: 2
Fore
SplineSet
164 910 m 6
 158 910 l 6
 130 910 132 964 152 1040 c 6
 220 1310 l 6
 247 1417 312 1450 366 1450 c 6
 376 1450 l 6
 454 1450 468 1362 406 1260 c 6
 273 1040 l 6
 231 970 192 910 164 910 c 6
EndSplineSet
EndChar

StartChar: Euro
Encoding: 8364 8364 435
Width: 560
VWidth: 1920
Flags: HW
LayerCount: 2
Fore
SplineSet
-35 604 m 14
 -35 606 l 22
 -35 650 -18 661 56 661 c 14
 336 661 l 22
 410 661 426 650 426 606 c 14
 426 604 l 22
 426 560 410 549 336 549 c 14
 56 549 l 22
 -18 549 -35 560 -35 604 c 14
9 779 m 10
 9 781 l 18
 9 825 26 836 100 836 c 10
 380 836 l 18
 454 836 470 825 470 781 c 10
 470 779 l 18
 470 735 454 724 380 724 c 10
 100 724 l 18
 26 724 9 735 9 779 c 10
504 333 m 256
 438 93 362 -18 148 -18 c 256
 -56 -18 -69 109 -14 349 c 258
 146 1042 l 258
 199 1272 275 1418 489 1418 c 256
 718 1418 712 1285 675 1126 c 256
 653 1032 616 1007 562 1007 c 258
 548 1007 l 258
 494 1007 473 1052 490 1126 c 256
 502 1179 505 1218 473 1218 c 256
 438 1218 423 1161 396 1046 c 258
 227 314 l 258
 204 214 201 182 234 182 c 256
 271 182 286 222 312 333 c 256
 338 447 375 473 439 473 c 258
 444 473 l 258
 508 473 533 437 504 333 c 256
EndSplineSet
EndChar

StartChar: uni2116
Encoding: 8470 8470 436
Width: 974
VWidth: 1920
Flags: HW
LayerCount: 2
Fore
SplineSet
496 5 m 10
 523 122 l 18
 524 126 526 127 530 127 c 10
 857 127 l 18
 861 127 863 126 862 122 c 10
 835 5 l 18
 834 1 832 0 828 0 c 10
 501 0 l 18
 497 0 495 1 496 5 c 10
EndSplineSet
Refer: 132 8304 S 1 0 0 1 540 -295 2
Refer: 25 78 N 1 0 0 1 0 0 2
EndChar

StartChar: trademark
Encoding: 8482 8482 437
Width: 834
VWidth: 1920
Flags: HW
LayerCount: 2
Fore
SplineSet
279 1400 m 262
 474 1400 l 262
 527 1400 544 1381 537 1349 c 262
 537 1346 l 262
 530 1314 503 1295 450 1295 c 262
 426 1295 l 261
 272 629 l 262
 260 576 226 551 182 551 c 262
 179 551 l 262
 135 551 113 576 125 629 c 262
 279 1295 l 261
 255 1295 l 262
 202 1295 185 1314 192 1346 c 262
 192 1349 l 262
 199 1381 226 1400 279 1400 c 262
637 1229 m 257
 504 653 l 2
 484 567 467 551 429 551 c 2
 426 551 l 2
 388 551 379 567 399 653 c 2
 550 1307 l 2
 570 1393 591 1409 665 1409 c 2
 667 1409 l 2
 741 1409 758 1393 746 1307 c 2
 694 946 l 257
 813 1307 l 2
 841 1393 862 1409 936 1409 c 2
 939 1409 l 2
 1013 1409 1026 1393 1006 1307 c 2
 855 653 l 2
 835 567 806 551 762 551 c 2
 759 551 l 2
 715 551 694 567 714 653 c 2
 847 1229 l 257
 659 653 l 2
 629 561 612 551 586 551 c 2
 580 551 l 2
 554 551 543 561 556 653 c 2
 637 1229 l 257
EndSplineSet
EndChar

StartChar: partialdiff
Encoding: 8706 8706 438
Width: 577
VWidth: 1920
Flags: HW
LayerCount: 2
Fore
SplineSet
334 732 m 256
 319 732 312 716 302 674 c 258
 195 214 l 258
 186 174 186 158 206 158 c 256
 220 158 230 176 242 226 c 258
 372 789 l 258
 460 1172 439 1250 390 1315 c 4
 344 1376 330 1402 362 1446 c 2
 366 1452 l 2
 398 1496 472 1514 525 1470 c 0
 643 1373 712 1210 606 752 c 258
 494 268 l 258
 456 103 390 -18 162 -18 c 256
 -34 -18 -89 44 -47 228 c 258
 44 624 l 258
 86 806 161 882 289 882 c 256
 387 882 408 818 386 721 c 257
 345 671 l 257
 347 681 l 258
 355 717 349 732 334 732 c 256
EndSplineSet
EndChar

StartChar: summation
Encoding: 8721 8721 439
Width: 564
VWidth: 1920
Flags: HW
LayerCount: 2
Fore
SplineSet
444 362 m 14
 188 -185 l 1
 296 -185 l 18
 380 -185 409 -216 397 -270 c 10
 396 -275 l 18
 384 -329 340 -360 256 -360 c 10
 -14 -360 l 18
 -118 -360 -144 -315 -107 -235 c 10
 246 520 l 1
 241 1245 l 18
 240 1330 288 1400 392 1400 c 10
 662 1400 l 18
 746 1400 775 1369 763 1315 c 10
 761 1310 l 18
 749 1256 706 1225 622 1225 c 10
 514 1225 l 1
 517 678 l 22
 518 576 492 464 444 362 c 14
EndSplineSet
EndChar

StartChar: minus
Encoding: 8722 8722 440
Width: 584
Flags: HW
LayerCount: 2
Fore
SplineSet
50 494 m 10
 50 511 l 18
 50 565 92 591 146 591 c 10
 438 591 l 18
 492 591 534 565 534 511 c 10
 534 494 l 18
 534 440 492 414 438 414 c 10
 146 414 l 18
 92 414 50 440 50 494 c 10
EndSplineSet
EndChar

StartChar: integral
Encoding: 8747 8747 441
Width: 335
VWidth: 960
Flags: HW
LayerCount: 2
Fore
SplineSet
162 2 m 2
 80 -355 -65 -382 -185 -346 c 0
 -231 -332 -261 -307 -246 -240 c 2
 -244 -230 l 2
 -229 -163 -201 -133 -162 -135 c 0
 -142 -137 -107 -115 -78 12 c 2
 194 1188 l 2
 249 1425 377 1481 525 1435 c 4
 561 1424 574 1407 559 1340 c 6
 557 1330 l 6
 542 1263 519 1250 475 1226 c 4
 454 1215 437 1193 422 1128 c 2
 162 2 l 2
EndSplineSet
EndChar

StartChar: radical
Encoding: 8730 8730 443
Width: 611
VWidth: 1920
Flags: HMW
LayerCount: 2
Fore
SplineSet
243 1050 m 2
 307 1050 332 1030 329 920 c 2
 318 598 l 1
 604 1430 l 2
 640 1532 684 1620 762 1620 c 2
 764 1620 l 2
 842 1620 847 1527 809 1430 c 2
 263 47 l 2
 228 -42 182 -68 177 7 c 2
 138 700 l 1
 132 700 l 2
 78 700 59 753 84 860 c 2
 88 880 l 2
 113 987 173 1050 237 1050 c 2
 243 1050 l 2
EndSplineSet
EndChar

StartChar: infinity
Encoding: 8734 8734 444
Width: 716
Flags: HMW
LayerCount: 2
Fore
SplineSet
193 492 m 4
 88 492 39 577 61 674 c 0
 83 771 171 854 276 854 c 4
 383 854 403 804 413 754 c 1
 447 804 483 854 595 854 c 4
 700 854 749 771 727 674 c 0
 705 577 617 492 512 492 c 4
 400 492 375 537 376 592 c 1
 340 537 300 492 193 492 c 4
248 620 m 0
 282 620 316 637 352 674 c 1
 335 710 307 727 273 727 c 0
 233 727 208 709 200 674 c 0
 192 640 208 620 248 620 c 0
515 620 m 4
 555 620 580 640 588 674 c 4
 596 709 580 727 540 727 c 4
 511 727 470 710 437 674 c 1
 444 638 486 620 515 620 c 4
EndSplineSet
EndChar

StartChar: product
Encoding: 8719 8719 445
Width: 600
VWidth: 1920
Flags: HW
LayerCount: 2
Fore
SplineSet
638 1399 m 2
 722 1399 757 1353 738 1269 c 2
 469 105 l 6
 451 27 415 -15 337 -15 c 6
 302 -15 l 6
 224 -15 206 27 224 105 c 6
 483 1225 l 257
 443 1225 l 257
 184 105 l 6
 166 27 130 -15 52 -15 c 6
 17 -15 l 6
 -61 -15 -79 27 -61 105 c 6
 208 1269 l 18
 228 1354 284 1399 368 1399 c 10
 638 1399 l 2
EndSplineSet
EndChar

StartChar: uni2219
Encoding: 8729 8729 446
Width: 274
Flags: HW
LayerCount: 2
Fore
SplineSet
58 675 m 4
 58 741 104 788 170 788 c 4
 236 788 282 741 282 675 c 4
 282 609 240 562 174 562 c 4
 108 562 58 609 58 675 c 4
EndSplineSet
EndChar

StartChar: approxequal
Encoding: 8776 8776 447
Width: 1180
VWidth: 1920
Flags: HW
LayerCount: 2
Fore
SplineSet
536 562 m 260
 510 562 490 549 478 534 c 4
 460 512 447 494 409 494 c 6
 404 494 l 6
 365 494 345 516 358 554 c 4
 378 614 451 695 551 695 c 260
 615 695 639 634 680 634 c 260
 716 634 733 653 744 667 c 4
 758 685 779 702 812 702 c 6
 817 702 l 6
 856 702 873 676 857 637 c 4
 833 579 775 501 665 501 c 260
 601 501 587 562 536 562 c 260
491 367 m 260
 465 367 445 354 433 339 c 4
 415 317 402 299 364 299 c 6
 359 299 l 6
 320 299 300 321 313 359 c 4
 333 419 406 500 506 500 c 260
 570 500 594 439 635 439 c 260
 671 439 688 458 699 472 c 4
 713 490 734 507 767 507 c 6
 772 507 l 6
 811 507 828 481 812 442 c 4
 788 384 730 306 620 306 c 260
 556 306 542 367 491 367 c 260
EndSplineSet
EndChar

StartChar: notequal
Encoding: 8800 8800 448
Width: 590
VWidth: 1920
Flags: HW
LayerCount: 2
Fore
SplineSet
509 780 m 2
 530 759 l 2
 532 757 532 754 530 752 c 2
 98 210 l 2
 96 208 93 208 91 210 c 2
 70 231 l 2
 68 233 68 236 70 238 c 2
 502 780 l 2
 504 782 507 782 509 780 c 2
EndSplineSet
Refer: 83 61 N 1 0 0 1 0 0 2
EndChar

StartChar: lessequal
Encoding: 8804 8804 449
Width: 500
VWidth: 1920
Flags: HW
LayerCount: 2
Fore
SplineSet
-15 395 m 14
 -15 398 l 22
 -15 452 26 473 80 473 c 14
 340 473 l 22
 394 473 435 452 435 398 c 14
 435 395 l 22
 435 341 394 320 340 320 c 14
 80 320 l 22
 26 320 -15 341 -15 395 c 14
EndSplineSet
Refer: 84 60 N 1 0 0 1 40 230 2
EndChar

StartChar: greaterequal
Encoding: 8805 8805 450
Width: 500
VWidth: 1920
Flags: HW
LayerCount: 2
Fore
SplineSet
-15 395 m 14
 -15 398 l 22
 -15 452 26 473 80 473 c 14
 340 473 l 22
 394 473 435 452 435 398 c 14
 435 395 l 22
 435 341 394 320 340 320 c 14
 80 320 l 22
 26 320 -15 341 -15 395 c 14
EndSplineSet
Refer: 85 62 N 1 0 0 1 -40 230 2
EndChar

StartChar: lozenge
Encoding: 9674 9674 451
Width: 581
Flags: HW
LayerCount: 2
Fore
SplineSet
149 220 m 6
 94 522 l 6
 75 627 111 796 181 902 c 6
 373 1192 l 6
 454 1315 508 1325 529 1192 c 6
 575 902 l 6
 591 798 551 625 488 522 c 6
 305 220 l 6
 230 96 170 105 149 220 c 6
278 454 m 5
 403 712 l 5
 397 970 l 5
 265 712 l 5
 278 454 l 5
EndSplineSet
EndChar

StartChar: uniF8EA
Encoding: 63722 63722 452
Width: 630
VWidth: 1920
Flags: HW
LayerCount: 2
Fore
SplineSet
280 1400 m 262
 433 1400 l 262
 465 1400 476 1390 471 1370 c 262
 471 1368 l 262
 466 1348 451 1338 419 1338 c 262
 387 1338 l 261
 353 1190 l 262
 346 1158 324 1143 298 1143 c 262
 297 1143 l 262
 271 1143 258 1158 265 1190 c 262
 299 1338 l 261
 266 1338 l 262
 234 1338 223 1348 228 1368 c 262
 228 1370 l 262
 233 1390 248 1400 280 1400 c 262
527 1298 m 261
 500 1182 l 262
 494 1156 478 1143 460 1143 c 262
 459 1143 l 262
 441 1143 431 1156 437 1182 c 262
 477 1356 l 262
 484 1386 506 1402 544 1402 c 262
 548 1402 l 262
 587 1402 601 1387 604 1357 c 262
 613 1272 l 261
 663 1354 l 262
 684 1388 706 1403 736 1403 c 262
 748 1403 l 262
 782 1403 793 1385 787 1357 c 262
 749 1190 l 262
 742 1160 722 1143 696 1143 c 262
 694 1143 l 262
 668 1143 657 1160 664 1190 c 262
 689 1298 l 261
 622 1186 l 262
 608 1162 596 1150 575 1150 c 262
 575 1150 l 262
 555 1150 547 1162 544 1186 c 262
 527 1298 l 261
EndSplineSet
EndChar

StartChar: uniF8E8
Encoding: 63720 63720 453
Width: 492
Flags: HW
LayerCount: 2
Fore
SplineSet
396 1275 m 261
 383 1219 l 261
 401 1219 l 262
 424 1219 432 1230 436 1246 c 262
 436 1247 l 262
 439 1261 437 1275 414 1275 c 262
 396 1275 l 261
447 1337 m 262
 520 1337 539 1304 529 1262 c 262
 528 1258 l 262
 518 1215 472 1189 413 1189 c 261
 415 1201 l 261
 479 1201 516 1195 506 1152 c 262
 505 1150 l 262
 503 1140 503 1133 504 1127 c 260
 505 1122 505 1114 503 1104 c 262
 503 1103 l 262
 499 1087 487 1080 461 1080 c 262
 455 1080 l 262
 427 1080 410 1085 409 1110 c 260
 409 1120 408 1129 412 1145 c 262
 414 1152 l 262
 417 1166 414 1173 395 1173 c 262
 373 1173 l 261
 363 1129 l 262
 356 1097 336 1080 308 1080 c 262
 306 1080 l 262
 278 1080 268 1097 275 1129 c 262
 310 1281 l 262
 319 1318 342 1337 379 1337 c 262
 447 1337 l 262
614 1207 m 4
 587 1092 472 999 357 999 c 4
 242 999 169 1092 196 1207 c 4
 223 1322 338 1417 453 1417 c 4
 568 1417 641 1322 614 1207 c 4
589 1207 m 4
 613 1309 549 1391 447 1391 c 4
 345 1391 245 1309 221 1207 c 4
 197 1105 261 1025 363 1025 c 4
 465 1025 565 1105 589 1207 c 4
EndSplineSet
EndChar

StartChar: uniF8E9
Encoding: 63721 63721 454
Width: 492
Flags: HW
LayerCount: 2
Fore
SplineSet
511 1159 m 260
 492 1117 448 1076 377 1076 c 260
 289 1076 264 1126 280 1194 c 262
 286 1223 l 262
 302 1291 351 1341 439 1341 c 260
 510 1341 525 1305 530 1274 c 260
 534 1249 516 1234 499 1234 c 262
 490 1234 l 262
 474 1234 467 1245 466 1256 c 260
 463 1270 452 1279 433 1279 c 260
 407 1279 386 1263 377 1225 c 262
 369 1192 l 262
 360 1152 372 1137 402 1137 c 260
 427 1137 436 1144 447 1165 c 260
 454 1177 469 1195 488 1195 c 262
 494 1195 l 262
 517 1195 519 1178 511 1159 c 260
614 1208 m 4
 587 1093 472 999 357 999 c 4
 242 999 169 1093 196 1208 c 4
 223 1323 338 1417 453 1417 c 4
 568 1417 641 1323 614 1208 c 4
588 1208 m 4
 611 1309 548 1391 447 1391 c 4
 346 1391 245 1309 222 1208 c 4
 199 1107 262 1025 363 1025 c 4
 464 1025 565 1107 588 1208 c 4
EndSplineSet
EndChar

StartChar: uni1E9E
Encoding: 7838 7838 457
Width: 611
VWidth: 1920
Flags: HW
LayerCount: 2
Fore
SplineSet
160 1063 m 2
 214 1295 310 1417 495 1417 c 0
 681 1417 703 1254 712 1165 c 0
 719 1094 700 1033 648 908 c 2
 576 738 l 1
 594 688 622 614 575 409 c 0
 504 102 416 -18 296 -18 c 0
 267 -18 244 -18 219 -2 c 0
 182 22 177 51 199 145 c 2
 200 148 l 2
 206 173 217 177 228 177 c 0
 234 177 237 174 243 174 c 0
 256 174 287 221 336 435 c 0
 363 553 367 606 360 628 c 0
 348 668 338 710 387 848 c 2
 459 1053 l 1
 480 1209 483 1246 465 1246 c 0
 451 1246 439 1219 427 1167 c 2
 182 105 l 2
 163 21 118 -15 34 -15 c 2
 32 -15 l 2
 -52 -15 -80 21 -61 105 c 2
 160 1063 l 2
EndSplineSet
EndChar
